<?xml version="1.0" encoding="UTF-8"?>
<svg id="Calque_1" xmlns="http://www.w3.org/2000/svg" version="1.1" viewBox="0 0 240 158">
  <!-- Generator: Adobe Illustrator 29.6.0, SVG Export Plug-In . SVG Version: 2.1.1 Build 207)  -->
  <defs>
    <style>
      .st0 {
        fill: #c9c92f;
      }

      .st1 {
        fill: #b8bab8;
      }

      .st2 {
        fill: #b16163;
      }

      .st3 {
        fill: #4cb2ac;
      }

      .st4 {
        fill: #98ce8c;
      }

      .st5 {
        fill: #a29161;
      }
    </style>
  </defs>
  <polygon class="st4" points="0 121 0 120 36.64 84.07 72.93 119.64 37.36 156.93 0 121"/>
  <polygon class="st1" points="240 120 240 121 204 158 202 158 167.02 120.5 201.47 84.94 203.99 84.44 240 120"/>
  <polygon class="st5" points="121 0 155.93 37.36 119.64 72.93 84.07 37.36 119 0 121 0"/>
  <polygon class="st0" points="119.64 84.07 156.04 120.5 120.36 156.93 83.96 120.5 119.64 84.07"/>
  <polygon class="st3" points="78.5 42.02 114.04 78.5 77.64 114.93 42.07 78.64 78.5 42.02"/>
  <polygon class="st2" points="161.5 42.02 197.93 78.64 162.36 114.93 125.96 78.5 161.5 42.02"/>
</svg>