<?xml version="1.0" encoding="UTF-8"?>
<svg id="Calque_1" xmlns="http://www.w3.org/2000/svg" version="1.1" viewBox="0 0 1000 1000">
  <!-- Generator: Adobe Illustrator 29.6.0, SVG Export Plug-In . SVG Version: 2.1.1 Build 207)  -->
  <defs>
    <style>
      .st0 {
        fill: #fefdfd;
      }

      .st1 {
        fill: #cc2026;
      }
    </style>
  </defs>
  <path class="st1" d="M529.18,0l58.21,7.27c206.51,35.78,372.89,203.31,406.32,410.52l6.29,49.21v66l-6.31,49.19c-34.13,211.6-206.15,381.49-418.19,412.65l-42.32,5.17h-66.97l-53.16-7.31c-10.46-2.24-21.04-4.02-31.43-6.55-3.07-.75-22.11-5.51-22.36-6.66,8.23-15.28,17.76-29.91,25.51-45.45,29.9-59.91,40.1-129.47,58.21-193.77.39-1.37.22-2.86.25-4.25,2.39-.54,1.62.41,2.23,1.3,60.45,88.38,193.67,68.25,268.56,10.09,110.16-85.55,154.97-282.29,95.93-407.75C683.55,71.09,230.47,130.81,168.63,422.81c-17.81,84.1,1.14,204.61,87.3,245.05,11.69,5.49,25.99,10.45,32.54-5.16,3.53-8.4,11.36-39.23,12.54-48.45,2.05-16.08-11.16-24.73-19.15-37.33-46.42-73.17-15.89-185.85,39.37-246.44,111.41-122.14,365.94-104.2,390.73,84.17,11.28,85.68-18.59,227.66-95.69,277.99-66.82,43.62-157.35,6.93-139.4-80.45,11.84-57.64,58.66-153.27,38.02-208.4-18.6-49.71-78.23-52.46-115.15-20.75-52.16,44.8-50.34,131.22-27.58,190.33l-66.59,282.46c-6.09,33.71-6.89,67.96-6.32,102.18C145.63,891.61,32.91,746,6.54,580.34l-6.16-50.34c.89-19.7-1.19-40.43,0-60C15.69,218.92,219.96,14.6,471.2,0h57.98Z"/>
  <path class="st0" d="M300.26,959c-.57-34.22-.76-69.48,5.32-103.18l66.59-282.46c-22.76-59.11-24.58-145.53,27.58-190.33,36.92-31.71,96.55-28.96,115.15,20.75,20.63,55.14-26.18,150.76-38.02,208.4-17.96,87.38,72.58,124.07,139.4,80.45,77.1-50.33,106.97-192.31,95.69-277.99-24.8-188.37-279.33-206.31-390.73-84.17-55.27,60.59-85.79,173.27-39.37,246.44,7.99,12.6,21.2,21.25,19.15,37.33-1.18,9.23-9.01,40.05-12.54,48.45-6.55,15.61-20.85,10.65-32.54,5.16-86.16-40.44-105.11-160.95-87.3-245.05,61.85-292,514.93-351.72,641.3-83.17,59.04,125.47,14.23,322.21-95.93,407.75-74.89,58.16-208.11,78.29-268.56-10.09-.61-.89.16-1.84-2.23-1.3-.03,1.39.14,2.88-.25,4.25-18.12,64.31-28.31,133.87-58.21,193.77-7.76,15.54-17.28,30.17-25.51,45.45"/>
</svg>