<?xml version="1.0" encoding="UTF-8"?>
<svg id="Calque_1" xmlns="http://www.w3.org/2000/svg" version="1.1" viewBox="0 0 122.52 122.52">
  <!-- Generator: Adobe Illustrator 29.7.1, SVG Export Plug-In . SVG Version: 2.1.1 Build 8)  -->
  <defs>
    <style>
      .st0 {
        fill: #21759b;
      }

      .st1 {
        fill: #fff;
      }
    </style>
  </defs>
  <circle class="st1" cx="61.26" cy="61.26" r="61.26"/>
  <g>
    <path class="st0" d="M8.71,61.26c0,20.8,12.09,38.78,29.62,47.3L13.26,39.87c-2.92,6.54-4.55,13.77-4.55,21.39Z"/>
    <path class="st0" d="M96.74,58.61c0-6.49-2.33-10.99-4.33-14.49-2.66-4.33-5.16-7.99-5.16-12.32,0-4.83,3.66-9.33,8.82-9.33.23,0,.45.03.68.04-9.35-8.57-21.81-13.8-35.49-13.8-18.36,0-34.51,9.42-43.91,23.69,1.23.04,2.4.06,3.38.06,5.5,0,14.01-.67,14.01-.67,2.83-.17,3.17,3.99.34,4.33,0,0-2.85.33-6.01.5l19.14,56.92,11.5-34.49-8.19-22.43c-2.83-.17-5.51-.5-5.51-.5-2.83-.17-2.5-4.5.33-4.33,0,0,8.68.67,13.84.67,5.5,0,14.01-.67,14.01-.67,2.83-.17,3.17,3.99.34,4.33,0,0-2.85.33-6.01.5l18.99,56.49,5.24-17.52c2.27-7.27,4-12.49,4-16.99Z"/>
    <path class="st0" d="M62.18,65.86l-15.77,45.82c4.71,1.38,9.69,2.14,14.85,2.14,6.12,0,11.99-1.06,17.45-2.98-.14-.22-.27-.46-.37-.72l-16.16-44.26Z"/>
    <path class="st0" d="M107.38,36.05c.23,1.67.35,3.47.35,5.4,0,5.33-1,11.33-4,18.82l-16.05,46.41c15.62-9.11,26.13-26.04,26.13-45.43,0-9.14-2.33-17.73-6.44-25.21Z"/>
    <path class="st0" d="M61.26,0C27.48,0,0,27.48,0,61.26s27.48,61.26,61.26,61.26,61.26-27.48,61.26-61.26C122.53,27.48,95.04,0,61.26,0ZM61.26,119.71c-32.23,0-58.45-26.22-58.45-58.46S29.03,2.81,61.26,2.81s58.45,26.22,58.45,58.45-26.22,58.46-58.45,58.46Z"/>
  </g>
</svg>