<?xml version="1.0" encoding="UTF-8"?>
<svg id="Calque_1" xmlns="http://www.w3.org/2000/svg" version="1.1" viewBox="0 0 750 500">
  <!-- Generator: Adobe Illustrator 29.6.1, SVG Export Plug-In . SVG Version: 2.1.1 Build 9)  -->
  <defs>
    <style>
      .st0 {
        fill: #fdfcfc;
      }

      .st1 {
        fill: #fff;
      }

      .st2 {
        fill: #c8102e;
      }

      .st3 {
        fill: #012169;
      }
    </style>
  </defs>
  <path class="st2" d="M750,200v100h-337.06v200h-75.87v-200h-36.07l42.29-28.47,1.24-2.03h-3.73v-38.89l63.8-.29c15.81-10.01,31.04-22.22,47.47-30.32h297.94-.01Z"/>
  <path class="st0" d="M750,56.94l-164.18,109.72h164.18v33.33h-297.94c-16.48,8.04-31.72,20.25-47.47,30.27l-63.8.29v-38.89h121.22l55.4-37.5h-176.62v-38.89h235.64l56.64-36.81-292.29-2.08v-37.5h350.07c19.64-12.27,39.23-24.94,57.89-38.89h1.24v56.94h.02,0Z"/>
  <polygon class="st0" points="750 300 750 333.33 585.82 333.33 750 443.06 750 462.5 556.59 333.33 501.24 333.33 748.76 500 664.18 500 438.43 348.61 437.81 500 412.94 500 412.94 300 750 300"/>
  <polygon class="st2" points="0 308.33 286.07 308.33 251.24 333.33 304.73 333.33 57.21 500 0 500 0 461.11 58.77 460.76 113.18 424.31 0 423.61 0 384.72 172.21 384.66 228.86 347.92 0 345.83 0 308.33"/>
  <polygon class="st0" points="340.8 269.44 344.53 269.44 343.28 271.53 301 300 337.06 300 337.06 500 312.19 500 311.57 348.61 85.82 500 57.21 500 304.73 333.33 251.24 333.33 286.07 308.33 0 308.33 0 269.44 340.8 269.44"/>
  <polygon class="st3" points="664.18 500 437.81 500 438.43 348.61 664.18 500"/>
  <polygon class="st3" points="85.82 500 311.57 348.61 312.19 500 85.82 500"/>
  <path class="st2" d="M748.76,0c-18.66,13.95-38.25,26.62-57.89,38.83h-350.07V0h407.96Z"/>
  <polygon class="st3" points="750 333.33 750 443.06 585.82 333.33 750 333.33"/>
  <polygon class="st3" points="750 56.94 750 166.67 585.82 166.67 750 56.94"/>
  <polygon class="st2" points="750 462.5 750 500 748.76 500 501.24 333.33 556.59 333.33 750 462.5"/>
  <polygon class="st0" points="0 345.83 228.86 347.92 172.21 384.66 0 384.72 0 345.83"/>
  <polygon class="st0" points="0 423.61 113.18 424.31 58.77 460.76 0 461.11 0 423.61"/>
  <polygon class="st2" points="340.8 76.39 633.08 78.47 576.44 115.22 340.8 115.28 340.8 76.39"/>
  <polygon class="st2" points="340.8 154.17 517.41 154.17 462.01 191.61 340.8 191.67 340.8 154.17"/>
  <g>
    <path class="st3" d="M0,0h340.8v269.39H0"/>
    <g id="s18">
      <g id="s9">
        <g id="s5">
          <g id="s4">
            <path id="s" class="st1" d="M28.4,11.52l8.14,27.84L15.29,22.16h26.22l-21.25,17.19,8.14-27.84h0Z"/>
            <path id="s1" class="st1" d="M28.4,65.39l8.14,27.84-21.25-17.19h26.22l-21.25,17.19s8.14-27.84,8.14-27.84Z"/>
            <path id="s2" class="st1" d="M28.4,119.33l8.14,27.84-21.25-17.19h26.22l-21.25,17.19s8.14-27.84,8.14-27.84Z"/>
            <path id="s3" class="st1" d="M28.4,173.21l8.14,27.84-21.25-17.19h26.22l-21.25,17.19s8.14-27.84,8.14-27.84Z"/>
          </g>
          <path id="s6" class="st1" d="M28.4,227.08l8.14,27.84-21.25-17.19h26.22l-21.25,17.19s8.14-27.84,8.14-27.84Z"/>
        </g>
        <g id="s41">
          <path id="s7" class="st1" d="M56.8,38.48l8.14,27.84-21.25-17.19h26.22l-21.25,17.19s8.14-27.84,8.14-27.84Z"/>
          <path id="s8" class="st1" d="M56.8,92.36l8.14,27.84-21.25-17.19h26.22l-21.25,17.19s8.14-27.84,8.14-27.84Z"/>
          <path id="s10" class="st1" d="M56.8,146.24l8.14,27.84-21.25-17.19h26.22l-21.25,17.19s8.14-27.84,8.14-27.84Z"/>
          <path id="s11" class="st1" d="M56.8,200.12l8.14,27.84-21.25-17.19h26.22l-21.25,17.19s8.14-27.84,8.14-27.84Z"/>
        </g>
      </g>
      <g id="s91">
        <g id="s51">
          <g id="s42">
            <path id="s12" class="st1" d="M85.2,11.52l8.14,27.84-21.25-17.19h26.22l-21.25,17.19,8.14-27.84Z"/>
            <path id="s13" class="st1" d="M85.2,65.39l8.14,27.84-21.25-17.19h26.22l-21.25,17.19,8.14-27.84Z"/>
            <path id="s14" class="st1" d="M85.2,119.33l8.14,27.84-21.25-17.19h26.22l-21.25,17.19,8.14-27.84Z"/>
            <path id="s15" class="st1" d="M85.2,173.21l8.14,27.84-21.25-17.19h26.22l-21.25,17.19,8.14-27.84Z"/>
          </g>
          <path id="s16" class="st1" d="M85.2,227.08l8.14,27.84-21.25-17.19h26.22l-21.25,17.19,8.14-27.84Z"/>
        </g>
        <g id="s43">
          <path id="s17" class="st1" d="M113.6,38.48l8.14,27.84-21.25-17.19h26.22l-21.25,17.19,8.14-27.84Z"/>
          <path id="s19" class="st1" d="M113.6,92.36l8.14,27.84-21.25-17.19h26.22l-21.25,17.19,8.14-27.84Z"/>
          <path id="s20" class="st1" d="M113.6,146.24l8.14,27.84-21.25-17.19h26.22l-21.25,17.19,8.14-27.84Z"/>
          <path id="s21" class="st1" d="M113.6,200.12l8.14,27.84-21.25-17.19h26.22l-21.25,17.19,8.14-27.84Z"/>
        </g>
      </g>
    </g>
    <g id="s181">
      <g id="s92">
        <g id="s52">
          <g id="s44">
            <path id="s22" class="st1" d="M142,11.52l8.14,27.84-21.25-17.19h26.22l-21.25,17.19,8.14-27.84Z"/>
            <path id="s23" class="st1" d="M142,65.39l8.14,27.84-21.25-17.19h26.22l-21.25,17.19,8.14-27.84Z"/>
            <path id="s24" class="st1" d="M142,119.33l8.14,27.84-21.25-17.19h26.22l-21.25,17.19,8.14-27.84Z"/>
            <path id="s25" class="st1" d="M142,173.21l8.14,27.84-21.25-17.19h26.22l-21.25,17.19,8.14-27.84Z"/>
          </g>
          <path id="s26" class="st1" d="M142,227.08l8.14,27.84-21.25-17.19h26.22l-21.25,17.19,8.14-27.84Z"/>
        </g>
        <g id="s45">
          <path id="s27" class="st1" d="M170.4,38.48l8.14,27.84-21.25-17.19h26.22l-21.25,17.19,8.14-27.84h0Z"/>
          <path id="s28" class="st1" d="M170.4,92.36l8.14,27.84-21.25-17.19h26.22l-21.25,17.19,8.14-27.84h0Z"/>
          <path id="s29" class="st1" d="M170.4,146.24l8.14,27.84-21.25-17.19h26.22l-21.25,17.19,8.14-27.84h0Z"/>
          <path id="s30" class="st1" d="M170.4,200.12l8.14,27.84-21.25-17.19h26.22l-21.25,17.19,8.14-27.84h0Z"/>
        </g>
      </g>
      <g id="s93">
        <g id="s53">
          <g id="s46">
            <path id="s31" class="st1" d="M198.8,11.52l8.14,27.84-21.25-17.19h26.22l-21.25,17.19,8.14-27.84h0Z"/>
            <path id="s32" class="st1" d="M198.8,65.39l8.14,27.84-21.25-17.19h26.22l-21.25,17.19,8.14-27.84h0Z"/>
            <path id="s33" class="st1" d="M198.8,119.33l8.14,27.84-21.25-17.19h26.22l-21.25,17.19,8.14-27.84h0Z"/>
            <path id="s34" class="st1" d="M198.8,173.21l8.14,27.84-21.25-17.19h26.22l-21.25,17.19,8.14-27.84h0Z"/>
          </g>
          <path id="s35" class="st1" d="M198.8,227.08l8.14,27.84-21.25-17.19h26.22l-21.25,17.19,8.14-27.84h0Z"/>
        </g>
        <g id="s47">
          <path id="s36" class="st1" d="M227.2,38.48l8.14,27.84-21.25-17.19h26.22l-21.25,17.19,8.14-27.84h0Z"/>
          <path id="s37" class="st1" d="M227.2,92.36l8.14,27.84-21.25-17.19h26.22l-21.25,17.19,8.14-27.84h0Z"/>
          <path id="s38" class="st1" d="M227.2,146.24l8.14,27.84-21.25-17.19h26.22l-21.25,17.19,8.14-27.84h0Z"/>
          <path id="s39" class="st1" d="M227.2,200.12l8.14,27.84-21.25-17.19h26.22l-21.25,17.19,8.14-27.84h0Z"/>
        </g>
      </g>
    </g>
    <g id="s94">
      <g id="s54">
        <g id="s48">
          <path id="s40" class="st1" d="M255.6,11.52l8.14,27.84-21.25-17.19h26.22l-21.25,17.19,8.14-27.84h0Z"/>
          <path id="s49" class="st1" d="M255.6,65.39l8.14,27.84-21.25-17.19h26.22l-21.25,17.19,8.14-27.84h0Z"/>
          <path id="s50" class="st1" d="M255.6,119.33l8.14,27.84-21.25-17.19h26.22l-21.25,17.19,8.14-27.84h0Z"/>
          <path id="s55" class="st1" d="M255.6,173.21l8.14,27.84-21.25-17.19h26.22l-21.25,17.19,8.14-27.84h0Z"/>
        </g>
        <path id="s56" class="st1" d="M255.6,227.08l8.14,27.84-21.25-17.19h26.22l-21.25,17.19,8.14-27.84h0Z"/>
      </g>
      <g id="s410">
        <path id="s57" class="st1" d="M284,38.48l8.14,27.84-21.25-17.19h26.22l-21.25,17.19,8.14-27.84h0Z"/>
        <path id="s58" class="st1" d="M284,92.36l8.14,27.84-21.25-17.19h26.22l-21.25,17.19,8.14-27.84h0Z"/>
        <path id="s59" class="st1" d="M284,146.24l8.14,27.84-21.25-17.19h26.22l-21.25,17.19,8.14-27.84h0Z"/>
        <path id="s60" class="st1" d="M284,200.12l8.14,27.84-21.25-17.19h26.22l-21.25,17.19,8.14-27.84h0Z"/>
      </g>
    </g>
    <g id="s510">
      <g id="s411">
        <path id="s61" class="st1" d="M312.4,11.52l8.14,27.84-21.25-17.19h26.22l-21.25,17.19,8.14-27.84h0Z"/>
        <path id="s62" class="st1" d="M312.4,65.39l8.14,27.84-21.25-17.19h26.22l-21.25,17.19,8.14-27.84h0Z"/>
        <path id="s63" class="st1" d="M312.4,119.33l8.14,27.84-21.25-17.19h26.22l-21.25,17.19,8.14-27.84h0Z"/>
        <path id="s64" class="st1" d="M312.4,173.21l8.14,27.84-21.25-17.19h26.22l-21.25,17.19,8.14-27.84h0Z"/>
      </g>
      <path id="s65" class="st1" d="M312.4,227.08l8.14,27.84-21.25-17.19h26.22l-21.25,17.19,8.14-27.84h0Z"/>
    </g>
  </g>
</svg>