<?xml version="1.0" encoding="UTF-8"?>
<svg id="Calque_1" xmlns="http://www.w3.org/2000/svg" version="1.1" viewBox="0 0 1024 914.91">
  <!-- Generator: Adobe Illustrator 30.2.1, SVG Export Plug-In . SVG Version: 2.1.1 Build 1)  -->
  <defs>
    <style>
      .st0 {
        fill: #0066da;
      }

      .st1 {
        fill: #2684fc;
      }

      .st2 {
        fill: #00832d;
      }

      .st3 {
        fill: #00ac47;
      }

      .st4 {
        fill: #ea4335;
      }

      .st5 {
        fill: #ffba00;
      }
    </style>
  </defs>
  <path class="st0" d="M77.42,784.13l45.16,78c9.38,16.42,22.87,29.32,38.71,38.71l161.28-279.17H0c0,18.18,4.69,36.36,14.08,52.78l63.34,109.67Z"/>
  <path class="st3" d="M512,293.24L350.72,14.08c-15.84,9.38-29.32,22.29-38.71,38.71L14.08,568.89C4.86,584.96.01,603.15,0,621.67h322.57l189.43-328.43Z"/>
  <path class="st4" d="M862.72,900.84c15.84-9.38,29.32-22.29,38.71-38.71l18.77-32.26,89.73-155.42c9.38-16.42,14.08-34.6,14.08-52.78h-322.59l68.64,134.89,92.66,144.27Z"/>
  <path class="st2" d="M512,293.24L673.28,14.08C657.45,4.69,639.27,0,620.5,0h-217C384.73,0,366.55,5.28,350.72,14.08l161.28,279.17Z"/>
  <path class="st1" d="M701.43,621.67h-378.87l-161.28,279.17c15.84,9.38,34.02,14.08,52.78,14.08h595.87c18.77,0,36.95-5.28,52.78-14.08l-161.28-279.17Z"/>
  <path class="st5" d="M860.96,310.84L711.99,52.78c-9.38-16.42-22.87-29.32-38.71-38.71l-161.28,279.17,189.43,328.43h321.98c0-18.18-4.69-36.36-14.08-52.78l-148.38-258.05Z"/>
</svg>