<?xml version="1.0" encoding="UTF-8"?>
<svg id="Calque_1" xmlns="http://www.w3.org/2000/svg" xmlns:xlink="http://www.w3.org/1999/xlink" version="1.1" viewBox="0 0 512 512">
  <!-- Generator: Adobe Illustrator 29.5.1, SVG Export Plug-In . SVG Version: 2.1.0 Build 141)  -->
  <defs>
    <style>
      .st0 {
        fill: #fff;
      }

      .st1 {
        fill: url(#Dégradé_sans_nom);
      }
    </style>
    <linearGradient id="Dégradé_sans_nom" data-name="Dégradé sans nom" x1="6.04" y1="505.96" x2="6.94" y2="505.06" gradientTransform="translate(-3066 259078) scale(512 -512)" gradientUnits="userSpaceOnUse">
      <stop offset="0" stop-color="#3b82f6"/>
      <stop offset="1" stop-color="#8b5cf6"/>
    </linearGradient>
  </defs>
  <rect class="st1" width="512" height="512" rx="128" ry="128"/>
  <path class="st0" d="M214.7,420.66c-60.96-1.44-116.98-49.44-120.21-111.62-.2-3.82-.41-10.31.01-13.96.16-1.42.51-2.5,1.55-3.51l58.78-.5.95.94c.73,9.57.85,18.65,3.72,27.91,7.21,23.3,31.47,40.39,55.2,43.17l-.72-94.16c-16.78-6.06-35.06-10.04-51.37-17.26-90.15-39.9-60.73-168.73,39.11-173.88,27.46-1.42,62.34-1.24,89.87,0,56.56,2.55,109.93,38.68,110.98,99.66.11,6.23-2.08,16.07-1.21,21.46.42,2.64,3.56,7.01,4.7,9.86,8.49,21.34,4.13,46.59-9.02,64.97-2.81,3.92-6.36,7.1-8.95,11.16,24.16,21.52,34.63,49.85,27.48,82.01-8.76,39.4-42.7,66.21-82.84,67.7l-115.76.59c-4.15-.79-1.5-11.09-2.23-14.54h0s-.01,0-.01,0ZM214.69,210.66v-50.29l129.04-.32c-10.46-17.72-28.61-27.15-48.99-28.49-17.1-1.12-37.62-.5-55.03-.63-27.86-.2-68.13-1.77-71.74,35.85-2.59,27,25.75,37.71,46.73,43.88h0ZM269.09,227.74l66.74,20.86,16.54,7.54c5.8-5,7.65-13.61,7.2-21.16-1.01-16.71-16.18-27.54-31.95-28.77-15.07-1.19-32.1.49-47.49.05-3.46-.1-7.34-1.24-11.04-.66v22.14h0ZM269.09,287.2v91.4c0,.14-1.2.84-.31.95l61.38-.61c21.73-2.32,33.5-16.44,31.95-38.32-1.33-18.81-17.38-29.82-33.7-35.25-19.58-6.5-39.74-11.6-59.31-18.18h0Z"/>
</svg>