<?xml version="1.0" encoding="UTF-8"?>
<svg id="Calque_1" xmlns="http://www.w3.org/2000/svg" version="1.1" viewBox="0 0 767.23 850">
  <!-- Generator: Adobe Illustrator 29.5.1, SVG Export Plug-In . SVG Version: 2.1.0 Build 141)  -->
  <path d="M302.95,746.6c-119.06-2.81-228.47-96.56-234.79-218-.39-7.46-.8-20.13.02-27.26.32-2.77,1-4.88,3.02-6.86l114.81-.97,1.86,1.84c1.42,18.7,1.66,36.42,7.26,54.52,14.08,45.51,61.47,78.88,107.81,84.31l-1.41-183.91c-32.78-11.83-68.48-19.61-100.34-33.71C25.12,338.63,82.58,87,277.57,76.95c53.64-2.77,121.76-2.43,175.53,0,110.47,4.99,214.71,75.55,216.75,194.64.21,12.16-4.07,31.38-2.37,41.92.83,5.16,6.96,13.7,9.17,19.25,16.59,41.68,8.07,90.99-17.62,126.89-5.48,7.66-12.42,13.87-17.48,21.8,47.18,42.04,67.63,97.36,53.67,160.17-17.11,76.95-83.39,129.31-161.8,132.23l-226.1,1.15c-8.1-1.54-2.92-21.66-4.35-28.39v-.02ZM302.94,336.44v-98.22l252.03-.63c-20.42-34.61-55.88-53.02-95.69-55.64-33.4-2.19-73.47-.98-107.48-1.24-54.41-.4-133.06-3.46-140.12,70.01-5.06,52.73,50.29,73.65,91.27,85.71h0ZM409.19,369.8l130.36,40.75,32.31,14.72c11.32-9.76,14.95-26.58,14.06-41.32-1.98-32.63-31.61-53.78-62.41-56.2-29.44-2.32-62.7.96-92.75.1-6.76-.2-14.34-2.43-21.57-1.28v43.24h0ZM409.19,485.93v178.52c0,.28-2.35,1.65-.61,1.86l119.88-1.19c42.44-4.53,65.43-32.1,62.4-74.85-2.6-36.73-33.94-58.25-65.82-68.84-38.24-12.7-77.62-22.66-115.84-35.5h0Z"/>
</svg>