<?xml version="1.0" encoding="UTF-8"?>
<svg id="Calque_1" xmlns="http://www.w3.org/2000/svg" version="1.1" viewBox="0 0 72 72">
  <!-- Generator: Adobe Illustrator 29.5.1, SVG Export Plug-In . SVG Version: 2.1.0 Build 141)  -->
  <defs>
    <style>
      .st0 {
        fill: #fff;
      }

      .st0, .st1 {
        fill-rule: evenodd;
      }
    </style>
  </defs>
  <path class="st0" d="M8,72h56c4.42,0,8-3.58,8-8V8c0-4.42-3.58-8-8-8H8C3.58,0,0,3.58,0,8v56c0,4.42,3.58,8,8,8Z"/>
  <path class="st1" d="M62,62h-10.68v-18.2c0-4.99-1.9-7.78-5.84-7.78-4.3,0-6.54,2.9-6.54,7.78v18.2h-10.3V27.33h10.3v4.67s3.1-5.73,10.45-5.73,12.62,4.49,12.62,13.78v21.95h0ZM16.35,22.79c-3.51,0-6.35-2.86-6.35-6.4s2.84-6.4,6.35-6.4,6.35,2.86,6.35,6.4-2.84,6.4-6.35,6.4ZM11.03,62h10.74V27.33h-10.74s0,34.67,0,34.67Z"/>
</svg>