<?xml version="1.0" encoding="UTF-8"?>
<svg id="Calque_1" xmlns="http://www.w3.org/2000/svg" version="1.1" viewBox="0 0 888.21 1000">
  <!-- Generator: Adobe Illustrator 30.2.1, SVG Export Plug-In . SVG Version: 2.1.1 Build 1)  -->
  <defs>
    <style>
      .st0 {
        fill: #f9bb4e;
      }

      .st1 {
        fill: #01529e;
      }
    </style>
  </defs>
  <path class="st0" d="M669.71,0c33.57,6.08,67.56,9,102.52,13.54,20.62,2.67,35.93,19.11,33.18,41.07l-13.95,112.19c-2.76,22.19-22.13,34.74-43.3,32.01l-98.08-12.62c-11.99-1.54-22.47-3.92-29.92-12.56s-10.59-19.68-8.99-31.93l14.96-114.45c1.87-14.36,13.67-21.96,25.48-27.24h18.11Z"/>
  <path class="st1" d="M617.88,546.08l-229.88,96.32c-40.56,17-86.86-3.21-103.6-43.33l-101.04-242.01c-15.96-38.24,4.06-83.76,42.07-99.77l232.26-97.86c35.88-15.11,85.19.98,101.57,39.76l65.81,155.78,36.44,87.54c16.71,40.15-2.79,86.47-43.63,103.59l.02-.02ZM480.44,372.49l53.18-53.12c7.51-7.5,7.54-21.72-.06-29.38l-55.35-55.9c-9.13-9.22-23.21-7.99-32.1.89l-51.95,51.93c-9.14,9.14-8.24,22.9.62,31.75l54.25,54.24c8.57,8.57,22.4,8.6,31.4-.39v-.02Z"/>
  <g>
    <path class="st1" d="M.02,898.94v-27.15c6.18-23,20.75-42.43,41.51-50.5,24.92-9.7,50.03-5.1,69.91,11.52,1.83-7.09.12-12.88,1.06-19.83,6.94-.6,14.25-.97,21.43.09l.92,106.33c.08,8.64,10.98,13.41,16.85,18.07-2.62,6.53-7.12,12.55-11.43,18.4-11.22-5.31-18.99-13.76-25.48-24.99-19.08,17.41-42.81,24.06-68.27,16.24-19.61-6.02-37.87-23.09-43.98-45.78-.39-1.45-1.81-1.98-2.53-2.4l.02-.02ZM57.23,839.38c-25.61,5.66-40,31.04-33.89,55.07s29.83,38.34,53.82,32.87c23.98-5.48,39.53-29.59,33.94-53.97-5.6-24.37-28.39-39.58-53.86-33.97Z"/>
    <path class="st1" d="M776.79,1000h-13.42l.14-21.89c25.6-1.79,52.35-16.29,52.46-44.63l.44-117.42c.15-39.91,32.44-65.75,71.79-64.37v21.87c-12.01.56-23.44,1.89-33.3,9.06-9.86,7.18-16.53,20.05-16.59,33.39l-.44,117.53c-.14,35.75-26.36,56.18-58.37,64.57-1.42.38-2.25,1.1-2.71,1.89h.02Z"/>
    <path class="st1" d="M325.87,975.81c-5.1,5.32-11.67,7.75-18.34,11.81l-66.73-110.14-29.38,27.9-.32,49.25c-7.3.71-13.73.56-21.76.11l-.05-219.85c7.21-.81,13.94-.59,21.81-.18l.32,139.86,79.29-74.54,14.89,15.38-48.31,46.47,68.58,113.91v.02Z"/>
    <path class="st1" d="M558.91,939c4.57,6.2,7.95,10.9,11.98,18.05-17.16,10.41-37.45,15.58-57.39,11.83-31.61-5.96-54.81-31.7-55.58-63.85-.29-11.86-.9-22.9.11-34.77,1.51-17.89,11.06-35.01,25.99-45.48,19.11-13.39,43.51-15.05,66.5-5.66,18.31,7.48,35.02,25.52,39.5,47.83,2.02,10.05.38,19.83.69,30.41l-110.77.2c-2.43,23.86,12.75,44.77,36.21,49.5,14.62,2.96,28.55-.56,42.75-8.08l.02.02ZM569.46,875.26c-2.17-24.86-21.98-40.72-44.54-39.68-24.21-2.5-44.45,14.84-45.51,40.05l90.05-.36Z"/>
    <path class="st1" d="M678.7,817.12c37.59-5.88,70.83,20.08,76.5,55.55,5.9,36.91-19.34,71.25-56.17,76.91-35.93,5.52-70.23-19.03-76.15-55.48-5.93-36.44,17.83-71.04,55.82-76.98h0ZM678.7,839.49c-25.6,5.85-39.62,31.61-33.26,55.46,6.23,23.36,30.2,37.77,53.39,32.47,24.52-5.6,39.52-29.8,34.34-53.54s-28.85-40.23-54.48-34.37v-.02Z"/>
    <path class="st1" d="M431.94,927.99c.75,7.62.59,14.27.12,21.61-39.68,1.48-74.4-27.38-74.6-68.73l-.23-49.03-29.02-.66c-.53-7.35-.36-13.88-.14-21.1l29.19-.69.38-49.59c7.32-.65,14.56-.89,21.63.18l.47,49.62,52.22.29c.66,7.1.75,14.28-.11,21.58l-52.32.45.11,52.05c.06,25.14,25.25,45.19,52.29,44.04l.02-.02Z"/>
  </g>
</svg>