<?xml version="1.0" encoding="UTF-8"?>
<svg id="Calque_1" xmlns="http://www.w3.org/2000/svg" version="1.1" viewBox="0 0 350 350">
  <!-- Generator: Adobe Illustrator 29.6.1, SVG Export Plug-In . SVG Version: 2.1.1 Build 9)  -->
  <defs>
    <style>
      .st0 {
        fill: #fff;
      }

      .st1 {
        fill: #001c4b;
      }

      .st2 {
        fill: #009ddf;
      }
    </style>
  </defs>
  <rect class="st1" width="350" height="350"/>
  <g>
    <rect class="st2" x="32.75" y="216.64" width="283.26" height="21.34"/>
    <path class="st0" d="M160.11,172.05h-13.19v-26.73c0-.37-.49-2.22-.65-2.7-1.92-5.78-9.49-3.78-13.18-.91-.08.45.4,1.6.4,1.93v28.41h-13.43v-27.93c0-.15-.7-2.22-.84-2.52-2.19-4.75-9.28-2.36-12.12.6v29.85h-13.43v-43.39h12.23l.48,3.36c6.46-5.61,15.9-5.41,22.42,0,9.55-6.16,26.84-6.76,30.52,6.42.22.8.79,3.08.79,3.77v29.85Z"/>
    <path class="st0" d="M92,172.05h-14.15l-4.59-11.23-21.44-.05-4.91,11.29h-14.15l.11-.72,24.34-58.13c.42-.25,8.71-.25,9.73-.13.34.04.63.02.81.39l24.24,58.59ZM69.21,149.27l-6.84-17.74-6.84,17.74h13.67Z"/>
    <path class="st0" d="M296.34,113.07v58.97h-12.11c-.59,0-.09-1.87-.72-2.15-5.69,4.31-13.51,4.06-19.34.15-9.57-6.43-11.61-22-6.25-31.72,5.04-9.13,15.11-12.16,24.99-9.91v-15.34h13.43ZM282.89,139.71c-10.96-3.59-17.17,5.72-13.95,15.75,2.07,6.46,9.15,8.58,13.93,3.48l.03-19.23Z"/>
    <path class="st0" d="M178.1,128.66v25.29c0,1.19.71,4.09,1.31,5.17,2.56,4.64,9.79,2.31,12.84-.61v-29.85h13.43v43.39h-12.47c-.13-1.1-.11-2.36-.6-3.36-4.96,4.59-12.59,5.51-18.75,2.92-7.45-3.14-8.89-10.01-9.2-17.41-.36-8.42.29-17.1,0-25.54h13.43Z"/>
    <path class="st0" d="M252.21,172.05h-13.43v-25.77c0-.56-.5-2.49-.71-3.13-2.13-6.35-9.8-4.75-13.44-.71v29.61h-13.43v-43.39h12.23l.6,3.36c5.64-5.38,16.47-5.81,22.43-.84,4.25,3.54,5.49,9.32,5.76,14.62.44,8.61-.35,17.61,0,26.26Z"/>
    <rect class="st0" x="302.82" y="128.66" width="13.19" height="43.39"/>
    <path class="st0" d="M307.32,112.17c5.42-.84,10.55,1.92,9.87,7.95-.97,8.64-15.33,8.23-15.58-.69-.09-3.29,2.4-6.74,5.71-7.26Z"/>
    <path class="st0" d="M113.34,187.63c.43.07,2.54-.1,2.64,0,.12.12-.18,1.67.12,1.68,1.92-2.89,7.01-2.58,8.63.48,2.28-3.32,8.13-3.42,9.89.42.09.2.54,1.53.54,1.62v10.43h-2.64v-9.47c0-1.57-1.93-3.06-3.47-3.01-1.32.04-3.49,1.71-3.49,3.01v9.47h-2.64v-9.47c0-.09-.42-1.24-.51-1.41-1.22-2.14-4.35-2.03-5.69,0-.14.21-.76,1.53-.76,1.64v9.23h-2.64v-14.62Z"/>
    <path class="st0" d="M204.69,186.88c-.56.32-1.86-.93-2.44-1.21-2.4-1.15-7.28-1.27-7.14,2.33.1,2.8,5.38,3.03,7.46,3.83,5.96,2.31,4.74,9.63-1.18,10.56-2.66.42-8-.49-9.62-2.88-.42-.62.98-1.96,1.54-2.27,1.89,2.8,9.95,4.47,10.36,0,.29-3.26-5.14-3.4-7.32-4.21-3.25-1.21-5.07-3.97-3.54-7.36,2.07-4.6,9.98-3.89,13.12-.76-.15.3-1.13,1.93-1.23,1.98Z"/>
    <path class="st0" d="M152.44,196.02h-11.03c.26,3.59,4.12,5.14,7.18,3.46,1.2-.66,1.23-1.76,2.53-.82s.62,1.52-.48,2.39c-4.56,3.6-11.54.77-12.08-5.18-1.03-11.32,15.13-11.38,13.88.15ZM149.56,193.86c-.33-5.68-7.63-5.34-8.15,0h8.15Z"/>
    <path class="st0" d="M85.04,196.02h-11.03c.92,4.66,5.93,5.34,9.03,2.18l1.76,1.53c-4.41,5.09-13,3.14-13.44-4.06-.69-11.47,15.24-10.89,13.68.35ZM74.01,193.86h8.39c-.69-5.6-7.47-5.45-8.39,0Z"/>
    <path class="st0" d="M276.38,187.45c11.98-1.64,12.01,16.76-.24,14.98-7.95-1.16-7.9-13.87.24-14.98ZM276.85,189.85c-1.16.19-2.36,1.06-3.01,2.02-3.16,4.65,2.09,10.58,6.66,7.38s1.69-10.29-3.65-9.4Z"/>
    <path class="st0" d="M215.46,187.45c11.98-1.64,12.01,16.76-.24,14.98-7.95-1.16-7.9-13.87.24-14.98ZM215.93,189.85c-1.16.19-2.36,1.06-3.01,2.02-3.16,4.65,2.09,10.58,6.66,7.38,4.34-3.04,1.69-10.29-3.65-9.4Z"/>
    <path class="st0" d="M53.14,202.25h-2.64v-9.47c0-.27-.8-1.76-1.08-2.04-1.61-1.6-4.33-1.14-5.64.6-.13.18-.72,1.13-.72,1.2v9.71h-2.88v-14.62c.46.08,2.78-.1,2.88,0,.14.14-.21,1.21.12,1.44,2.07-2.23,6.62-2.37,8.64,0,.38.45,1.31,2.27,1.31,2.77v10.43Z"/>
    <path class="st0" d="M168.75,202.25h-2.88v-9.95c0-.33-1.08-1.66-1.45-1.91-1.44-.96-3.55-.72-4.8.46-.32.3-1.19,1.85-1.19,2.17v9.23h-2.64v-14.62c.43.07,2.54-.1,2.64,0,.08.08-.06,1.35,0,1.68,2.87-3.21,8.78-2.53,9.97,1.9.06.23.34,1.7.34,1.81v9.23Z"/>
    <path class="st0" d="M301.62,202.25h-2.64v-9.95c0-.33-1.08-1.66-1.45-1.91-1.44-.96-3.55-.72-4.8.46-.32.3-1.19,1.85-1.19,2.17v9.23h-2.64v-14.62c.43.07,2.54-.1,2.64,0,.13.13-.19,1.41.12,1.68,2.06-2.62,6.63-2.68,8.76-.12.33.39,1.19,1.76,1.19,2.16v10.91Z"/>
    <path class="st0" d="M237.82,187.63v9.47c0,.27.8,1.76,1.08,2.04,1.62,1.61,4.54,1.13,5.75-.73.12-.19.61-1.21.61-1.31v-9.47h2.64v14.62c-.43-.07-2.54.1-2.64,0-.14-.14.21-1.21-.12-1.44-2.13,2.2-6.6,2.39-8.64,0-.38-.45-1.31-2.27-1.31-2.77v-10.43h2.64Z"/>
    <path class="st0" d="M315.76,188.85c.12.93-.76,1.53-.95,2.38-1.62-.8-2.98-1.66-4.92-1.44-.89.1-1.98.85-1.94,1.81.09,2.19,7.49,1.76,8.04,5.53.75,5.14-4.31,6.17-8.27,4.91-.38-.12-2.87-1.34-2.95-1.49-.25-.43.95-2.12,1.07-2.14.41-.06,2.21,1.19,2.91,1.4,1.45.45,4.51.7,4.82-1.32.46-2.91-7.51-1.94-8.09-5.96-.87-5.98,6.63-6,10.27-3.68Z"/>
    <path class="st0" d="M97.51,191.23c-1.61-.77-3.04-1.64-4.92-1.44-.97.1-2.04.74-2.03,1.81.02,2.1,7.55,1.83,8.13,5.52,1.04,6.53-7.89,6.47-11.39,3.23,1.26-3.24,1.92-1.31,3.98-.61,1.82.62,5.63.76,4.75-2.11-.54-1.74-7.44-1.57-7.87-5.07-.64-5.27,4.82-6.01,8.7-4.38,2.43,1.02,1.41,1.08.65,3.06Z"/>
    <path class="st0" d="M62.5,198.42c.42.4.4-.15.5-.34,1.61-3.16,2.55-7.01,4.17-10.22.5-.51,2.25-.11,3.01-.23l-6.59,14.64c-.75-.12-1.78.29-2.26-.4l-6.02-14.24c.72.12,2.58-.28,3,.24l4.2,10.55Z"/>
    <path class="st0" d="M105.43,183.32v4.32h4.56v2.4h-4.56v8.51c0,.06.5.98.54,1.02.89.83,2.83.45,3.78-.18.02,2.31.56,2.91-2.04,3.11-1.27.1-2.94-.1-3.87-1.04-.23-.23-1.04-1.74-1.04-1.96v-9.47c-.35-.06-1.84.09-1.92,0-.09-.09.07-1.87,0-2.26.05-.32,1.92-.04,1.92-.14v-4.32h2.64Z"/>
    <path class="st0" d="M176.18,183.32v4.32h4.56v2.4h-4.56v8.51c0,1.72,3.25,1.81,4.31.84.02,2.31.56,2.91-2.04,3.11-1.33.11-3.15-.14-4.06-1.21-.16-.19-.86-1.65-.86-1.78v-9.47c-.35-.06-1.84.09-1.92,0-.09-.09.07-1.87,0-2.26.05-.32,1.92-.04,1.92-.14v-4.32h2.64Z"/>
    <path class="st0" d="M255.81,183.32v4.32h4.32v2.4h-4.32v8.75c0,1.49,3.4,1.48,4.31.6-.09.48.15,2.42-.02,2.61-.47.53-3.44.53-4.25.34-1-.24-2.68-1.53-2.68-2.59v-9.71c-.35-.06-1.84.09-1.92,0-.09-.09.07-1.87,0-2.26.05-.32,1.92-.04,1.92-.14v-4.32h2.64Z"/>
    <rect class="st0" x="228.23" y="181.88" width="2.64" height="20.38"/>
    <rect class="st0" x="32.75" y="182.6" width="2.64" height="19.66"/>
    <rect class="st0" x="263.73" y="187.63" width="2.64" height="14.62"/>
    <rect class="st0" x="263.72" y="182.36" width="2.88" height="2.88"/>
    <polygon class="st1" points="69.21 149.27 55.54 149.27 62.38 131.53 69.21 149.27"/>
    <path class="st1" d="M282.89,139.71l-.03,19.23c-4.78,5.1-11.86,2.98-13.93-3.48-3.21-10.03,2.99-19.33,13.95-15.75Z"/>
    <path class="st1" d="M149.56,193.86h-8.15c.52-5.34,7.83-5.68,8.15,0Z"/>
    <path class="st1" d="M74.01,193.86c.93-5.45,7.7-5.6,8.39,0h-8.39Z"/>
    <path class="st1" d="M276.85,189.85c5.34-.9,7.99,6.35,3.65,9.4-4.57,3.2-9.82-2.72-6.66-7.38.65-.96,1.86-1.83,3.01-2.02Z"/>
    <path class="st1" d="M215.93,189.85c5.34-.9,7.99,6.35,3.65,9.4-4.57,3.2-9.82-2.72-6.66-7.38.65-.96,1.86-1.83,3.01-2.02Z"/>
  </g>
</svg>