<?xml version="1.0" encoding="UTF-8"?><svg id="Calque_1" xmlns="http://www.w3.org/2000/svg" viewBox="0 0 229.96 228.37"><defs><style>.cls-1{fill:#fff;}.cls-2{fill:#dbb360;}.cls-3{fill:#e4002b;}</style></defs><path class="cls-1" d="M116.22,212.6c54.73,0,99.1-44.39,99.1-99.15S170.95,14.31,116.22,14.31,17.12,58.7,17.12,113.45s44.37,99.15,99.1,99.15"/><path class="cls-3" d="M110.09,212.17c-6.16-5.71-10.81-13.04-13.04-21.16-34.95-8.31-60.95-39.71-60.95-77.2,0-43.84,35.53-79.37,79.37-79.37s79.37,35.53,79.37,79.37c0,16.42-4.99,31.67-13.53,44.33,3.9,7.37,5.66,15.87,4.46,24.69l.13,1.19c18.16-17.98,29.41-42.93,29.41-70.51,0-54.79-44.42-99.21-99.21-99.21S16.9,58.73,16.9,113.52s41.29,96.01,93.35,99.04"/><path class="cls-3" d="M118.48,68.19c-9.79-7.95-15.13-7.48-24.57-1.3,2.07-5.36,7.06-7.42,9.74-7.64,3.95-.33,10.88,1.54,14.83,8.94"/><path class="cls-3" d="M87.65,67.87c-4.37-5.04-11.23-4.82-16.98,.99,.94-3.44,4.22-6.53,9.06-6.71,3.33-.12,6.86,1.12,7.91,5.71"/><path class="cls-3" d="M112.78,67.72s-4.97,9.77-11.02,5.18c-4.17-4.47,11.02-5.18,11.02-5.18"/><path class="cls-1" d="M105.71,73.18c1.46-.26,2.56-.96,2.45-1.58-.11-.61-1.38-.9-2.84-.64-1.46,.26-2.56,.96-2.45,1.58,.11,.61,1.38,.9,2.84,.64"/><path class="cls-3" d="M72.2,70.24s14.35-1.38,12.77,2.68c-2.55,6.53-12.77-2.68-12.77-2.68"/><path class="cls-1" d="M80.51,74.4c1.6,.23,2.98-.12,3.07-.78,.09-.66-1.13-1.37-2.74-1.6-1.6-.23-2.98,.12-3.07,.78-.09,.66,1.13,1.37,2.74,1.6"/><path class="cls-3" d="M123.17,53.86c-13.15-8.85-26.17-10.26-43.66-1.32-5.27,2.54-7.6,5.84-7.32,5.74,7.76-2.83,13.96,.07,17.5,5.88,2.66-2.91,6.32-7.08,10.17-8.24,9.16-2.76,19.09,2.58,22.59,11.67,3.35,8.7-1.92,18.21-10.71,22.96-17.2,8.95-37.93,14.79-48.68,36.83-5.89,15.31-2.69,25.53,5.91,38.16,5.91,7.53,15.72,13,20.99,16.3-4.77-6.34-12.47-15.02-13.61-24.38-2.27-19.84,3.59-29.37,18.71-39.12,7.29-4.86,14.13-7.17,20.39-10.89,1.68-2.18,3.07-5.02,3.83-8.92,.26,1.32,.77,3.2,1.25,5.34,13.52-11.8,17.65-39.2,2.63-50.01"/><path class="cls-2" d="M119.3,100.91c.2,3.97,4.59,11.35,1.82,18.12-2.3,5.62-4.69,8.8-8.05,13.15-7.14,9.23-13.15,12.04-20.21,24,1.84-14.01,14.81-23,16.94-36.2-2.06,7.08-6.4,14.12-11.54,19.28-8.35,8.38-12.68,18.17-11.53,29.96,.04,.37,.32,3.27,.22,3.35-8.25-19.79-11.87-35.85,4.58-48.28,2.95-2.23,7.37-4.25,12.05-7.09,5.24-3.54,13.04-5.67,15.73-16.3"/><path class="cls-3" d="M92.67,86.33c-1.31-2.78-2.71-4.57-2.84-6.44-.11-1.54,.11-3.33,1.99-4.28,1.55-.8,3.45-.41,4.23,.47,.7,.8,.42,2.89-.03,4.2-.62,1.78-1.81,3.35-3.35,6.05"/><path class="cls-3" d="M135.88,95.76c-1.09,.44-2.01,1.03-2.77,1.78-.76,.75-1.34,1.64-1.73,2.65-.4,1.01-.59,2.1-.59,3.27,0,1.23,.22,2.34,.66,3.32,.44,.98,1.02,1.82,1.75,2.51,.73,.69,1.58,1.22,2.55,1.59,.97,.37,1.98,.56,3.04,.56s1.85-.09,2.53-.28c.68-.19,1.23-.45,1.65-.8,.42-.35,.72-.76,.9-1.24,.18-.48,.27-1.03,.27-1.63v-2.53c0-.35-.16-.68-.48-.99-.32-.31-.71-.46-1.15-.46h-1.63l.11,.7c.03,.21,.06,.45,.08,.73,.02,.28,.03,.57,.03,.88v1.27c0,.46-.13,.82-.38,1.09-.26,.27-.77,.4-1.54,.4-.72,0-1.38-.11-2-.32-.62-.21-1.16-.54-1.62-.98-.46-.44-.82-1.01-1.07-1.72-.25-.7-.38-1.55-.38-2.55,0-.74,.12-1.41,.37-2.03,.25-.62,.6-1.15,1.05-1.6,.45-.45,.99-.81,1.62-1.06s1.31-.38,2.06-.38c.85,0,1.68,.11,2.51,.34s1.51,.56,2.06,1h.11v-1.08c0-.37-.09-.74-.26-1.1-.17-.37-.43-.7-.78-1-.35-.3-.8-.54-1.34-.73-.54-.18-1.18-.28-1.93-.28-1.37,0-2.6,.22-3.69,.65"/><path class="cls-3" d="M151.13,95.26c-.28,0-.62,.02-1.01,.07s-.78,.1-1.17,.17c-.39,.07-.76,.15-1.12,.24-.36,.09-.65,.17-.87,.25v12.91c0,.42,.06,.77,.18,1.06,.12,.29,.27,.52,.46,.7s.4,.31,.63,.38c.23,.07,.46,.11,.68,.11h1.27v-6.13c.67,.35,1.57,.53,2.69,.53,.77,0,1.49-.12,2.15-.37,.66-.24,1.24-.6,1.72-1.07,.48-.47,.86-1.04,1.13-1.7,.27-.67,.41-1.42,.41-2.25,0-.78-.13-1.48-.39-2.09-.26-.62-.63-1.13-1.1-1.55-.47-.42-1.03-.73-1.69-.94-.65-.21-1.38-.32-2.16-.32h-1.79Zm.08,7.54c-.41-.06-.76-.12-1.04-.2v-4.47c.18-.03,.4-.07,.65-.13,.25-.06,.48-.08,.67-.08h1.04c.84,0,1.45,.19,1.85,.58,.39,.39,.59,1.03,.59,1.94,0,.76-.21,1.36-.65,1.79-.43,.43-1.06,.65-1.89,.65-.4,0-.81-.03-1.22-.08"/><path class="cls-3" d="M163.77,95.53c-.75,.28-1.38,.66-1.9,1.14-.51,.48-.91,1.02-1.18,1.64-.27,.62-.41,1.25-.41,1.91,0,1.08,.37,1.95,1.1,2.62,.74,.67,1.79,1.15,3.16,1.44,.84,.18,1.51,.35,2.02,.5,.51,.15,.9,.32,1.16,.5s.44,.37,.51,.57c.08,.2,.12,.44,.12,.71,0,.63-.23,1.13-.69,1.51s-1.29,.57-2.5,.57c-.98,0-1.84-.17-2.56-.5-.72-.33-1.36-.74-1.91-1.21h-.07v1.41c0,.94,.41,1.69,1.23,2.26s2.04,.85,3.66,.85c.97,0,1.82-.12,2.57-.37,.75-.25,1.38-.6,1.9-1.05,.52-.45,.91-1,1.17-1.63,.26-.63,.39-1.33,.39-2.12,0-1.06-.36-1.95-1.07-2.67-.72-.72-1.81-1.24-3.28-1.55-.75-.15-1.36-.3-1.85-.46-.48-.15-.87-.32-1.15-.48-.28-.17-.48-.35-.58-.56s-.16-.42-.16-.64c0-.61,.25-1.11,.76-1.48,.51-.37,1.39-.56,2.64-.56,1.79,0,3.18,.52,4.16,1.55h.09v-1.45c0-.32-.07-.66-.22-1.01-.15-.35-.41-.66-.78-.93-.37-.27-.87-.5-1.49-.68-.62-.18-1.39-.26-2.33-.26s-1.77,.14-2.52,.42"/><path class="cls-3" d="M178.12,95.72c-.95,.41-1.76,.99-2.41,1.74-.65,.75-1.15,1.63-1.5,2.66-.34,1.03-.51,2.16-.51,3.39s.19,2.27,.57,3.24c.38,.98,.9,1.81,1.57,2.5,.66,.69,1.44,1.23,2.33,1.61,.89,.39,1.84,.58,2.86,.58,1.22,0,2.3-.22,3.26-.65,.95-.43,1.76-1.02,2.41-1.77,.65-.75,1.15-1.63,1.5-2.66,.34-1.03,.51-2.14,.51-3.34s-.2-2.36-.6-3.34c-.4-.98-.94-1.82-1.61-2.5-.67-.68-1.45-1.2-2.34-1.55-.89-.35-1.82-.53-2.78-.53-1.22,0-2.31,.21-3.26,.62m-1.12,7.3c0-.79,.1-1.51,.3-2.15,.2-.64,.48-1.18,.84-1.63,.36-.45,.79-.79,1.29-1.02,.5-.23,1.05-.35,1.64-.35,1.37,0,2.44,.47,3.2,1.4,.76,.93,1.14,2.32,1.14,4.19,0,1.75-.37,3.06-1.1,3.93-.73,.87-1.72,1.31-2.97,1.31-2.89,0-4.33-1.89-4.33-5.67"/><path class="cls-3" d="M134.34,113.57c-.64,.25-1.18,.6-1.61,1.04-.43,.45-.76,.98-.98,1.59-.22,.62-.32,1.29-.32,2.02,0,.64,.11,1.21,.34,1.74,.23,.52,.54,.97,.94,1.34,.4,.37,.89,.66,1.47,.86,.58,.21,1.23,.31,1.94,.31,.64,0,1.17-.16,1.6-.49,.42-.32,.73-.74,.91-1.26-.05,1.52-.3,2.61-.75,3.25-.45,.65-1.14,.97-2.07,.97-.88,0-1.6-.11-2.19-.34-.58-.23-1.03-.49-1.35-.8h-.1v.98c0,.39,.09,.74,.28,1.05,.18,.31,.44,.57,.78,.79,.34,.22,.74,.39,1.19,.5,.46,.11,.97,.17,1.52,.17,.82,0,1.57-.15,2.23-.45,.66-.3,1.23-.75,1.7-1.36,.47-.6,.83-1.37,1.09-2.3,.26-.93,.39-2.02,.39-3.28s-.11-2.24-.34-3.1c-.23-.86-.55-1.55-.97-2.09-.42-.54-.92-.93-1.51-1.17-.59-.24-1.25-.36-1.98-.36-.84,0-1.57,.12-2.22,.37m.41,6.1c-.39-.36-.59-.95-.59-1.76,0-.72,.19-1.3,.56-1.75,.37-.45,.91-.68,1.62-.68s1.27,.22,1.67,.65c.4,.43,.6,1.12,.6,2.08,0,.6-.2,1.08-.61,1.45-.4,.37-.97,.55-1.7,.55-.64,0-1.16-.18-1.55-.54"/><path class="cls-3" d="M144.38,113.47c-.59,.19-1.07,.43-1.43,.72-.37,.3-.63,.64-.79,1.01-.16,.38-.24,.77-.24,1.16v.98h.1c.45-.61,.99-1.07,1.6-1.35,.62-.29,1.42-.43,2.42-.43,.76,0,1.34,.18,1.75,.54,.41,.36,.62,.85,.62,1.47,0,.31-.06,.61-.19,.91-.13,.31-.38,.61-.75,.92l-3.18,2.64c-.53,.44-.96,.83-1.3,1.18-.33,.35-.6,.67-.79,.95-.19,.29-.32,.55-.38,.8-.07,.25-.1,.48-.1,.71,0,.38,.13,.7,.4,.96,.26,.26,.59,.39,.97,.39h6.31c.56,0,1-.12,1.34-.35,.33-.23,.5-.56,.5-.98v-1h-6.39c.11-.18,.3-.39,.56-.64,.26-.25,.51-.46,.73-.65l2.11-1.65c.52-.41,.96-.78,1.32-1.11,.36-.33,.65-.67,.88-1.01,.23-.34,.4-.71,.49-1.09,.1-.39,.15-.83,.15-1.34,0-.54-.11-1.06-.33-1.55-.22-.49-.54-.92-.95-1.28-.41-.37-.9-.66-1.45-.88-.56-.22-1.16-.32-1.82-.32-.85,0-1.57,.09-2.16,.28"/><path class="cls-3" d="M155.41,113.42v11.82c0,.31,.05,.57,.15,.79,.1,.22,.23,.41,.38,.55,.15,.14,.33,.26,.53,.34,.2,.08,.4,.12,.59,.12h1.04v-12.17c0-.21-.04-.41-.13-.59-.09-.18-.2-.33-.34-.47-.14-.13-.29-.23-.47-.3-.17-.07-.35-.1-.52-.1h-1.23Z"/><path class="cls-3" d="M161.8,113.56c-.64,.24-1.18,.57-1.61,.98-.44,.41-.77,.88-1.01,1.41s-.35,1.08-.35,1.65c0,.93,.31,1.69,.94,2.26,.62,.58,1.52,.99,2.69,1.24,.71,.16,1.29,.3,1.72,.43,.43,.13,.76,.28,.99,.43,.22,.15,.37,.32,.44,.49,.07,.18,.1,.38,.1,.61,0,.54-.2,.98-.59,1.31-.39,.33-1.1,.49-2.12,.49-.83,0-1.56-.14-2.18-.43-.62-.28-1.16-.63-1.62-1.05h-.06v1.21c0,.81,.35,1.46,1.04,1.95,.7,.49,1.74,.74,3.12,.74,.82,0,1.55-.11,2.19-.32,.63-.21,1.17-.52,1.61-.91,.44-.39,.77-.86,1-1.4,.22-.54,.34-1.15,.34-1.83,0-.91-.31-1.68-.91-2.31s-1.54-1.07-2.79-1.34c-.64-.13-1.16-.26-1.57-.39-.41-.13-.74-.27-.98-.42-.24-.14-.4-.31-.49-.48-.09-.17-.14-.36-.14-.55,0-.53,.21-.96,.65-1.28,.43-.32,1.18-.48,2.24-.48,1.52,0,2.7,.45,3.54,1.34h.08v-1.25c0-.28-.06-.57-.19-.87-.13-.3-.35-.57-.67-.81-.32-.24-.74-.43-1.26-.58-.53-.15-1.19-.23-1.98-.23s-1.5,.12-2.14,.36"/><path class="cls-3" d="M171.65,113.56c-.64,.24-1.18,.57-1.61,.98-.44,.41-.77,.88-1.01,1.41-.23,.53-.35,1.08-.35,1.65,0,.93,.31,1.69,.94,2.26,.62,.58,1.52,.99,2.69,1.24,.71,.16,1.29,.3,1.72,.43,.43,.13,.76,.28,.99,.43,.22,.15,.37,.32,.44,.49,.07,.18,.1,.38,.1,.61,0,.54-.2,.98-.59,1.31-.39,.33-1.1,.49-2.12,.49-.84,0-1.56-.14-2.18-.43-.62-.28-1.16-.63-1.62-1.05h-.06v1.21c0,.81,.35,1.46,1.04,1.95,.7,.49,1.74,.74,3.11,.74,.82,0,1.55-.11,2.19-.32,.63-.21,1.17-.52,1.61-.91,.44-.39,.77-.86,1-1.4,.22-.54,.34-1.15,.34-1.83,0-.91-.31-1.68-.91-2.31s-1.54-1.07-2.79-1.34c-.64-.13-1.16-.26-1.57-.39-.41-.13-.74-.27-.98-.42-.24-.14-.4-.31-.49-.48-.09-.17-.14-.36-.14-.55,0-.53,.21-.96,.65-1.28,.43-.32,1.18-.48,2.24-.48,1.52,0,2.7,.45,3.54,1.34h.08v-1.25c0-.28-.06-.57-.19-.87-.13-.3-.35-.57-.67-.81-.32-.24-.74-.43-1.26-.58-.53-.15-1.19-.23-1.98-.23s-1.5,.12-2.14,.36"/><path class="cls-3" d="M186.39,113.42c-.16,.52-.35,1.05-.59,1.59-.24,.54-.5,1.07-.78,1.58-.28,.51-.56,.99-.83,1.42-.28,.44-.53,.81-.74,1.11-.21-.3-.44-.65-.68-1.03-.24-.39-.47-.79-.7-1.2-.23-.42-.45-.84-.66-1.27-.21-.43-.4-.85-.57-1.25-.1-.21-.29-.42-.58-.63-.29-.21-.71-.32-1.25-.32h-1.27c.21,.64,.48,1.3,.79,2,.31,.7,.65,1.39,1.01,2.08,.37,.69,.75,1.36,1.16,2,.4,.64,.8,1.22,1.2,1.74v4.02c0,.31,.05,.57,.15,.78,.1,.22,.23,.4,.38,.55,.15,.15,.33,.27,.53,.34,.2,.07,.4,.11,.59,.11h1.14v-5.81c.2-.24,.44-.55,.72-.93,.28-.38,.57-.79,.87-1.23s.59-.9,.88-1.37c.29-.47,.55-.91,.79-1.33,.23-.42,.42-.8,.56-1.14,.14-.34,.21-.59,.21-.76,0-.32-.1-.57-.29-.77-.19-.19-.47-.29-.83-.29h-1.19Z"/><path class="cls-2" d="M108.74,222.93s-.09,0-.13,0C51.7,219.23,7.12,171.56,7.12,114.41,7.12,54.45,55.85,5.66,115.75,5.66s108.63,48.78,108.63,108.75c0,29.26-11.44,56.71-32.22,77.3-.78,.78-2.05,.77-2.83-.01-.78-.78-.77-2.05,.01-2.83,20.01-19.83,31.04-46.27,31.04-74.46,0-57.76-46.94-104.75-104.63-104.75S11.12,56.65,11.12,114.41s42.94,100.96,97.75,104.52c1.1,.07,1.94,1.02,1.87,2.13-.07,1.06-.95,1.87-1.99,1.87Z"/><path class="cls-2" d="M159.27,213.16c1.53-.65,5.04-2.57,4.24-6.28,0,0-6.06,1.99-4.95,6.43,.59,4.54,6.93,3.99,6.93,3.99-.62-3.75-4.57-4.14-6.22-4.14"/><path class="cls-2" d="M164.53,212.8c1.34-.86,4.37-3.26,2.98-6.64,0,0-5.43,2.88-3.63,6.89,1.33,4.19,7.25,2.62,7.25,2.62-1.21-3.44-5.04-3.15-6.61-2.88"/><path class="cls-2" d="M169.25,211.14c1.22-.91,3.92-3.37,2.38-6.47,0,0-4.95,3.08-2.98,6.76,1.54,3.88,7.06,2.01,7.06,2.01-1.38-3.18-4.99-2.65-6.46-2.29"/><path class="cls-2" d="M173.87,208.6c.86-.97,2.68-3.51,.83-5.81,0,0-3.6,3.45-1.28,6.16,1.99,2.95,6.28,.41,6.28,.41-1.73-2.4-4.67-1.32-5.83-.75"/><path class="cls-2" d="M177.25,205.97c.65-.96,1.99-3.41,.07-5.24,0,0-2.81,3.46-.43,5.6,2.11,2.39,5.64-.34,5.64-.34-1.82-1.93-4.3-.64-5.28,0"/><path class="cls-2" d="M179.86,203.16c.41-.85,1.19-2.99-.59-4.24,0,0-1.85,3.14,.34,4.57,2.01,1.67,4.54-.97,4.54-.97-1.71-1.34-3.58,0-4.29,.64"/><path class="cls-2" d="M181.84,200.55c.29-.84,.78-2.92-1.02-3.89,0,0-1.39,3.13,.82,4.23,2.07,1.34,4.14-1.4,4.14-1.4-1.75-1.06-3.35,.4-3.94,1.06"/><path class="cls-2" d="M183.34,197.87c.19-.81,.44-2.8-1.35-3.53,0,0-.98,3.06,1.2,3.86,2.07,1.05,3.74-1.72,3.74-1.72-1.75-.81-3.1,.71-3.59,1.39"/><path class="cls-2" d="M184.43,195.33c.05-.65,.02-2.21-1.45-2.57,0,0-.41,2.47,1.37,2.84,1.72,.57,2.7-1.74,2.7-1.74-1.45-.43-2.32,.89-2.62,1.47"/><path class="cls-2" d="M184.93,193.88s-1.65-1.66,.58-5.09c0,0,2.03,2.25-.58,5.09"/><path class="cls-1" d="M173.01,55.26l1.95,2.2,5.18-4.6,.02,.02-1.61,8.63,1.95,2.2,8.46-7.51-1.95-2.2-5.17,4.59-.02-.02,1.6-8.62-1.95-2.2-8.46,7.51Zm6.01-9.69l-2.2-1.95-7.51,8.46,2.2,1.95,7.51-8.46Zm-20.18-1.54l2.37,1.73,4.08-5.6,.02,.02,.27,8.77,2.37,1.73,6.66-9.14-2.37-1.73-4.07,5.59-.02-.02-.28-8.76-2.37-1.73-6.66,9.14Zm3.77-10.72l-2.57-1.43-5.52,9.87,2.56,1.43,5.52-9.87Zm-22.15,2.14l2.71,1.11,3.34-5.67h.03s-.06,7.02-.06,7.02l1.08,.44,4.98-5h.03s-1.7,6.35-1.7,6.35l2.72,1.11,2.69-11.12-2.71-1.11-4.54,4.68,.16-6.46-2.68-1.1-6.05,9.74Zm1.23-14.29l-1.29-1.59-2.71,1.94,.94,1.17,3.07-1.52Zm-.09,5.62l.65-2.4-6.21-1.68-2.95,10.91,6.21,1.68,.65-2.4-3.37-.91,.51-1.88,3.2,.87,.65-2.4-3.2-.87,.49-1.83,3.37,.91Zm-8.69-2.17l.41-2.45-6.41-1.06-1.85,11.16,2.9,.48,.73-4.38,3.18,.53,.41-2.46-3.18-.53,.31-1.87,3.51,.58Zm-17.32-4.17l-2.94-.04-.14,11.31,6.46,.08,.03-2.49-3.52-.04,.11-8.82Zm-8.56,.35l-2.93,.26,1,11.26,6.44-.57-.22-2.48-3.51,.31-.78-8.79Zm-8.34,8.29l-2.39,.52,.42-3.78h.03s1.94,3.26,1.94,3.26Zm1.26,2.03l1.14,1.76,3.06-.67-6.57-10.14-3.14,.68-1.84,11.98,3.05-.66,.34-2.09,3.96-.86Zm-16.21-2.86l.2-.07c.75-.26,1.63-.51,1.98,.46,.32,.91-.4,1.3-1.14,1.56l-.31,.11-.73-2.07Zm4.51,8.02c1.95-.69,3.6-2.1,2.82-4.33-.52-1.49-1.54-2.29-3.13-1.95v-.03c.7-.74,.74-1.63,.4-2.59-.72-2.04-2.25-2.32-4.15-1.66l-3.96,1.4,3.76,10.67,4.27-1.51Zm-3.06-3.88l.28-.1c.91-.32,2.23-.93,2.69,.36,.41,1.18-.99,1.62-1.81,1.91l-.35,.12-.81-2.29Zm-8.33-1.05l2.18-1.08-1.11-2.23-6.98,3.47,1.11,2.23,2.18-1.08,3.93,7.9,2.63-1.31-3.92-7.9Zm-11.51,6.42c1.47-.97,3.45-.57,4.31,.74,1.07,1.63,.65,3.61-.81,4.58-1.47,.96-3.45,.57-4.52-1.06-.86-1.3-.44-3.29,1.03-4.25m-1.57-2.38c-2.72,1.79-3.91,5.44-2.03,8.3,2.01,3.06,5.62,3.77,8.65,1.77,3.03-2,3.81-5.59,1.79-8.65-1.88-2.86-5.7-3.21-8.42-1.42m-10.09,11.44c1.29-1.2,3.31-1.13,4.37,0,1.33,1.43,1.25,3.45-.04,4.65-1.28,1.2-3.31,1.13-4.64-.29-1.06-1.14-.98-3.17,.3-4.36m-1.94-2.09c-2.38,2.22-2.94,6.02-.61,8.52,2.49,2.68,6.17,2.78,8.83,.3,2.66-2.47,2.82-6.15,.33-8.83-2.33-2.5-6.16-2.22-8.54,0m-4,7.99l-1.9-1.61-4.19,4.96,8.64,7.3,1.9-2.24-3.39-2.87,2.08-2.46-1.9-1.61-2.08,2.46-1.44-1.22,2.3-2.72Z"/><path class="cls-3" d="M177.85,170.02c-2.65,.28-5.34,.51-8.04,.71-1.39,.1-2.78,.21-4.17,.31-.2-.31-.41-.63-.62-.94-3.04-4.39-7.13-8.16-11.66-10.76,.21-2.63,.28-5.35,.15-7.92-.05-.96-.13-1.9-.23-2.81-.15-1.21-.35-2.36-.61-3.44,.35-.28,.8-.53,1.33-.75,2.1-.88,5.45-1.26,8.46-.86,2.33,1.05,4.46,2.33,6.43,3.88,.74,.58,1.45,1.21,2.14,1.87,.71,.68,1.4,1.41,2.07,2.19,1.91,2.21,3.64,4.8,5.25,7.83,1.12,3.67,.92,7.98-.49,10.68m.39-12.79c-.12-.07-.25-.13-.37-.18-1.43-2.44-2.97-4.58-4.63-6.44-.57-.63-1.14-1.23-1.74-1.81-.8-.77-1.63-1.48-2.49-2.15-1.77-1.36-3.66-2.51-5.72-3.48-.56-.92-1.26-1.76-2.1-2.53,2.86,1.53,5.51,3.36,7.91,5.45,1.5,1.3,2.9,2.7,4.19,4.19,.99,1.13,1.91,2.31,2.78,3.53,.77,1.1,1.5,2.24,2.17,3.41m-26.31-12.08c.48,1.86,.75,3.99,.87,6.23v.08c.13,2.53,.06,5.19-.14,7.78-.42,.12-.84,.26-1.26,.41-4.6,1.58-9.75,4.42-13.18,6.95-.17,.12-.33,.25-.5,.37-2.18-1.06-4.41-2.02-6.67-2.87-.46-.17-.93-.34-1.4-.51l-.47-.17c-2.58-.91-5.21-1.69-7.88-2.39-1.03-4.26-.98-8.46-.29-12.86,2.1-2.07,4.52-3.87,7.21-5.33,1.53-.83,3.15-1.56,4.84-2.15,.69-.24,1.38-.46,2.09-.66,.75-.21,1.5-.4,2.27-.56,1.8,.25,3.56,.6,5.24,1.05,3.68,1,6.95,2.52,9.28,4.62m-13.74-9.44c-1.06,.72-1.44,1.96-1.74,3.27-.39,.09-.78,.19-1.17,.3-.71,.19-1.4,.41-2.09,.64-1.86,.63-3.64,1.41-5.31,2.32-2.75,1.5-5.24,3.35-7.39,5.47-1.7,.04-3.34,.22-4.88,.56-2.45,.54-4.64,1.49-6.4,2.92,0-.35,.02-.71,.05-1.07,.01-.16,.03-.31,.05-.47,2.06-2.25,4.35-4.28,6.82-6.04l.31-.22c5.14-3.6,11.06-6.08,17.37-7.16,.67-.12,1.35-.22,2.03-.3,.78-.1,1.56-.17,2.35-.22m-29.67,16.08l-.2,.19c-1.5,1.49-2.89,3.44-4.02,5.6-1.5,2.84-2.55,6.05-2.84,9.04-.81,.6-1.58,1.35-2.32,2.22,1.12-4.73,2.99-9.11,5.46-13.03,1.18-1.88,2.5-3.65,3.93-5.31-.03,.43-.03,.86,0,1.27m-9.73,18.65c.24-.33,.48-.64,.72-.94h0c.65-.79,1.32-1.48,2.03-2.05,.27,.43,.56,.83,.86,1.22,1.47,1.87,3.35,3.35,5.44,4.54-.08,3.12,.09,6.21,.55,9.27,.19,1.27,.43,2.53,.73,3.79,.46,1.97,1.04,3.92,1.75,5.85-1.82,3.07-3.23,6.27-3.66,9.83-.25-.06-.49-.13-.73-.22-.96-.33-1.89-.82-2.75-1.42-.09-.06-.17-.12-.26-.19-2.02-3.6-3.54-7.51-4.47-11.6-1.22-5.39-1.43-11.11-.45-16.9,.07-.4,.14-.79,.22-1.18m12.62,21.09c-.85-2.35-1.5-4.73-1.97-7.12-.13-.68-.25-1.35-.35-2.03-.44-2.9-.61-5.83-.55-8.81,1.11-1.83,2.32-3.47,3.59-4.93,2.73-3.13,5.76-5.42,8.87-6.94,2.73,.7,5.42,1.51,8.05,2.44l.35,.13c.51,.18,1.01,.37,1.51,.56,2.12,.81,4.21,1.7,6.25,2.68,.14,.92,.28,1.83,.42,2.74,.77,4.82,1.67,9.66,2.68,14.52-1.89,2.23-3.95,4.39-6.14,6.48l-.15,.14c-2.16,2.07-4.44,4.08-6.77,6.06-.61-.09-1.21-.19-1.8-.3-.64-.12-1.28-.26-1.91-.41-4.4-1.06-8.39-2.83-12.08-5.19m71.73-30.32c-2.19-5.29-5.34-10.13-9.29-14.25-1.33-1.39-2.74-2.69-4.24-3.9-4.12-3.34-8.87-5.99-14.09-7.74-2.21-.74-4.49-1.32-6.86-1.72-1.59-.27-3.17-.45-4.75-.56-2.57-.17-5.12-.11-7.62,.15-.68,.07-1.35,.16-2.02,.26-6.18,.93-12.03,3.12-17.23,6.35-4.32,2.68-8.2,6.08-11.44,10.06-4.84,5.95-8.27,13.21-9.66,21.32-1.38,8.11-.55,16.09,2.05,23.31,1.74,4.83,4.27,9.32,7.46,13.28,1.58,1.97,2.48,3.11,4.37,4.8,1.42,.11,2.64,.14,4.08,.08-3.36-2.58-5.39-5.06-7.84-8.47l-.22-.31c-.55-.78-1.07-1.57-1.56-2.38,.67,.39,1.37,.71,2.08,.94,.3,.1,.6,.18,.9,.25,.85,3.06,4.73,7.29,8.91,9.92,4.37,.3,10.84-.45,15.87-1.42-.4-.73-.73-1.35-1.09-2.11-1.62-3.4-2.86-7.12-3.26-11.14,2.09-1.77,4.13-3.57,6.08-5.4,.28-.26,.56-.52,.83-.79,2.13-2.05,4.15-4.15,6.01-6.33,2.01,.51,4.07,.95,6.15,1.32,3.64,.65,7.34,1.09,10.97,1.35,1.19,2.04,2.23,4.22,3.09,6.55,.08,.21,.16,.43,.23,.64,.59,1.69,1.18,3.98,1.57,5.84,.22-.11,.43-.23,.64-.35-.39-1.82-.97-4.07-1.55-5.72-.21-.6-.43-1.19-.66-1.76-.75-1.86-1.6-3.62-2.57-5.29,2.03-2.99,3.7-6.01,5.04-9.19,.94-2.25,1.71-4.59,2.32-7.07,1.28-.09,2.57-.18,3.84-.28,2.73-.2,5.44-.43,8.12-.71,1.03,1.01,2.06,2.78,2.86,5.04,.74,2.08,1.29,4.56,1.47,7.23-.2,1.81-.19,3.31-.94,5.19,.3-.25,4.13-3.63,5.15-4.58,.85-7.89-.34-15.49-3.19-22.4"/><path class="cls-1" d="M63.02,183.28l-6.93,2.86,1.88,1.43,8.81-3.72-5.42-4.12-1.1,1.45,2.76,2.1Zm-6.17-5.66c.57,.5,.63,1.36,.13,1.93-.5,.57-1.36,.62-1.93,.12-.57-.5-.6-1.33-.1-1.9,.5-.57,1.33-.65,1.9-.14m-4.3,5.43l2.86-.57c1.16-.24,2.39-.7,3.18-1.6,.58-.65,.83-1.6,.68-2.45-.14-.81-.7-1.57-1.3-2.1-1.42-1.25-3.4-1.53-4.74,0-1.01,1.15-1.16,2.88,.06,3.95,.33,.29,.65,.46,1.04,.58v.03s-3.62,.53-3.62,.53l1.84,1.62Zm-1.2-10.91c.52,.55,.5,1.42-.05,1.94-.55,.52-1.42,.48-1.94-.07-.52-.55-.47-1.39,.08-1.9,.55-.52,1.39-.52,1.91,.04m-4.8,5l2.9-.3c1.18-.13,2.44-.47,3.32-1.29,.63-.6,.98-1.52,.91-2.38-.06-.82-.55-1.63-1.1-2.21-1.29-1.38-3.24-1.85-4.72-.45-1.12,1.05-1.43,2.76-.31,3.94,.3,.32,.61,.52,.98,.68v.03s-3.66,.19-3.66,.19l1.68,1.79Zm-1.08-11.35l-5.12,3.95,1.32,1.7,6.56-5.07-2.04-2.65-1.44,1.12,.73,.94Z"/><path class="cls-2" d="M153.2,208.48c-.83-.15-1.89-.06-2.68,.22-1.57,.55-2.33,1.99-1.77,3.57,.53,1.51,1.49,1.55,2.89,1.47,.48-.03,1.35-.11,1.55,.46,.19,.55-.23,.97-.71,1.14-.7,.24-1.43,.09-2.09-.17l-.29,1.95c1,.28,2.08,.27,3.06-.08,.79-.28,1.53-.78,1.96-1.52,.44-.75,.34-1.61,.07-2.39-.45-1.27-1.48-1.52-2.68-1.46l-.57,.03c-.39,.01-1.01,.03-1.17-.43-.15-.44,.27-.83,.64-.96,.5-.18,1.05-.14,1.53,.04l.25-1.86Zm-12.01,11.96l2.08-.56-1.33-4.9h.02s5.14,3.87,5.14,3.87l2.08-.56-2.17-8-2.08,.56,1.32,4.89h-.02s-5.14-3.86-5.14-3.86l-2.08,.56,2.17,8Zm-4.81-2.16l-1.76,.34,.38-2.76h.02s1.36,2.42,1.36,2.42Zm.88,1.51l.8,1.31,2.26-.43-4.63-7.56-2.31,.44-1.57,8.74,2.25-.43,.29-1.52,2.92-.56Zm-11.36-3.32l-.11-1.82-4.3,.27-.44,4.53c.48-.26,1.01-.41,1.56-.44,.86-.05,1.84,.3,1.9,1.3,.05,.73-.56,1.26-1.24,1.3-.86,.05-1.69-.28-2.37-.81l-.19,2.05c.83,.47,1.8,.63,2.75,.58,.82-.05,1.75-.28,2.37-.84,.64-.6,.98-1.44,.92-2.31-.11-1.71-1.44-3.02-3.12-2.78l-.68,.1,.08-.95,2.86-.18Zm-9.25,5.07l1.27-1.22c.84-.78,1.32-1.48,1.31-2.67-.02-1.8-1.5-2.93-3.24-2.91-1.96,.02-3.15,1.33-3.19,3.23l2.37-.03c-.02-.12-.04-.24-.04-.35,0-.56,.31-1.02,.89-1.02,.57,0,.95,.54,.96,1.07,0,.76-.44,1.51-.92,2.05l-3.34,3.73,6.66-.08-.02-1.82-2.72,.03Z"/></svg>