<?xml version="1.0" encoding="UTF-8"?>
<svg id="Calque_1" xmlns="http://www.w3.org/2000/svg" version="1.1" viewBox="0 0 175 192.5">
  <!-- Generator: Adobe Illustrator 29.5.1, SVG Export Plug-In . SVG Version: 2.1.0 Build 141)  -->
  <defs>
    <style>
      .st0, .st1 {
        fill: none;
      }

      .st1 {
        stroke: #000;
        stroke-linecap: round;
        stroke-linejoin: round;
      }
    </style>
  </defs>
  <g>
    <path d="M85.5,4.5l19.02,10.83-.03,50.41c-3.59,26.47-36.55,36.98-54.25,16.26-2.83-3.32-7.24-11.45-7.24-15.76V4.5l19.42,11.33.07,48.43c1.97,10.81,17.28,12.74,21.76,2.74.21-.47,1.25-3.55,1.25-3.75,0,0,0-58.75,0-58.75Z"/>
    <path d="M143,4.5v58.75c0,3.02,3.37,7.56,6.05,8.95.43.22,3.03,1.3,3.2,1.3h17.75v19.5h-18.25c-11.55,0-27.75-14.5-27.75-26.25V4.5h19Z"/>
    <polygon points="4.5 48.25 24 37 23.25 93 4.5 93 4.5 48.25"/>
    <polygon points="24 4.5 24 26.25 4.5 37.5 4.5 15.75 24 4.5"/>
    <path d="M170,36l-18.76,10.49c-1.52.14-.24-.54-.24-.74v-21.75l19-10.5v22.5Z"/>
    <path d="M46.5,125c-.05,2.66.04,5.34,0,8h-4.5c1.18-2.68,1.47-26.31,2.79-26.53.57-.1,2.94-.17,3.27.32l2.95,15.21c.99-.2.85-1.02.99-1.75.34-1.81,2.02-13.24,2.56-13.69.34-.28,3.31-.19,3.73.41l2.22,26.03c-.74-.12-3.83.17-4,0-.34-.34-.46-8.3-.5-9.5-.55-1.16-.54-2.42-.36-3.66.02-.12.1,2.37-.64,2.16-.36,1.81-1.37,9.9-1.94,10.71-.33.47-2.18.44-2.73.31-.8-.19-2.62-10.86-2.83-12.52l-.43-.27-.57,4.77h-.01Z"/>
    <path d="M84,120.5c.28,4.08-.21,8.4,0,12.5h-4v-26.5c.96.19,3.31-.33,3.93.07.57.37,3.52,11.25,4.07,12.93l.5.03c.15-4.39.32-8.73.5-13.03.89-.29,2.9.21,4,0v26.5c-1.26-.14-3.36.45-4.27-.48-.69-.7-3.68-10.68-4.23-12.52l-.5.5Z"/>
    <path d="M140,106.5v21.25c0,2.31,4.5,2.31,4.5,0v-21.25h4v22.75c0,4.25-8.63,6.22-11.5,2-.24-.35-1-1.77-1-2v-22.75h4Z"/>
    <path d="M133,106.5c.82,5.33-2.03,3.89-6,4,.17,5.62-1.79,8.5,5.51,7.5v3.51h-5.5v8h6v3.5h-10v-26.5h10,0Z"/>
    <path d="M31,106.5c.82,5.33-2.03,3.89-6,4,.28,5.05-1.91,8.57,5.01,7.5v3.51h-5v8h6v3.5h-10v-26.5h10-.01Z"/>
    <path d="M103,110.5v22.25c0,.64-4.5.49-4.5.25v-22.5c-3.83.38-4.38-.17-4-4h11.75c.81,0,1.06,2.77.53,3.53-.58.84-2.77.37-3.78.47Z"/>
    <path d="M164.5,129.5h5.5v3.5h-10v-26.5c.83,0,4.5-.29,4.5.75v22.25Z"/>
    <rect x="152" y="106.5" width="4.5" height="26.5"/>
    <path d="M115,161.5c-.46.15-1.42-.1-2,0v-16.01c.73.13,3.22-.22,3.48.03.34.33,1.2,7.85,1.51,9.25.16.72-.41,1.82.51.73l.5-2.5c.11-1.35-.07-2.7.5-4,2.01.39,2.84,1.14,2.5,2.25.42,2.78.39,6.37,0,9.25.14-.44.31-.43.5,0-.28-3.01-.37-6.13-.26-9.38-1.07-.81-1.29-3.99.26-4.62.05.77-.32,1.01-.98,1.08.01,1.67-1.36,2.64-2.02.92-.1-3.51.85-3.17,4-3v16h-2.5v-9c-.74-.09-.9,1.3-.96,1.79-.12,1.03-.29,6.95-.54,7.21-.09.09-2.2.2-2.56-.29-.49-.69-.74-4.9-.94-6.21l-.51.02c-.19,2.15-.35,4.31-.49,6.48Z"/>
    <path d="M62.5,153l.61-.31c.06-2.41.19-4.81.39-7.19.46-.15,1.42.1,2,0v16.01c-.83-.05-2.17.3-2.77-.49-.8-1.07-1.68-7.23-2.24-9.01-.58.26-.84.68-.75,1.28l-.04,7.81c-.71.33-1.55.31-2.21-.09v-15.5c4.72-1.13,4,4.29,5,7.5h.01Z"/>
    <rect x="134" y="153.5" width="36" height="2.5"/>
    <rect x="4.5" y="153.5" width="36" height="2.5"/>
    <path d="M24.5,181v-8h2.5v12.5c-.84-.12-2.23.28-2.9-.1-.78-.45-3.82-7.15-5.6-7.9v8h-2.5v-12.5c4.69-1,5.33,5.67,8.5,8Z"/>
    <path d="M75,177.5c-3.3.55-2.02-.62-2.96-1.77-1.48-1.83-5.09-.07-3.58,1.56s7.75.59,6.85,5.23c-.97,5-9.89,4.47-10.31-1.01,3.82-.86,1.83,0,3.25,1.49,2.19,2.27,5.8-.8,3.96-2.05s-7.13.02-6.72-4.64c.43-4.93,10.38-4.53,9.51,1.2h0Z"/>
    <path d="M133.5,173c3.49.11,9.17-1.09,9.53,3.76.26,3.53-2.51,4.16-2.52,4.49,0,.26,3.1,2.99,2.99,4.25l-2.5-.25c-.34-1.55-3.44-2.89-3.49-3.97-.13-2.62,4.01-1.64,2.92-4.94-.47-1.42-3.18-1.43-4.43-1.33v10.5h-2.5v-12.5h0Z"/>
    <path d="M98,151h-2.5c.93-2.27-1.24-4.76-2.24-2.5-.42.96-.47,9.4-.04,10.02.46.67,1.56.46,2.28.47v-3.5h2.5c.88,4.02-2.15,8.02-6.2,5.45-1.82-1.16-1.58-9.86-1.31-12.21.66-5.68,9.12-3.77,7.51,2.26h0Z"/>
    <path d="M4,173c.19-.19,2.72-.16,2.87.73s-.56,4.69-.37,6.52c.55,5.38,5.5,3.38,5.5,1v-8.25c1.34-.06,2.22-.23,2.5,1.25.42,2.25.12,8.94-1.66,10.59-2.95,2.75-8.84.65-8.84-3.59,0-1.17-.3-7.96,0-8.25Z"/>
    <path d="M100,173c.07.07.07,1.93,0,2-.73.76-7.38-1.92-6,3h5.5c.58,3.69-3,2.28-5.5,2.5-1.39,4.92,5.28,2.24,6,3,.07.07.1,2,0,2h-8.5v-12.5c1.23.23,8.21-.31,8.5,0Z"/>
    <path d="M53,173c1.51,3.88-5.54.72-5.87,2.73-.56,3.39,3.01,2.08,5.37,2.27v2.51h-5.01v3.01c2.46.42,6.38-1.43,5.5,2h-8v-12.5h8v-.02h.01Z"/>
    <path d="M111.5,173c3.22.07,8.72-.96,9.4,3.38.5,3.22-2.29,5.53-5.4,5.12-.46-2.65.6-1.62,1.75-2.47,2.9-2.16.14-4.82-2.95-3.98-1.22.34-.3,1.1-.3,1.2v9.25h-2.5v-12.5Z"/>
    <path d="M34.94,173.06c.8.7,1.79,8.04,3.55,8.94.53-1.87,1.68-7.22,2.75-8.5.67-.8,1.86-.46,2.75-.49-.94,1.49-4.01,12.07-4.57,12.43-.31.2-2.55.2-2.86,0-.55-.34-3.32-10.79-4.56-12.18.4-.43,2.75-.35,2.94-.18v-.02h0Z"/>
    <path d="M69.5,145.5h6.5v2.21c-.11.74-3.72,0-4.01.29-.16.16-.16,4.35,0,4.51.41.39,4.38-1.11,3.51,2.5-.68.13-3.33-.17-3.5,0-.23.23.17,5.5,0,6.51h-2.5v-16.02h0Z"/>
    <path d="M151.99,173.5c1.05.78.34,3.51.71,4.03,1.23,1.71,8.08-.49,6.69,5.61-.98,4.3-10.49,3.57-9.89-1.64,3.27-.59,2.03.72,2.99,1.74,1.76,1.87,5.99-.16,4.02-2-1.02-.95-3.67-.83-4.97-1.53-3.89-2.09-.6-7,.46-6.21h-.01Z"/>
    <path d="M90.5,173v2.5h-4c-.25.18.5.64.5.74v9.25h-3v-10h-3.5v-2.5h10Z"/>
    <rect x="77" y="173" width="2.5" height="12.5"/>
    <rect x="145.5" y="173" width="2.5" height="12.5"/>
    <rect x="29" y="173" width="2.5" height="12.5"/>
    <path d="M53.5,146c.41,1.21.11,12.31,0,14.5.02.83-1.3.87-1.85.5-.63-.43-.82-14.49-.33-15.07.37-.44,1.7-.26,2.18.07Z"/>
    <path d="M119.5,148.5c1.51.31.93-.74,1-2,.36.07,2-.1,2,0v14h-.5v-9.25c0-1.22-1.93-.15-2-.24-.07-.08-.49-1.88-.5-2.01-.02-.16,0-.34,0-.5Z"/>
    <path d="M53.5,146c-.77.21-1.91-.69-2,.73-.15,2.27-.4,11.85.08,13.44.32,1.07,1.2.92,1.92.33-.02.33.03.67,0,1l-2.51-.29v-15.71c.83.09,2.2-.39,2.51.5Z"/>
    <path d="M99,169c-.87,2.07-2.07,3.43-4.5,2.99,1.23-2.4,1.42-3.58,4.5-2.99Z"/>
    <path d="M89,106.5v14.5c-.9-.14-.8-.89-1-1.5,1.29-3.73,0-8.44.49-12.28.06-.51,0-.56.51-.72Z"/>
    <path d="M60.5,152c-1.24,1.27-.02,9.03-.5,9.5-.86-.09-2.25.38-2.5-.5.77-.21,1.91.69,2-.73.22-3.23-.17-6.54,0-9.77.89.14.8.88,1,1.5Z"/>
    <path d="M113,132.5c-1.14-2.85-.2-6.47-.5-9.5,1.54-.25.77.4,1,1-1.39,2.03.16,6.48-.5,8.5Z"/>
    <path d="M63.5,145.5v9c-.89-.14-.81-.88-1-1.5,1.35-1.22-.35-7.04,1-7.5Z"/>
    <path d="M47.5,120.5l-1,4.5c.04-1.86-.66-5.06,1-6,.05.49-.06,1.02,0,1.5Z"/>
    <path d="M56,123.5l-1-1.5c.17-.87.1-2.57.99-2.5.04,1.33-.04,2.67,0,4h0Z"/>
    <path d="M84.5,120l-.5.5c-.02-.35-.96-1.58-.49-2.5,1.16.21.79,1.32.99,2Z"/>
    <path d="M118.5,155.5c.03-.8-.31-2.07.5-2.5-.07.84.33,1.95-.5,2.5Z"/>
  </g>
  <path d="M73.19,107.07c-1.46-.76-4.24-.82-5.83-.46-6.24,1.41-5.41,18.76-3.45,23.24,1.69,3.89,7.41,5.18,10.37,2.19,3.78-3.82,3.98-22.35-1.09-24.97ZM71.27,129.01c-3.12,3.19-4.15-3.52-4.28-5.25-.2-2.62-.61-12.92,2.36-13.71h0s0,0,0,0c0,0,0,0,0,0h0c.93-.23,2,.72,2.37,1.48,1.16,2.42,1.34,15.64-.45,17.48Z"/>
  <path d="M16.64,111.61c-2.07-5.87-6.83-5.2-12.14-5.11v26.5h7.75c.53,0,3.02-1.86,3.48-2.52,2.48-3.59,2.34-14.83.91-18.87ZM11.93,128.18c-.93,1.17-1.96,1.43-3.43,1.32v-19c.85-.04,1.68-.1,2.49.26,3.13,1.38,2.99,14.84.94,17.42Z"/>
  <g>
    <path d="M116.71,120.5c.27-.42,1.45-.77,2.03-1.51,1.82-2.34,1.79-8.54-.22-10.76-.3-.33-2.6-1.73-2.77-1.73h-7.25v26.5c1.07-.2,4.17.52,4.5-.5-.42-2.84-.41-5.64.01-8.43l.49-.06c.57,1.47,2.64,7.9,3.24,8.51.96.98,3.41.32,4.76.48-.76-1.64-5.2-11.86-4.79-12.5ZM113,118v-8c4.01.17,4.23,8.04,0,8Z"/>
    <polygon points="113 132.5 113 132.5 113 132.51 113 132.5"/>
  </g>
  <g>
    <polygon class="st0" points="160.5 173.49 160.49 173.49 160.5 173.5 160.5 173.49"/>
    <path class="st1" d="M160.49,173.49s0,0,0,0"/>
    <path d="M163.86,168.6c-1.72.39-4.45,3.3-3.36,4.89,0,0,0,0,0,0,3.05.21,1.39-.64,2.72-2.03,3.29-3.43,7.37,2.93,2.46,5.49-.31.05-5-3.21-5.18-3.46h-.01c-1.86-.14-4.2-1.65-3.52,1.18.08.32,5.25,2.23,6.02,2.82.04,1.54-1.71,1.73-1.99,3.26-1.35,7.27,10.05,6.48,7.78-.29-.24-.73-1.35-1.49-1.23-2.15.09-.51,2.21-2.02,2.63-3.94.81-3.72-2.74-6.6-6.32-5.78ZM166.43,183.43c-1.22.78-4.21-.57-3.21-2.43,1.88-3.5,5.15,1.19,3.21,2.43Z"/>
  </g>
  <path d="M86.45,146.81c-.89-1.41-3.08-1.54-4.59-1.2h0c-.6.14-1.19.45-1.59.92-1.07,1.24-1.05,10.22-.74,12.2.6,3.85,6.6,3.73,7.36.42.4-1.72.34-11.1-.44-12.34ZM84.5,158.25c0,.66-1.85.91-2.5.75v-11c0-.17,2.06-.32,2.5,0v10.25Z"/>
  <path d="M108.97,148.28c-.6-3.83-6.6-3.75-7.36-.42-.47,2.07-.44,11.64,1.02,13.01h-.01c1.15,1.07,4.54.85,5.61-.39,1.07-1.24,1.05-10.22.74-12.2ZM106.5,159c-.93.02-2.09.23-2.43-.82-.37-1.13-1.08-12.47,2.43-10.18v11Z"/>
  <path d="M61.5,180.74c-.07-.26,3.3-1.2,2.79-4.27-.75-4.54-6.54-3.39-9.79-3.47v12.5h2.5c.23-.23-.78-7,2.43-3.69,1.71,1.77,1.48,5,5.07,3.43-.03-.93-2.67-3.29-3-4.5ZM57,179c-1.26-3.42,2.13-5.56,4.38-3.38,2.38,2.31-2.21,4.21-4.38,3.38Z"/>
  <path d="M127.43,173.07h0s.01-.01.01-.01c-.53-.33-2.68-.21-3.19.42l-4.24,12.01c3.42.49,2.12-.5,2.99-2.12.54-1.01,5.02-1.19,5.45-.82.88.76-.88,4.05,3.55,2.94-.98-1.47-4.01-12.07-4.57-12.42ZM124.49,180.5h.01c-.23-.24.13-1.51.25-1.99.12-.48.67-2.43,1.24-2.5l1.49,3.75c-.35.87-2.77.96-2.99.74Z"/>
</svg>