<?xml version="1.0" encoding="UTF-8"?>
<svg id="Calque_1" xmlns="http://www.w3.org/2000/svg" version="1.1" viewBox="0 0 1024 1024">
  <!-- Generator: Adobe Illustrator 30.2.1, SVG Export Plug-In . SVG Version: 2.1.1 Build 1)  -->
  <defs>
    <style>
      .st0 {
        fill: #972647;
      }

      .st1 {
        fill: #fff;
      }
    </style>
  </defs>
  <rect class="st0" width="1024" height="1024"/>
  <path class="st1" d="M597,429.07l-.74,6.96c-7.21,68.35-60.87,123.17-129.02,131.8-5.71.72-17,1.46-22.89,1.13l-9.7-.55c-73.55-4.2-131.08-66.47-134.97-140.17V140.97l93,53.72.04,228.38c1.95,29.63,25.93,52.38,55.02,52.67,29.37.29,53.8-22.35,56.09-52.13l.03-282.56,93.13,53.67v234.34h0Z"/>
  <path class="st1" d="M912.81,475.74l-.02,93.52-77.4-.18c-3.87,0-7.61-.4-10.95-.7-76.15-7.05-134.45-70.91-134.98-147.36l-.05-279.62,93.68-.03v284.05c2.66,27.61,25.59,50.09,53.55,50.16l76.19.18h0Z"/>
  <path class="st1" d="M207.33,568.51l-93.57.03-.03-137.33c-.29-6.25-.16-11.58-.15-17.72l.1-61.48,91.87-53.05c.21-.12.85-.34,1.03-.41.24-.09.68.42.68,1.32l-.18,110.71c-.01,6.66-.52,11.72-.21,17.92l.46,4.76v135.23h0Z"/>
  <polygon class="st1" points="207.31 248.79 113.83 302.67 113.71 195 207.2 141.03 207.31 248.79"/>
  <polygon class="st1" points="819.76 346.12 819.69 238.37 912.83 184.62 912.88 292.42 819.76 346.12"/>
  <path class="st1" d="M362.25,720.91c-.46-7.77.14-14.96-1.51-22.47-1.9,6.88-2.64,12.9-3.91,19.41l-8.98,45.95-14.27-.04-3.65-16.82-10.07-49.06c-.4.31-.89,1.35-.93,1.99l-.73,15.74-.6,10.72-1,17.29-.52,10.4-.74,9.79-19.2-.04c-.06-2.25.01-3.99.18-6.05l.68-8.13.94-11.29.66-7.75,7.88-95.81,17.74-.05,12.55,58.57,3.78,19.31,3.25-18.8,11.55-59.08,17.93-.02.69,7.83,9.52,102.32.6,6.31.95,12.68-20-.03-.72-10.61-.46-7.36-.99-14.88-.59-10.01h-.03Z"/>
  <path class="st1" d="M521.27,763.85l-16.55-49.34-7.39-22.86c-.76,3.57.03,6.85.12,10.31l.44,17.63.44,20.99.14,23.21-20.47.03v-129.06l19.05-.09,22.62,67.66c.73-3.67.27-6.4.11-9.64l-.03-57.97h20.81s.01,129.02.01,129.02l-19.29.12h0Z"/>
  <path class="st1" d="M177.4,715.43c-.53,13.26-3.82,30.5-13.78,39.47-5.61,5.05-12.58,7.1-19.94,8.23-2.85.23-5.67.54-8.57.55l-21.63.1v-129.16l26.5.14c5.76.03,11.18,1.17,16.3,3.66,16.2,9.2,20.43,29.56,21.12,46.76.41,10.08.42,19.86,0,30.24h0ZM156.05,688.4c-.46-7.86-1.02-15.36-3.28-22.91-2.51-8.38-10.08-13.65-18.65-12.4l.03,92.1c8.85.55,15.78-3.8,18.56-11.37,4.18-11.37,4.05-33.1,3.34-45.42h0Z"/>
  <path class="st1" d="M458.93,742.63c-4.47,15.18-13.54,22.41-29.33,22.83-13.56.36-25.19-7.15-29.61-20.1-2.38-6.98-3.81-14.11-4.39-21.57l-1-12.8c-.76-9.78-.29-19.46-.09-29.26.92-8.38,1.39-16.36,3.84-24.36,4.8-15.66,12.64-23.7,29.7-24.13,11-.27,20.96,4.26,26.71,13.87,6.54,10.94,7.64,27.1,8.3,39.72.86,16.21.45,40.3-4.11,55.78h0ZM424.91,745.21c6.15,2.83,12.07-.93,13.94-7.03,3.9-12.71,3.53-43.36,2.82-57.38-.38-7.48-1.18-14.7-3.4-21.65-1.06-3.32-3.56-5.57-6.12-6.43-3.18-1.06-6.39-.78-9.09,1.3-2.93,2.26-4.54,6.03-5.25,9.73-1.11,5.8-1.71,11.48-1.87,17.47-.29,11.34-.35,22.46.01,33.81.25,7.5.9,14.64,2.76,21.81.87,3.37,2.91,6.85,6.2,8.38h0Z"/>
  <path class="st1" d="M654.12,702.42l24.02,61.33-21.27.07-19.2-48.13-.47,48.09-20.72-.03v-129.03l27.79.03c9.69.01,18.1,4.54,22.57,13.17,3.45,6.55,4.64,13.79,4.31,21.28.57,12.4-3.26,28.33-17.05,33.23h0ZM649.52,659.67c-1.81-5.92-7.03-8.26-12.21-6.88v37.46c6.23.56,11.29-3.02,12.89-9.03,1.84-6.94,1.47-14.49-.68-21.54Z"/>
  <path class="st1" d="M808.87,634.64l-.02,97.94c0,15.26-4.94,29.47-21.61,32.1-9.59,1.52-21.46,1.3-29.48-5.05-5.23-4.14-8.07-10.56-9.13-17.17-.44-2.7-1.09-5.41-1.09-8.36v-99.46s20.38.03,20.38.03v97.39c.01,2.26.39,4.36.74,6.26,1,5.28,5.14,7.47,10.08,7.39s8.85-2.12,9.44-7.44c.17-1.5.57-3.37.57-5.2v-98.43l20.12-.03h0Z"/>
  <polygon class="st1" points="237.95 706.92 213.36 707.07 213.38 745.56 241.4 745.66 241.34 763.81 192.57 763.79 192.55 634.68 241.43 634.7 241.45 652.75 213.37 652.9 213.37 688.68 237.96 688.8 237.95 706.92"/>
  <polygon class="st1" points="730.72 706.98 706.03 707 705.99 745.56 733.93 745.63 733.85 763.8 685.53 763.8 685.53 634.67 733.92 634.62 733.89 652.79 706.01 652.85 706 688.7 730.66 688.74 730.72 706.98"/>
  <polygon class="st1" points="588.27 763.76 567.89 763.74 567.88 653.67 548.89 653.46 548.96 634.63 607.42 634.63 607.45 653.5 588.27 653.67 588.27 763.76"/>
  <polygon class="st1" points="912.7 745.63 912.79 763.77 864.32 763.83 864.3 634.65 884.99 634.71 885 745.57 912.7 745.63"/>
  <polygon class="st1" points="846.84 763.76 826.16 763.81 826.16 634.72 846.84 634.68 846.84 763.76"/>
  <path class="st1" d="M849.43,819.26c14.92-1.23,30.39,10.29,41.55,18.83,7.88-3.33,14.6-11.46,12.17-20.29-1.87-6.81-8.26-10.76-14.96-9.8-6.37.92-11.39,6.26-11.6,13.45h-10.72c-.19-14.42,12.17-25.33,25.74-24.46,13.85.89,24.49,13.22,22.74,27.3-1.11,9-6.31,16.1-13.86,21.03l4.31,5.39c2.72,3.41,4.49,7.55,4.31,11.88-.53,12.62-11.92,21.27-23.95,18.9-11.77-2.32-19.29-15.34-14.49-26.75,1.96-4.66,5.58-7.41,10.1-10.58-8.81-7.05-19.68-14.06-31.2-14.48l-.14-10.42h0ZM897.57,859.39c-1.61-3.41-4.49-5.71-7.32-8.05-3.2,1.82-6.66,3.59-8.82,6.48-2.68,3.57-1.13,8.4,1.7,10.85,3.15,2.73,7.32,3.13,10.81.96,3.11-1.93,5.54-6.19,3.63-10.23h0Z"/>
  <polygon class="st1" points="222.49 880.92 211.16 880.97 182.93 839.24 182.72 881.06 171.5 880.97 171.53 819.17 183.66 819.24 210.79 859.17 211.07 819.22 222.49 819.22 222.49 880.92"/>
  <path class="st1" d="M406.42,880.74c-5.2.48-9.51.35-14.61.27l-14.53-22.02-8.38-.06-.06,22.08-11.94.03v-61.86l26.56.05c5.78.01,11.01,2.54,15.21,6.29,5.61,6.75,6.4,16.82,1.43,24.08-2.42,3.54-5.82,5.56-9.78,7.4l16.1,23.73h0ZM382.89,847.82c5.26-.06,8.49-4.72,8.21-9.34-.7-11.18-14.32-8.28-22.23-8.54l.05,18.04,13.99-.16h0Z"/>
  <path class="st1" d="M449.32,876.68c-7.71,5.6-17.76,6.22-26.65,3.6-9.6-2.83-15.2-10.9-15.27-21.13l12.17-.05c.35,3.02.91,5.74,2.5,7.92,4.09,5.6,15.74,5.22,19.87.81,1.33-1.43,2.03-3.75,1.68-5.82-.26-1.55-2.01-3.59-3.96-4.4-6.23-2.59-11.56-1.89-19.85-5.17-8.29-3.28-12.35-12.25-9.4-20.92,3.93-11.55,17.13-14.86,28.11-12.57,10.49,2.19,17.8,11.26,16.96,21.68l-11.91-.03c-.53-3.4-1.04-6.56-3.53-8.86-4.42-4.07-11.5-4.21-16-.22-1.57,1.39-2.14,3.74-2.04,5.61.48,8.85,18.62,5.15,29.04,12.88,7.77,5.76,7.27,20.14-1.7,26.66h0Z"/>
  <path class="st1" d="M756.03,862.19l2.66-11.92c2.07-.37,4.31-.56,6.25-1.34,6.11-2.48,7.86-10.06,4.1-15.46-3.75-5.39-13.65-3.8-20.01-3.9l-.02,51.01-12.17-.03v-61.36l27.1.07c2.79,0,5.93,1.42,8.39,2.23,7.53,3.38,11,10.21,10.94,18.19-.05,8.37-4,15.33-12.29,18.85,7.04,6.34,11.61,13.25,14.25,21.93l-11.39.11c-3.62-8.25-8.93-14.71-17.82-18.36Z"/>
  <polygon class="st1" points="572.72 854.87 547.76 854.96 547.79 869.92 575.63 869.95 575.63 881.07 535.17 881.05 535.15 819.19 574.93 819.18 574.93 830.23 547.85 830.26 547.74 843.36 572.73 843.46 572.72 854.87"/>
  <path class="st1" d="M711.52,865.34c-6.16-.1-12.17-.16-18.15.05-3.37.12-5.87,2.71-6.89,5.45l-3.78,10.16-12.3-.16,23.33-61.64,13.52-.02,23.11,61.8-13.19.12-5.65-15.76h0ZM707.58,854.13l-7.48-20.96-7.74,21.22,15.22-.25Z"/>
  <polygon class="st1" points="346.54 854.89 321.42 854.95 321.5 869.91 349.42 869.96 349.47 881.05 309.21 881.08 309.2 819.19 348.86 819.18 348.92 830.19 321.45 830.29 321.45 843.36 346.47 843.46 346.54 854.89"/>
  <path class="st1" d="M150.02,819.25l12.02-.07-.31,42.65c-.05,7.48-5,14.21-11.48,17.41-8.08,3.99-17.84,3.88-25.7-.34-7.41-3.97-11.03-11.86-11.03-20.1l-.04-39.61,12.34.03.04,40.41c0,2.87,1.19,6.18,3.32,8.06,4.92,4.32,12.6,4.15,17.39-.18,2.3-2.08,2.65-5.17,3.44-8.12l.02-40.13h0Z"/>
  <path class="st1" d="M651.58,850.93c.62-.55,2.25-1.11,2.98-1.17,5.44-.42,9.15-4.4,9.43-9.67.29-5.66-3.7-10.03-9.49-10.42-4.02-.27-8.06-.2-12.19-.06l-.07,51.34h-12.44s-.02-61.75-.02-61.75l27.16.06c2.53,0,5.41,1.29,7.71,1.94,7.98,3.28,11.93,10.6,11.67,19.02-.25,8.42-4.81,15.76-13.11,18.51-4.36,1.45-8.95,2.05-13.81,1.62l2.19-9.42h0Z"/>
  <polygon class="st1" points="292.93 819.2 305.34 819.36 282.71 880.94 270.57 880.93 247.92 819.27 261.04 819.21 276.83 863.41 292.93 819.2"/>
  <path class="st1" d="M856.56,876.39c-10.36,8.12-31.46,7.53-39.77-4.53-2.25-3.27-3.28-7.02-3.74-11.32l12.46-.03c.35,7.53,6.14,11.63,13.17,11.36,4.36-.16,8.82-1.15,11.03-5.33.78-1.47.77-4.55-.09-5.97-1.43-2.37-4.13-3.64-6.72-4.18l-12.79-2.66c-4.3-.89-8.61-2.86-11.39-6.36-6.57-8.28-3.68-20.56,5.74-25.67,2.31,2.76,4.34,5.56,6.31,8.57-2.75,2.57-4.18,5.82-2.3,8.91,1.11,1.83,3.8,3.35,5.98,3.82l10.02,2.2c4.64,1.02,9.24,1.97,13.14,4.71,8.81,6.2,7.16,20.05-1.04,26.48h0Z"/>
  <path class="st1" d="M511.89,880.91l-10.79.25c-.67.01-1.77-1.19-1.77-2.07v-48.76l-18.93-.09.03-11.06h50.41v11.07l-18.95.09v50.58h-.01Z"/>
  <polygon class="st1" points="244.16 880.93 232.09 881.08 232.09 819.17 244.16 819.23 244.16 880.93"/>
  <polygon class="st1" points="475.59 880.92 463.59 881.03 463.58 819.19 475.59 819.23 475.59 880.92"/>
  <polygon class="st1" points="806.17 881.02 794.18 880.96 794.17 819.23 806.19 819.19 806.17 881.02"/>
  <polygon class="st1" points="561.11 814.35 548.21 814.21 558.65 799.3 572.35 799.4 561.11 814.35"/>
</svg>