<?xml version="1.0" encoding="UTF-8" standalone="no"?>
<!-- Created with Inkscape (http://www.inkscape.org/) -->

<svg
   xmlns:dc="http://purl.org/dc/elements/1.1/"
   xmlns:cc="http://creativecommons.org/ns#"
   xmlns:rdf="http://www.w3.org/1999/02/22-rdf-syntax-ns#"
   xmlns:svg="http://www.w3.org/2000/svg"
   xmlns="http://www.w3.org/2000/svg"
   xmlns:sodipodi="http://sodipodi.sourceforge.net/DTD/sodipodi-0.dtd"
   xmlns:inkscape="http://www.inkscape.org/namespaces/inkscape"
   id="svg2"
   version="1.1"
   inkscape:version="0.91 r13725"
   xml:space="preserve"
   width="700"
   height="326.5"
   viewBox="0 0 700 326.5"
   sodipodi:docname="Logo Drancy.svg"><metadata
     id="metadata8"><rdf:RDF><cc:Work
         rdf:about=""><dc:format>image/svg+xml</dc:format><dc:type
           rdf:resource="http://purl.org/dc/dcmitype/StillImage" /><dc:title></dc:title></cc:Work></rdf:RDF></metadata><defs
     id="defs6" /><sodipodi:namedview
     pagecolor="#ffffff"
     bordercolor="#666666"
     borderopacity="1"
     objecttolerance="10"
     gridtolerance="10"
     guidetolerance="10"
     inkscape:pageopacity="0"
     inkscape:pageshadow="2"
     inkscape:window-width="1440"
     inkscape:window-height="788"
     id="namedview4"
     showgrid="false"
     inkscape:zoom="0.41204541"
     inkscape:cx="651.87468"
     inkscape:cy="75.773927"
     inkscape:window-x="0"
     inkscape:window-y="1"
     inkscape:window-maximized="1"
     inkscape:current-layer="g10" /><g
     id="g10"
     inkscape:groupmode="layer"
     inkscape:label="Logo Drancy"
     transform="matrix(1.25,0,0,-1.25,-26.4055,352.79479)"><g
       id="g5072"
       transform="matrix(8.1186631,0,0,8.1183493,-4023.3121,-280.24687)"><path
         inkscape:connector-curvature="0"
         id="path182"
         style="fill:#0f80cc;fill-opacity:1;fill-rule:nonzero;stroke:none"
         d="m 528.7622,54.1404 c -0.386,-0.116 -0.793,-0.175 -1.221,-0.175 -0.7,0 -1.049,0.253 -1.049,0.76 0,0.285 0.131,0.948 0.394,1.991 0.591,2.353 0.887,3.995 0.887,4.926 0,0.206 -0.039,0.414 -0.117,0.625 0.544,0.193 1.013,0.29 1.41,0.29 0.629,0 0.944,-0.261 0.944,-0.783 0,-0.336 -0.16,-1.164 -0.478,-2.481 1.217,2.238 2.236,3.357 3.057,3.357 0.437,0 0.656,-0.206 0.656,-0.62 0,-0.787 -0.375,-1.612 -1.125,-2.476 -0.193,0.279 -0.369,0.419 -0.529,0.419 -0.534,0 -1.156,-0.711 -1.867,-2.133 -0.711,-1.421 -1.067,-2.466 -1.067,-3.133 0,-0.157 0.035,-0.347 0.105,-0.567" /><path
         inkscape:connector-curvature="0"
         id="path184"
         style="fill:#0f80cc;fill-opacity:1;fill-rule:nonzero;stroke:none"
         d="m 537.5525,55.4055 c 0,-0.96 0.436,-1.44 1.308,-1.44 0.472,0 0.889,0.156 1.253,0.47 -0.217,0.445 -0.326,0.962 -0.326,1.551 0,0.82 0.135,1.92 0.406,3.3 0.27,1.381 0.554,2.37 0.852,2.967 -0.458,0.218 -0.926,0.328 -1.404,0.328 -0.396,0 -0.706,-0.126 -0.934,-0.377 -0.46,0.297 -0.99,0.446 -1.59,0.446 -1.216,0 -2.259,-0.707 -3.128,-2.121 -0.87,-1.413 -1.304,-2.865 -1.304,-4.353 0,-1.52 0.54,-2.281 1.621,-2.281 1.043,0 2.181,1.121 3.412,3.364 -0.111,-0.742 -0.166,-1.36 -0.166,-1.854 m -0.805,1.978 c -0.665,-1.099 -1.123,-1.648 -1.373,-1.648 -0.271,0 -0.407,0.3 -0.407,0.901 0,0.897 0.195,1.906 0.585,3.028 0.39,1.122 0.85,1.682 1.381,1.682 0.468,0 0.94,-0.321 1.416,-0.963 -0.402,-0.901 -0.936,-1.901 -1.602,-3" /><path
         inkscape:connector-curvature="0"
         id="path186"
         style="fill:#0f80cc;fill-opacity:1;fill-rule:nonzero;stroke:none"
         d="m 544.6693,59.2968 c 1.105,2.236 2.229,3.354 3.371,3.354 0.867,0 1.301,-0.44 1.301,-1.321 0,-0.626 -0.152,-1.57 -0.455,-2.834 -0.302,-1.263 -0.454,-2.209 -0.454,-2.839 0,-0.506 0.125,-0.92 0.373,-1.241 -0.476,-0.3 -0.945,-0.45 -1.409,-0.45 -0.778,0 -1.166,0.373 -1.166,1.119 0,0.553 0.083,1.236 0.251,2.05 0.421,2.052 0.632,3.18 0.632,3.386 0,0.225 -0.07,0.337 -0.209,0.337 -0.267,0 -0.85,-0.804 -1.751,-2.412 -0.901,-1.608 -1.351,-2.857 -1.351,-3.745 0,-0.156 0.035,-0.344 0.105,-0.562 -0.419,-0.116 -0.824,-0.173 -1.214,-0.173 -0.706,0 -1.06,0.255 -1.06,0.767 0,0.263 0.052,0.597 0.156,1.002 l 0.249,0.989 c 0.584,2.449 0.876,4.09 0.876,4.923 0,0.227 -0.039,0.441 -0.117,0.644 0.542,0.193 1.012,0.29 1.407,0.29 0.624,0 0.936,-0.261 0.936,-0.784 0,-0.289 -0.158,-1.123 -0.471,-2.5" /><path
         inkscape:connector-curvature="0"
         id="path188"
         style="fill:#0f80cc;fill-opacity:1;fill-rule:nonzero;stroke:none"
         d="m 556.2175,56.0845 c 0.061,-0.23 0.092,-0.413 0.092,-0.549 0,-0.481 -0.361,-0.874 -1.081,-1.181 -0.72,-0.306 -1.465,-0.459 -2.233,-0.459 -1.749,0 -2.624,0.851 -2.624,2.553 0,1.656 0.496,3.104 1.488,4.343 0.992,1.24 2.232,1.859 3.723,1.859 1.261,0 1.891,-0.264 1.891,-0.793 0,-0.438 -0.397,-0.903 -1.194,-1.395 -0.332,0.698 -0.765,1.048 -1.299,1.048 -1.411,0 -2.117,-1.48 -2.117,-4.439 0,-1.217 0.389,-1.825 1.169,-1.825 0.657,0 1.384,0.279 2.185,0.838" /><path
         inkscape:connector-curvature="0"
         id="path190"
         style="fill:#0f80cc;fill-opacity:1;fill-rule:nonzero;stroke:none"
         d="m 557.9167,61.9499 c 0.575,0.421 1.162,0.631 1.762,0.631 0.55,0 0.895,-0.479 1.034,-1.436 0.139,-1.737 0.304,-3.264 0.493,-4.58 l 1.444,2.522 c 0.648,1.2 0.972,2.092 0.972,2.678 0,0.169 -0.039,0.409 -0.117,0.723 1.304,-0.041 1.956,-0.35 1.956,-0.927 0,-0.705 -1.002,-2.485 -3.006,-5.34 -2.004,-2.854 -3.555,-4.281 -4.652,-4.281 -0.669,0 -1.004,0.227 -1.004,0.681 0,0.331 0.185,0.749 0.556,1.251 0.237,-0.17 0.482,-0.256 0.733,-0.256 0.616,0 1.139,0.4 1.566,1.199 -0.628,4.018 -1.207,6.396 -1.737,7.135" /><path
         inkscape:connector-curvature="0"
         id="path198"
         style="fill:#fcd006;fill-opacity:1;fill-rule:nonzero;stroke:none"
         d="m 560.8097,47.2191 c 0.389,-0.09 0.663,-0.173 0.733,-0.241 -10e-4,-0.021 0.933,0.133 -0.733,0.241" /><path
         inkscape:connector-curvature="0"
         id="path176"
         style="fill:#0f80cc;fill-opacity:1;fill-rule:nonzero;stroke:none"
         d="m 501.7224,68.1788 c -0.281,-0.042 -0.311,0.439 0.022,0.489 26.249,3.856 40.079,-11.205 -2.367,-21.332 -0.214,-0.05 -0.257,0.327 -0.066,0.372 24.555,11.308 28.939,17.351 2.411,20.471" /><path
         inkscape:connector-curvature="0"
         id="path192"
         style="fill:#fcd006;fill-opacity:1;fill-rule:nonzero;stroke:none"
         d="m 499.5869,51.0292 c 18.056,8.315 21.28,12.759 1.773,15.053 l -1.773,-15.053 z" /><path
         inkscape:connector-curvature="0"
         id="path200"
         style="fill:#fcd006;fill-opacity:1;fill-rule:nonzero;stroke:none"
         d="m 553.6042,49.7863 c 6.455,-0.065 12.601,-0.719 12.598,-0.727 -0.947,0.414 -7.785,1.171 -14.427,1.345 -6.638,0.198 -13.039,-0.127 -13.037,-0.13 0.826,0.233 7.943,0.643 14.848,0.428 6.906,-0.136 13.558,-0.882 13.556,-0.886 -1.56,0.522 -13.039,1.453 -24.118,0.87 -11.082,-0.44 -21.651,-2.182 -21.645,-2.19 -1.48,-0.246 -2.848,-0.539 -4.067,-0.837 -0.393,0.068 -0.846,0.052 -1.351,-0.08 -4.2,-1.104 -8.519,-2.111 -12.517,-3.848 -0.565,-0.245 -1.097,-0.551 -1.634,-0.851 -0.275,-0.154 -0.556,-0.296 -0.841,-0.43 -0.041,-0.019 -0.074,-0.034 -0.102,-0.047 -0.012,-0.005 -0.022,-0.009 -0.038,-0.016 -0.321,-0.13 -0.649,-0.248 -0.976,-0.365 -2.973,-1.06 -1.692,-5.827 1.311,-4.755 0.918,0.327 1.772,0.733 2.622,1.155 1.071,0.411 1.875,0.93 1.884,0.931 0.046,0.022 0.155,0.069 0.25,0.109 0.21,0.084 0.421,0.165 0.633,0.243 l 6.936,2.858 c 10.524,3.665 18.868,3.904 26.396,4.595 9.43,0.795 14.853,0.119 14.846,0.159 3.323,0.01 5.125,-0.036 6.078,-0.098 -1.157,0.267 -3.34,0.587 -4.248,0.707 l 1.454,-0.168 3.238,-0.119 -2.005,0.314 c 1.161,0.097 5.464,-0.435 5.461,-0.445 -1.332,0.506 -7.638,1.244 -13.65,1.425 -6.009,0.227 -11.688,-0.026 -11.687,-0.018 1.056,0.511 7.778,1.005 14.232,0.871" /></g></g></svg>