<?xml version="1.0" encoding="UTF-8"?>
<svg id="Calque_1" xmlns="http://www.w3.org/2000/svg" version="1.1" viewBox="0 0 1080 1080">
  <!-- Generator: Adobe Illustrator 29.7.1, SVG Export Plug-In . SVG Version: 2.1.1 Build 8)  -->
  <defs>
    <style>
      .st0 {
        fill: #c82b35;
      }

      .st1 {
        fill: #d3c277;
      }

      .st2 {
        fill: #fefefe;
      }
    </style>
  </defs>
  <path class="st1" d="M628,0c18.83,3.94,37.8,7.13,56.42,12.08,165.16,43.89,302.4,169.08,364.33,327.67,14.3,36.62,24.14,74.58,31.25,113.25v174c-3.99,14.47-5.94,29.42-9.5,44-41.32,169.63-169.46,315.27-332.26,377.74-36.91,14.16-74.59,23.26-113.25,31.25h-170c-29.48-6.33-58.83-12.6-87.52-21.98-162.86-53.22-293.85-185.02-347.19-347.81-9.03-27.54-14.51-55.92-20.29-84.21v-175c1.44-1.2,1.57-2.94,1.87-4.63C39.87,231.1,197.09,60.35,409.99,8.49L455,0h173ZM855.59,114.41C620.24-60.2,287.5-10.04,114.18,224.68-60.75,461.59-8.14,795.53,228.69,967.81c238.86,173.76,572.4,116.92,742.73-121.9,167.05-234.21,113.9-561.08-115.82-731.5h0Z"/>
  <path class="st2" d="M855.59,114.41c229.72,170.43,282.87,497.29,115.82,731.5-170.33,238.82-503.87,295.66-742.73,121.9C-8.14,795.53-60.75,461.59,114.18,224.68,287.5-10.04,620.24-60.2,855.59,114.41ZM165.58,889.42c181.48,194.58,482.46,217.78,691.88,52.54,221.09-174.44,260.24-496.4,85.94-718.85C758.06-13.44,407.76-40.73,188.48,165.96-17.37,359.99-27.39,682.52,165.58,889.42Z"/>
  <path class="st0" d="M165.58,889.42C-27.39,682.52-17.37,359.99,188.48,165.96,407.76-40.73,758.06-13.44,943.4,223.1c174.3,222.46,135.15,544.41-85.94,718.85-209.42,165.24-510.39,142.04-691.88-52.54h0ZM512,98l-22.01,2.01,7,86c3.09-.55,21.78-1.05,22.06-2.57l-7.06-85.44h.01ZM634,136c1.24-23.54-14.3-31.38-34.77-34.73-18.28-2.99-48.19-7.06-54.17,16.29-9.71,37.96,41.14,31.03,59.95,39.93,6.7,3.17,4.77,9.79-2.46,9.54-10.63-.36-22.94-3.91-33.82-4.26-6.34-1.74-6.3-8.98-8.35-9.65-5.95.23-12.11-1.75-17.87-2.14-2.09-.14-1.28.03-1.5,1.48-3.44,23.25,18.24,30.68,36.63,33.41,16.35,2.42,43.19,5.76,50.54-13.2,6.46-16.65-1.16-28.63-16.9-34.45-12.3-4.55-32.08-4.15-41.99-9.02-5.49-2.7-4.44-9.25,2.2-9.31,5.42-.05,28.68,2.88,33.75,4.36,8.31,2.44,5.88,8.78,8.39,9.61l20.37,2.13h0ZM454,168.98c11.83-10.51,14.79-21.2,10.04-36.53-5.05-16.3-15.93-22.51-32.59-21.5-11.9.72-53.97,13.21-65.94,18.06-.95.39-2.04.34-2.46,1.55l23.96,82.43,20.96-6.05-5.98-20.94c9.37-2.16,18.58-6.49,28.02-7.61,5.36,2.33,20.73,13.88,25.46,14.16,6.64.39,20.07-7.22,27.52-7.57l-29-16.01h.01ZM708.02,189c-15.01,27.3,12.32,44.39,33.31,55.17,13.03,6.69,28.05,11.9,39.18-1.16,12.55-14.72,6.12-28.23-6.5-39.52-5.69-5.1-32.28-20.81-32.8-26.14-.48-5,5.08-4.9,8.51-3.57s23.96,14.17,27.2,16.79c7.61,6.13,3.03,9.98,4.51,12.42.92,1.51,16.14,10.5,17.57,9.59,4.54-2.9,4.87-16.68,3.53-21.62-4.1-15.06-38.5-36.91-53.13-38.87-17.9-2.4-32.29,11.1-29.17,29.18,3.23,18.76,34.07,27.75,43.28,39.72,4.66,6.05,2.18,10.85-5.25,8.25-3.51-1.23-26.14-15.14-29.22-17.77-5.76-4.93-2.35-11.22-3.15-12.34-.61-.87-15.69-8.27-17.87-10.11v-.02ZM288,276c.98,1.05,18.92-10.8,19.5-11.99,2.42-4.96-2.66-15.33-2.06-21l33.61-22.53c3.6-1.27,14.01,9.47,18.45,9.46,3.37,0,15.63-10.44,19.47-12.43l-80.64-49.3c-1.32-.13-21.87,13.18-22.23,14.46l13.9,93.34h0ZM871.65,240.35c-19.01-17.52-37.76-17.36-57.17-.38-11.61,10.15-19.76,23.24-17.23,39.29,2.33,14.83,30.95,45.1,45.22,49.78,26.35,8.63,59.51-21.6,56.54-48.54-1.33-12.13-18.4-31.89-27.36-40.14h0ZM254.42,243.59c-16.85-18.64-33.04-17.09-50.44-.11l-39.91,45.16,62.62,57.23c2.13.32,12.43-12.77,14.27-15.26-4.38-3.36-7.99-7.36-11.94-11.16-1.6-1.54-3.85-.86-2.86-3.75,14.64-20.88,53.07-44.68,28.26-72.11h0ZM745.61,328.41c-64.77-63.77-154.2-94.05-244.97-82.26-88.56,11.5-169.99,66.35-213.64,143.85l30.28-11.95c105.1-152.54,339.16-152.71,444.74-.56l29.48,12.52c1.22-1.36-1-4.02-1.71-5.29-10.64-19.09-28.64-41-44.18-56.3h0ZM451.6,433.41c-66.15-32.07-158.66-5.33-189.46,63.24-18.43,41.04-11.24,98.64,8.58,138.09,38.02,75.68,135.35,148.47,213.29,179.76,47.35,19.01,66.95,18.19,113.95-1.02,106.42-43.49,263.48-169.75,224.3-301.23-18.57-62.31-82.29-95.9-144.76-92.22-47.69,2.8-92.64,36.72-119.95,74.05-5.56,7.6-10.29,17.9-15.71,25.29-.6.82-.99,1.98-2.34,1.64-17.31-27.57-35.84-53.31-62.79-72.22-7.38-5.18-17.36-11.61-25.12-15.37h.01ZM146.12,578.88c38.51,23.96,42.71-57.59,7.87-45.38-18.25,6.39-7.76,42.51,13.51,27.51,1.47-.47-.36,14.27-8.91,13.95-5.9-.22-10.02-8.07-12.48,3.92h.01ZM129,533c-5.38-1.11-8.63,1.69-13.2,3.31-1.32.47-4.59.55-4.76.73-.47.48.21,5.53-.05,6.96h8.01v29.99h-10.01v8h29c.35,0,.86-6.19.58-7.05-1.72-2.42-9.58,1.13-9.58-3.45v-38.5h.01ZM916.99,565c1.09,5.61-3.24,14.04-9.51,13.89-4.21-.1-6.77-6.51-11.53.58-3.06,4.55,7.44,7.36,10.59,7.54,26.38,1.48,27.73-48.18,4.48-50.61-25.69-2.68-21.19,44.74,5.98,28.6h0ZM965,538h-32c-.09,1.62-.43,8,1.5,8h19.5c-.69,3.24-3.41,5.59-4.88,8.62-4.73,9.83-6.3,20.6-7.13,31.37h10.01c.11-10.66,1.02-21.97,5.82-31.67,2.9-5.87,8.69-9.3,7.18-16.32ZM615.99,891c-2.08.39-9.65.66-10.56,1.93-1.1,1.52-1.12,20.6-1.44,24.07-4.94-3.53-8.37-20.86-14.47-21.1-2.68-.11-5.65,1.62-8.52,1.1-.26,1.42.27,2.46.79,3.71,4.34,10.38,15.26,23.01,18.71,33.29,1.12,3.35,4.67,27.86,6.09,28.06l10.48-2.68-5.68-28.05,4.61-40.33h-.01ZM493,896l-11-1.01-10.92,66.93,10.91,2.08,11-68h.01ZM523,919c.31.31,7.45.74,8.75.8,4.15.2,1.91-11.09.76-13.8-4.96-11.71-26.24-10.45-29.05,2.94-1.9,9.03-.32,15.82,5.14,22.97,3.1,4.05,7.93,6.97,10.25,11.75,6.72,13.86-6.02,18.86-8.43,10.36-1.92-6.78,5.24-8.97-10.41-8.03-.95,15,2.99,23.93,19.51,22,12.35-1.44,14.29-16.86,10.69-26.68-3.95-10.75-19.48-17.83-15.98-29.62,1.01-3.41,6.77-3.82,8.3-.7,1.07,2.19.14,7.66.49,8.01h-.02ZM575.01,918.01c4.24-25.98-33.5-27.6-31.01-.5,1.53,16.63,21.81,21.03,22.96,33.11.78,8.14-6.97,10.04-9.22,5.15-3.62-7.91,3.83-9.41-11.74-7.77-.69,14.93,6.17,22.48,21.45,19.96,12.17-2.01,12.48-20.61,7.41-29.3-4.57-7.82-22.94-15.89-19.42-26.69,1.01-3.1,3.97-3.8,6.9-2.8,3.64,1.25,2.31,8.48,2.66,8.84s8.33-.27,10.01,0h0Z"/>
  <path class="st1" d="M451.6,433.41c7.76,3.76,17.73,10.19,25.12,15.37,26.95,18.91,45.48,44.65,62.79,72.22,1.36.34,1.75-.82,2.34-1.64,5.41-7.39,10.15-17.69,15.71-25.29,27.3-37.34,72.26-71.25,119.95-74.05,62.47-3.67,126.19,29.92,144.76,92.22,39.19,131.48-117.87,257.74-224.3,301.23-47,19.21-66.6,20.03-113.95,1.02-77.95-31.29-175.27-104.08-213.29-179.76-19.82-39.45-27.01-97.05-8.58-138.09,30.8-68.57,123.31-95.31,189.46-63.24h-.01ZM482.65,472.35c-90.66-81.66-236.45-21.39-214.38,106.88,16.27,94.56,128.36,180.01,211.05,216.95,39.22,17.52,58.14,23.58,99.92,8.57,80.03-28.74,184.67-106.22,219.61-185.39,39.51-89.52-4.02-179.42-105.37-184.35-58.1-2.82-103.53,35.63-133.3,81.68-7.3,11.29-13.33,23.49-19.7,35.31-1.36.32-1.73-.8-2.34-1.64-4.34-5.94-7.98-15.43-11.97-22.03-11.91-19.71-26.37-40.54-43.52-55.98h0Z"/>
  <path class="st2" d="M745.61,328.41c15.54,15.3,33.54,37.21,44.18,56.3.71,1.27,2.93,3.93,1.71,5.29l-29.48-12.52c-105.58-152.15-339.64-151.98-444.74.56l-30.28,11.95c43.65-77.49,125.08-132.35,213.64-143.85,90.78-11.79,180.2,18.5,244.97,82.26h0Z"/>
  <path class="st2" d="M454,168.98l29,16.01c-7.45.35-20.88,7.96-27.52,7.57-4.73-.27-20.1-11.82-25.46-14.16-9.44,1.12-18.65,5.45-28.02,7.61l5.98,20.94-20.96,6.05-23.96-82.43c.43-1.22,1.51-1.17,2.46-1.55,11.97-4.86,54.04-17.34,65.94-18.06,16.66-1.01,27.54,5.2,32.59,21.5,4.75,15.33,1.78,26.02-10.04,36.53h-.01ZM429.76,133.26c-12.12,1.55-27.01,9.17-39.34,11.69l5.54,19.63c11.54-3.46,23.92-5.82,35.26-9.87,7.48-2.67,13.47-4.64,11.55-13.99-1.45-7.06-6.67-8.27-13.01-7.46Z"/>
  <path class="st2" d="M634,136l-20.37-2.13c-2.51-.83-.08-7.17-8.39-9.61-5.07-1.49-28.33-4.41-33.75-4.36-6.64.06-7.69,6.61-2.2,9.31,9.91,4.86,29.68,4.47,41.99,9.02,15.73,5.81,23.36,17.8,16.9,34.45-7.35,18.96-34.19,15.62-50.54,13.2-18.39-2.73-40.07-10.16-36.63-33.41.21-1.45-.6-1.62,1.5-1.48,5.77.39,11.93,2.38,17.87,2.14,2.05.67,2.02,7.91,8.35,9.65,10.88.35,23.19,3.9,33.82,4.26,7.23.25,9.17-6.37,2.46-9.54-18.81-8.9-69.66-1.97-59.95-39.93,5.97-23.35,35.89-19.29,54.17-16.29,20.47,3.35,36.01,11.19,34.77,34.73h0Z"/>
  <path class="st2" d="M708.02,189c2.19,1.84,17.26,9.25,17.87,10.11.8,1.12-2.61,7.41,3.15,12.34,3.08,2.64,25.72,16.54,29.22,17.77,7.43,2.61,9.91-2.2,5.25-8.25-9.2-11.97-40.05-20.96-43.28-39.72-3.11-18.08,11.27-31.58,29.17-29.18,14.62,1.96,49.02,23.81,53.13,38.87,1.35,4.95,1.02,18.73-3.53,21.62-1.43.91-16.65-8.08-17.57-9.59-1.48-2.43,3.09-6.28-4.51-12.42-3.24-2.61-23.79-15.47-27.2-16.79s-8.99-1.43-8.51,3.57c.51,5.32,27.11,21.04,32.8,26.14,12.61,11.29,19.04,24.81,6.5,39.52-11.13,13.06-26.16,7.85-39.18,1.16-20.99-10.78-48.32-27.87-33.31-55.17v.02Z"/>
  <path class="st2" d="M871.65,240.35c8.96,8.26,26.03,28.02,27.36,40.14,2.96,26.94-30.2,57.18-56.54,48.54-14.27-4.68-42.89-34.95-45.22-49.78-2.52-16.04,5.63-29.13,17.23-39.29,19.42-16.98,38.16-17.14,57.17.38h0ZM840.72,250.23c-6.36,1.32-18.19,12.37-20.51,18.48-2.69,7.07-1.03,9.84,3.28,15.3,3.49,4.43,16.9,19.14,21.01,21.99,9.08,6.29,21.85-3.15,27.5-10.5,6.28-8.17,7.2-13.29.51-21.51-3.98-4.89-16.38-18.78-21.01-21.99-3.41-2.36-6.71-2.61-10.78-1.77h0Z"/>
  <path class="st2" d="M254.42,243.59c24.81,27.43-13.61,51.23-28.26,72.11-.99,2.89,1.26,2.21,2.86,3.75,3.95,3.8,7.56,7.8,11.94,11.16-1.84,2.49-12.14,15.58-14.27,15.26l-62.62-57.23,39.91-45.16c17.4-16.99,33.59-18.53,50.44.11h0ZM237.68,257.32c-3.67-4.36-9.23-5.56-14.18-2.32-4.42,2.89-21.86,22.93-26.01,27.99-.77.95-3.24,3.92-3.36,4.7-.14.91,11.79,12.3,12.88,12.81,1.37.64,2.63.93,3.99.02l27.02-30.99c2.55-3.78,2.64-8.66-.35-12.21h0Z"/>
  <path class="st2" d="M288,276l-13.9-93.34c.36-1.28,20.91-14.58,22.23-14.46l80.64,49.3c-3.84,1.99-16.1,12.42-19.47,12.43-4.44,0-14.85-10.73-18.45-9.46l-33.61,22.53c-.6,5.67,4.48,16.04,2.06,21-.58,1.19-18.51,13.04-19.5,11.99h0ZM300,220.01c2.01,2.05,18.3-10.5,20.98-12.51l-24.97-15.49,4,28h-.01Z"/>
  <path class="st2" d="M512,98l7.06,85.44c-.28,1.53-18.97,2.02-22.06,2.57l-7-86,22.01-2.01h-.01Z"/>
  <path class="st2" d="M523,919c-.35-.35.58-5.82-.49-8.01-1.52-3.12-7.28-2.71-8.3.7-3.51,11.79,12.03,18.87,15.98,29.62,3.61,9.82,1.67,25.24-10.69,26.68-16.52,1.93-20.45-7-19.51-22,15.65-.94,8.49,1.24,10.41,8.03,2.41,8.5,15.15,3.5,8.43-10.36-2.32-4.78-7.15-7.7-10.25-11.75-5.46-7.15-7.04-13.94-5.14-22.97,2.81-13.4,24.09-14.66,29.05-2.94,1.15,2.72,3.4,14-.76,13.8-1.3-.06-8.44-.49-8.75-.8h.02Z"/>
  <path class="st2" d="M575.01,918.01c-1.68-.27-9.67.36-10.01,0s.98-7.6-2.66-8.84c-2.93-1-5.89-.3-6.9,2.8-3.52,10.79,14.86,18.86,19.42,26.69,5.08,8.7,4.77,27.29-7.41,29.3-15.28,2.53-22.14-5.03-21.45-19.96,15.57-1.64,8.11-.14,11.74,7.77,2.24,4.9,9.99,3,9.22-5.15-1.15-12.08-21.43-16.48-22.96-33.11-2.49-27.1,35.25-25.48,31.01.5h0Z"/>
  <path class="st2" d="M615.99,891l-4.61,40.33,5.68,28.05-10.48,2.68c-1.42-.19-4.97-24.71-6.09-28.06-3.44-10.29-14.37-22.91-18.71-33.29-.52-1.25-1.05-2.29-.79-3.71,2.88.51,5.85-1.21,8.52-1.1,6.1.24,9.53,17.57,14.47,21.1.32-3.47.35-22.55,1.44-24.07.91-1.26,8.48-1.53,10.56-1.93h.01Z"/>
  <path class="st2" d="M916.99,565c-27.17,16.14-31.66-31.28-5.98-28.6,23.25,2.42,21.91,52.09-4.48,50.61-3.16-.18-13.65-2.99-10.59-7.54,4.76-7.09,7.32-.68,11.53-.58,6.27.15,10.61-8.28,9.51-13.89h0ZM907.71,544.2c-6.73,2.03-7.48,19.26,4.56,16.61,10.27-2.26,4.35-19.29-4.56-16.61Z"/>
  <path class="st2" d="M146.12,578.88c2.46-12,6.57-4.14,12.48-3.92,8.55.32,10.38-14.42,8.91-13.95-21.27,15.01-31.76-21.12-13.51-27.51,34.85-12.2,30.64,69.34-7.87,45.38h-.01ZM166.7,554.71c7.78-9.65-12.8-23.99-12.78-6.21,0,8.7,8.16,11.94,12.78,6.21Z"/>
  <polygon class="st2" points="493 896 481.99 964 471.08 961.93 482 894.99 493 896"/>
  <path class="st2" d="M129,533v38.5c0,4.58,7.86,1.03,9.58,3.45.27.86-.23,7.05-.58,7.05h-29v-8.01h10v-30h-8.01c.26-1.43-.42-6.48.05-6.96.17-.17,3.43-.25,4.76-.73,4.57-1.63,7.81-4.42,13.2-3.31h0Z"/>
  <path class="st2" d="M965,538c1.51,7.03-4.27,10.45-7.18,16.32-4.79,9.7-5.71,21.01-5.82,31.68h-10.01c.83-10.78,2.39-21.55,7.13-31.38,1.46-3.04,4.19-5.38,4.88-8.62h-19.5c-1.93,0-1.59-6.38-1.5-8h32Z"/>
  <path class="st2" d="M482.65,472.35c17.15,15.44,31.61,36.27,43.52,55.98,3.99,6.6,7.63,16.09,11.97,22.03.61.84.99,1.97,2.34,1.64,6.37-11.82,12.41-24.02,19.7-35.31,29.77-46.05,75.2-84.51,133.3-81.68,101.35,4.93,144.87,94.83,105.37,184.35-34.94,79.16-139.58,156.65-219.61,185.39-41.79,15.01-60.7,8.95-99.92-8.57-82.7-36.94-194.78-122.39-211.05-216.95-22.07-128.27,123.72-188.54,214.38-106.88h0ZM740,541.01c-30.21-.58-59.74-.57-88.76,8.73-32.08,10.27-53.86,29.83-74.21,55.79-5.48,6.99-25,37.91-29.66,40.34s-7.2.16-10.35-3.39c-13.83-15.59-24.57-37.42-40-54-40.08-43.1-92.36-50.2-149.03-47.46.31,1.79,2.03,1.71,3.35,2.14,7.52,2.4,17.04,1.64,23.18,7.82,4.83,4.86,7.32,23.55,10.44,31.56,7.5,19.2,20.34,30.04,39.04,37.96,21.08,8.94,35.26,7.4,57.52,7.56,4.77.03,10.3-1.78,15.02.89,14.46,8.17,36.37,64.64,44.58,81.42.94,1.92,1.79,4.7,3.84,5.64,3.8-10.36,8.16-20.68,12.84-30.67,5.35-11.43,24.13-51.02,33.62-56.38,4.9-2.77,11.17-.9,16.02-.89,27.73,0,45.31.67,69.84-14.24,27.37-16.64,23.41-32.62,33.22-57.78,4.53-11.62,16.3-9.74,26.12-12.88,1.33-.42,3.04-.34,3.35-2.14l.03-.02Z"/>
  <path class="st0" d="M429.76,133.26c6.34-.81,11.56.4,13.01,7.46,1.92,9.35-4.07,11.32-11.55,13.99-11.34,4.05-23.72,6.41-35.26,9.87l-5.54-19.63c12.33-2.52,27.23-10.14,39.34-11.69Z"/>
  <path class="st0" d="M840.72,250.23c4.07-.84,7.37-.59,10.78,1.77,4.63,3.2,17.03,17.1,21.01,21.99,6.69,8.22,5.77,13.34-.51,21.51-5.65,7.35-18.42,16.79-27.5,10.5-4.11-2.85-17.52-17.56-21.01-21.99-4.31-5.47-5.97-8.24-3.28-15.3,2.32-6.1,14.16-17.16,20.51-18.48h0Z"/>
  <path class="st0" d="M237.68,257.32c2.99,3.55,2.9,8.43.35,12.21l-27.02,30.99c-1.36.92-2.62.63-3.99-.02-1.09-.51-13.02-11.9-12.88-12.81.12-.78,2.58-3.75,3.36-4.7,4.14-5.06,21.58-25.11,26.01-27.99,4.96-3.24,10.51-2.04,14.18,2.32h0Z"/>
  <path class="st0" d="M300,220.01l-4-28,24.97,15.49c-2.68,2.01-18.97,14.55-20.98,12.51h.01Z"/>
  <path class="st0" d="M907.71,544.2c8.91-2.68,14.84,14.35,4.56,16.61-12.04,2.65-11.3-14.58-4.56-16.61Z"/>
  <path class="st0" d="M166.7,554.71c-4.62,5.73-12.77,2.49-12.78-6.21-.02-17.78,20.56-3.44,12.78,6.21Z"/>
  <path class="st0" d="M740,541.01c-.31,1.8-2.03,1.71-3.35,2.14-9.82,3.14-21.6,1.26-26.12,12.88-9.81,25.16-5.84,41.14-33.22,57.78-24.53,14.91-42.12,14.25-69.84,14.24-4.85,0-11.12-1.88-16.02.89-9.49,5.36-28.26,44.95-33.62,56.38-4.68,9.99-9.04,20.31-12.84,30.67-2.06-.94-2.91-3.73-3.84-5.64-8.21-16.78-30.13-73.25-44.58-81.42-4.72-2.67-10.25-.86-15.02-.89-22.26-.16-36.44,1.37-57.52-7.56-18.7-7.92-31.54-18.76-39.04-37.96-3.13-8-5.61-26.7-10.44-31.56-6.14-6.18-15.66-5.42-23.18-7.82-1.33-.42-3.04-.34-3.35-2.14,56.67-2.74,108.94,4.37,149.03,47.46,15.42,16.58,26.16,38.41,40,54,3.15,3.55,5.58,5.88,10.35,3.39s24.18-33.35,29.66-40.34c20.35-25.96,42.13-45.52,74.21-55.79,29.03-9.3,58.55-9.31,88.76-8.73l-.03.02Z"/>
</svg>