<?xml version="1.0" encoding="UTF-8"?>
<svg id="Calque_1" xmlns="http://www.w3.org/2000/svg" version="1.1" viewBox="0 0 771.35 900">
  <!-- Generator: Adobe Illustrator 29.5.1, SVG Export Plug-In . SVG Version: 2.1.0 Build 141)  -->
  <defs>
    <style>
      .st0 {
        fill: #1069e8;
      }

      .st1 {
        fill: #f9f9f9;
      }

      .st2 {
        fill: #d2e1fd;
      }
    </style>
  </defs>
  <path class="st0" d="M721.14,355.66c23.04,2.44,44.06,21.87,48.53,44.49,3.39,149.01.45,298.64,1.48,447.88-2.9,30.46-24.61,50.08-54.92,51.97H55.07c-31.47-2.17-52.9-23.44-54.88-54.98-1.64-26.22,7-49.76,35.19-54.85,1.65-20.35-3.14-39.92,7.94-58.37,7.32-12.21,18.24-18.19,31.07-23.34-3.95-4.43-5.61-10.28-6.8-15.94,9.23-61.89,28.98-122.31,40.46-183.97,5.24-76.72,12.39-153.36,16.82-230.08l-3.01,1.65-7.88,110.66c-.1,46.09-65.51,50.78-71.23,4.94,2.35-49.28-3.18-101.52-.06-150.46.58-9.16,2.25-19.06,8.44-26.2,24.56-17.56,53.7-30.76,80.65-45.04,4.45-2.37,9.09-4.78,13.87-6.42-13.88-15.83-24.42-35.62-26.7-56.9C110.28,29.5,194.23-26.68,266.07,13.07c63.47,35.11,66.5,124.27,9.25,166.92l57.03,47.84,106.7-71.13c36.4-14.97,66.08,29.2,40.13,57.94l-118.3,96.45c-35.2,27.83-65.57-17.02-91.51-37.1-.99-.77-1.27-1.91-2.97-1.47l-10.9,77.18c13.76,3.71,27.8,7.17,41.34,11.62,30.52,10.02,36.86,16.72,40.8,49.25,1.51,50.05,12.69,102.72,13.89,152.36.26,10.59-2.44,19.88-8.95,28.24h32.66v-73.73c0-16.7,24.21-43.05,41.07-43.05h120.74c.11,0,1.48-1.38,1.48-1.48v-68.29c0-21.88,29.36-48.99,50.97-48.99h63.83v-169.72c-44.71-27.5-90.55-53.33-135.9-79.84-8.02-4.84-9.12-14.81-2.89-21.61L660.55,1.14c8.46-3.23,17.77,1.4,18.58,10.57-.61,114.72.54,229.32.94,343.95,13.12,1.01,28.19-1.37,41.07,0h0Z"/>
  <path class="st2" d="M748.14,793.67H59.14v-37.5c0-7.22,13.13-18.38,20.58-18.42l143.44-.56c5.82-2.32,9.3-6.71,9.97-13.03,2.84-26.56-3.48-59.95.08-85.92,1.34-9.76,9.6-17.76,19.37-18.63,42.66-3.8,91.31,3.73,134.07.07,7.29-.62,13.53-3.53,14.49-11.51,3.02-25.16-2.32-56.2,0-82.01,1.35-15.08,10.34-24.14,25.5-25.5,40.36-3.61,86.95,3.92,127.03.03,7.58-.74,12.64-5.92,13.45-13.55,2.69-25.1-3.53-57.45.24-81.76,2.06-13.26,15.4-22.67,28.22-23.78,39.81-3.43,84.6,2.55,124.93.14,10.06-.32,27.61,14.68,27.61,24.39v387.5l.02.04Z"/>
  <path class="st2" d="M149.36,262.86c.91-1.56,15.68-7.57,18.72-9.77,13.85-9.99,2.58-30.25-15.31-23.3-11.44,4.44-41.07,19.86-51.32,26.67-10.11,6.72-7.36,16.32-8.31,26.69-3.38,36.62-6.09,73.3-9.05,109.95-1.92,10.35-18.15,10.44-17.99-.9l.04-150.05c.54-5.02,2.88-9.17,7.31-11.69l93.2-47.73c18.76,10.13,39.73,13.65,60.98,11.91,7.05-.58,13.71-3.64,20.79-3.82l72.81,61.26c11.83,9.5,22.68-1.67,32.64-8.2,32.3-21.16,63.43-44.16,95.88-65.12,9.03-4.45,17.11,5.5,11.86,13.85-39.79,33.91-81.36,66.02-122.16,98.83-4.7,1.1-6.59.09-10.2-2.37-21.99-14.98-42.96-39.2-64.74-55.26-9.17-5.05-18.09-1.05-20.89,8.81-3.18,36.11-14.66,74.97-17.33,110.67-.54,7.21-.27,13.28,6.86,16.88,20.14,7.54,43.71,10.77,63.55,18.45,4.95,1.92,8.99,3.58,11.35,8.65,2.71,5.81,3.35,20.68,4.11,27.89,5.04,48.06,8.16,96.42,12.59,144.53-3.33,13.28-22.24,15.58-27.62,2.5l-23.24-135.76c-1.98-12.22-18.55-12.79-28.71-15.29-12.79-3.15-34.34-9.37-46.63-10.36-8.45-.68-12.08,1.78-15.14,9.62-5.03,36.28-7.9,72.94-13.98,109.02l-53.77,165.23c-6.55,12.25-25.6,8.31-25.25-6.24l40.64-171.37c5.6-84.77,13.71-169.32,18.33-254.18h-.02Z"/>
  <path class="st2" d="M748.14,820.67v33.5c0,7.73-11.56,18.99-18.73,21.27-8.91,2.84-25.88,1.11-35.73,1.17-215.01,1.44-430.06-.99-645.08.09-22.56-1.94-29.09-25.76-25.02-45.09.9-4.29,6.59-10.94,11.06-10.94h713.5Z"/>
  <path class="st2" d="M209.94,22.97c51.36-3.96,90.82,45.55,74.91,94.91-16.69,51.8-84.44,67.18-122.11,27.69-42.38-44.43-13.68-117.9,47.2-122.6h0Z"/>
  <path class="st2" d="M137.14,710.67c4.16-7.04,6.41-14.78,9.02-22.48,17.62-51.92,33.22-104.57,50.33-156.67l10.66-90.85,42.04,9.66,21.27,125.52c.93,6.26,4.71,11.44,7.69,16.81h-29.5c-18.39,0-42.5,26.4-42.5,44.5v73.5h-69.01Z"/>
  <polygon class="st2" points="656.14 32.67 656.14 150.67 553.15 91.65 656.14 32.67"/>
  <rect class="st1" x="33.14" y="822.67" width="714" height="1"/>
</svg>