<?xml version="1.0" encoding="UTF-8"?>
<svg id="Calque_1" data-name="Calque 1" xmlns="http://www.w3.org/2000/svg" viewBox="0 0 779.28 909.58">
  <defs>
    <style>
      .cls-1 {
        fill: #fff;
      }
    </style>
  </defs>
  <path class="cls-1" d="M728.75,359.33c26.46,2.68,48.15,26.35,50.48,52.52l.05,446.02c-2.14,24.6-19.69,44.98-44,50-226.6,3.44-453.76.44-680.58,1.51-30.58-2.29-52.36-23.9-54.45-54.55-1.87-27.4,6.53-50.93,35.86-56.62,1.03-20.39-3.36-40.43,7.71-58.78,7.34-12.16,18.47-18.58,31.4-23.58-4.46-4.52-5.8-10.97-6.97-17.01,9.73-59.48,27.02-118.07,39.87-177.11,6.49-80.07,13.05-160.23,18.11-240.38l-2.97,3.52c-3.88,36.79-3.86,74.24-8.03,110.97-1.48,13.06-4.18,22.83-15.68,30.32-23.16,15.1-53.95,1.6-56.3-26.33,2.42-50.1-3.27-103.28-.06-153.03.58-9.03,2.44-18.45,8.53-25.47,24.15-17.37,52.91-30.53,79.49-44.51,5.17-2.72,10.52-5.5,16.02-7.49-14.13-15.94-24.11-35.26-26.87-56.61C109.61,29.59,198.65-27.99,270.92,14.16c62.49,36.45,64.41,125.25,7.35,167.67l57.63,48.34c35.31-22.37,69.39-47.22,104.43-70.26,36.64-19.53,70.52,24.79,44.94,55.94-38.75,30.93-76.26,64.15-115.55,94.45-10.95,8.45-18.02,14.2-33.01,13.06-19.73-1.5-48.09-33.92-64.45-46.54-1-.77-1.27-1.94-3-1.49l-11.01,77.99c16.3,4.75,34.35,8.48,50.21,14.29,30.8,11.29,30.56,27.82,33.79,57.21,1.48,47.01,11.76,96.3,13.04,142.95.31,11.14-1.79,20.91-9.04,29.54h33v-75.5c0-22.13,29.45-43.5,50.5-43.5h114.5v-69.5c0-21.56,29.18-49.5,50.5-49.5h65.5c-.86-52.13,1.12-104.41.05-156.54-.05-2.21-.78-4.08-.86-5.95-.12-3.05,2.11-6.05-.14-9.81l-136.99-80.26c-7.81-4.94-8.62-16.37-1.41-22.27L666.2,1.78c8.42-4.28,18.28-.23,20.07,9.02l.98,348.52c13.31.98,28.42-1.33,41.5,0h0ZM215.04,27.63c-66.62,4.05-92.47,87.82-40.27,129.67,38.9,31.19,99.18,12.29,114.19-34.76,15.68-49.13-22.82-98.02-73.92-94.91h0ZM660.25,37.33l-103,58.99,103,59.01V37.33ZM153.46,267.53c-4.54,84.86-12.7,169.41-18.33,254.18l-39.77,168.22c-4.02,16.63,16.48,22.76,24.4,9.4l53.75-165.25c6.02-36.08,8.89-72.75,13.98-109.02,3.06-7.83,6.69-10.3,15.14-9.62,12.4,1,33.71,7.23,46.63,10.36,10.32,2.5,26.68,2.93,28.71,15.29l23.24,135.76c4.24,11.53,21.83,11.4,26.53.47,2.13-4.95,0-21.03-.5-27.5-3.65-46.69-9.71-93.25-13.01-139.99-1.38-8.42-2.79-11.8-10.73-15.27-20.11-8.8-45.53-11.78-66.27-19.73-7.13-3.6-7.4-9.67-6.86-16.88,2.04-27.29,9.4-63.19,14.03-90.96,2.43-14.56,2.65-37.64,24.19-28.52,21.81,16.05,42.73,40.27,64.74,55.26,3.61,2.46,5.51,3.47,10.2,2.37,40.8-32.81,82.32-64.97,122.16-98.83,5.25-8.35-2.82-18.3-11.86-13.85l-109.08,73.91c-5.72,4.57-13.95,3.95-19.43-.6l-73.64-61.44c-19.94,5.12-41.31,6.2-61.21.29-7.38-2.19-13.34-5.81-20.5-8.09l-90.41,46.66c-5.63,3.45-8.54,5.54-9.33,12.67l-.04,150.05c-.16,11.34,16.07,11.25,17.99.9,2.23-32.36,5.26-64.65,8.05-96.95,1.07-12.34-1.81-32.29,9.31-39.69,9.8-6.52,40.48-22.63,51.33-26.68,6.86-2.56,13.23-2.79,18.22,3.52,12.69,16.05-11.06,23.83-21.64,29.55h.01ZM752.25,798.33v-387.5c0-9.71-17.55-24.71-27.61-24.39-40.2,2.2-84.17-3.29-123.93-.14-13.86,1.1-27.11,10.35-29.2,24.8-3.54,24.5,2.42,55.75-.26,80.74-1.12,10.46-9,13.79-18.47,14.53-40.82,3.2-85.78-2.47-127.04-.04-22.43,5.12-18.68,20.9-19.46,38.54-.92,21.04,1.33,48.42-1.02,67.98-.9,7.52-6.37,10.89-13.48,11.52-42.97,3.8-92.13-3.9-135.08-.08-9.77.87-18.03,8.87-19.37,18.63-3.61,26.3,3.13,60.37-.06,86.94-.67,5.6-4.95,10.02-9.99,12.01l-143.44.56c-8.08.65-20.59,11.18-20.59,19.41v36.5h689ZM141.25,715.33h69v-74.5c0-17.51,24.82-43.5,42.5-43.5h29.5c-2.97-5.38-6.75-10.56-7.69-16.81l-21.45-126.05-41.86-9.13-10.66,90.85c-16.61,51.16-32.13,102.71-49.33,153.67-2.93,8.69-5.4,17.52-10.02,25.48h.01ZM752.25,825.33H38.75c-.69,0-5.07,2.29-6.01,2.99-6.56,4.9-6.06,17.08-5.53,24.56,1.05,14.99,9.38,25.9,24.54,28.46l675.05.04c9.86.61,25.46-13.07,25.46-22.54v-33.5h-.01Z"/>
</svg>