<?xml version="1.0" encoding="UTF-8"?>
<svg id="Calque_1" data-name="Calque 1" xmlns="http://www.w3.org/2000/svg" viewBox="0 0 952.37 736.37">
  <path d="M740.98,231.32h52.5c7.37,0,23.44,7.89,29.42,12.58,37.05,29.14,23.54,75.28,26.09,116.41,56.63,6.08,98.59,56.82,102.03,112.47,1.76,28.54,1.85,70.54-.05,99.03-7.56,113.38-155.55,153.01-216.41,56.43-18.9-30-19.98-61.27-18.59-95.92-8.28,7.31-17.56,13.89-28.21,17.28-2.93.93-12.88,3.72-15.28,3.72h-187.5v67h82.5c16.53,0,40.5,23.97,40.5,40.5v44.5h120.5c.29,0,4.26,2.44,5,3,11.63,8.75,7.27,26.07-7,28l-710.04.04c-14.3.63-21.18-17.56-10.95-27.03.99-.92,6.08-4.01,6.99-4.01h120.5c.27-.73-1-1.2-1-1.5v-40c0-18.89,23.57-43.5,42.5-43.5h80.5v-67H68.48c-32.32,0-67.29-37.58-68.48-69.52V69.83C4.03,34.72,32.16,7.07,66.76,1.59c201.95-2.12,404.53-2.12,606.45,0,30.64,2.59,67.77,38.04,67.77,69.23v160.5ZM696.63,45.67c-9.27-9.15-22.23-13.49-35.1-14.4H76.45c-25.3,1.87-43.72,19.28-46.5,44.51v402.07c2.23,23.33,19.85,42.49,43.5,44.5h593.07c24.99-2.58,42.67-21.62,44.5-46.5V78.78c-1.03-12.21-5.61-24.44-14.39-33.11ZM790.48,261.32c-14.94-2.01-34.1,1.5-49.5,0v144c18.92-24.35,46.06-40.83,76.89-45.1l-.35-71.94c-3-12.58-13.77-25.17-27.05-26.95ZM817.98,390.32c-39.5,7.32-69.06,43.96-71.99,83.51-1.96,26.5-1.96,69.51-.05,96.03,7.84,108.66,167.43,110.19,175.03-.05,1.89-27.43,2.02-70.66.05-98.03-2.83-39.27-33.33-76.18-73.04-81.45-.49.36,1,1.28,1,1.49v81c0,.33-1.24,5.82-1.48,6.52-3.94,11.53-20.3,13.77-26.98,3.93-.5-.74-2.55-5.06-2.55-5.45v-87.5ZM453.98,553.32h-168v67h168v-67ZM576.98,705.32v-41.5c0-5.87-11.25-14.4-17.46-13.54H182.44c-7.06-1.46-19.46,7.68-19.46,14.54v40.5h414Z"/>
  <path d="M77.71,69.55l581.81-.27c7.58.16,14.1,5.77,14.51,13.49v345.1c.12,5.3-5.11,11.71-10.02,12.98-3.11.8-11.76,1.33-15.49,1.51-8.59.42-17.34-.26-25.91-.18-92.77.95-186.33.26-279.08.18-79.92-.07-160.5,1.65-240.01-1.09-12.12-.42-33.16,4.45-37.07-10.93l-.51-345.57c.15-7.25,5.23-12.9,11.77-15.23ZM643.98,100.32H96.98v310h547V100.32Z"/>
  <path d="M301.72,312.56l210.76-.24c20.22,2.27,19.09,28.94,1,31h-210c-18.21-2.6-19.6-26.16-1.76-30.76Z"/>
  <path d="M337.72,236.56l194.76-.24c18.66,2,19.81,28.36,1,31h-195c-18.18-1.95-18.19-27.44-.76-30.76Z"/>
  <path d="M289.72,160.55l173.75-.23c19.38,1.4,22.53,26.44,3.03,31.01l-177.02-.02c-17.77-2.03-17.83-27.74.24-30.76Z"/>
  <path d="M169.72,236.56l106.67-.15c17.3,3.24,18.92,27.02,1,30.82h-107.83c-17.34-3.35-16.9-27.24.15-30.67Z"/>
  <path d="M169.72,312.56c22.21,1.97,52.22-3.57,73.52,0,17.61,2.95,17.03,28.38.15,30.67-22.47,3.05-51.52-1.9-74.67-.15-16.71-4.06-15.23-26.8,1-30.52Z"/>
  <path d="M167.71,161.55h64.54c16.86,6.77,13.51,28.42-4.88,30.66-12.61,1.53-39.92,1.17-52.93.15-19.99-1.57-24.73-22.65-6.73-30.81Z"/>
</svg>