<?xml version="1.0" encoding="UTF-8"?>
<svg id="Calque_1" xmlns="http://www.w3.org/2000/svg" version="1.1" viewBox="0 0 1164 900">
  <!-- Generator: Adobe Illustrator 29.7.1, SVG Export Plug-In . SVG Version: 2.1.1 Build 8)  -->
  <defs>
    <style>
      .st0 {
        fill: #52a4fe;
      }

      .st1 {
        fill: #0151e4;
      }

      .st2 {
        fill: #065be6;
      }

      .st3 {
        fill: #a9d7fe;
      }

      .st4 {
        fill: #cbeefe;
      }

      .st5 {
        fill: #1069e8;
      }

      .st6 {
        fill: #0045e3;
      }

      .st7 {
        fill: #d2e1fd;
      }
    </style>
  </defs>
  <rect class="st7" x="37.93" y="39.47" width="831.68" height="600.05" rx="50" ry="50"/>
  <path class="st7" d="M1013.57,474.71h15.69c58.92,0,106.76,47.84,106.76,106.76v111.67c0,58.92-47.84,106.76-106.76,106.76h-15.69c-58.92,0-106.76-47.84-106.76-106.76v-111.67c0-58.92,47.84-106.76,106.76-106.76Z"/>
  <g>
    <path class="st1" d="M894.75,899.06c-1.12.55-3.47.9-4.88,1.23l-2.44,1.23c-6.55.77-15.07-.12-21.97,0-.81-1.94-5.3-1.94-6.1,0-4.87.06-9.77-.04-14.64,0-7.43-2.05-18.19-2.05-25.63,0-6.89.04-13.85-.02-20.74,0l-.61-1.21-.61,1.21c-3.65.01-7.33,0-10.98,0-.17-1.84-3.49-1.84-3.66,0h-6.1c-4.94-2.04-14.33-2.07-19.52,0h-10.98l-1.82-1.22-.62,1.22h-2.44c-3.26-2.05-11.14-2.08-14.64,0h-8.54c-.81-1.94-5.3-1.94-6.1,0h-14.64l-.61-1.21-.61,1.21c-14.22.01-28.49-.01-42.71,0-3.67-2.05-11.95-2.08-15.86,0h-13.42c-2.27-2.06-8.71-2.06-10.98,0h-12.2c-3.26-2.05-11.14-2.08-14.64,0h-6.1c-1.93-2.06-7.88-2.05-9.76,0h-4.88c-.81-1.94-5.3-1.94-6.1,0h-9.76c-1.54-2.02-7-2.02-8.54,0h-8.54c-1.93-2.06-7.88-2.05-9.76,0h-15.86c-6.2-2.06-15.85-2.05-21.97,0h-12.2c-.5-1.91-4.49-1.84-4.88,0h-13.42c-.5-1.91-4.49-1.84-4.88,0h-13.42c-1.93-2.06-7.88-2.05-9.76,0h-28.07c-1.23-2.01-6.16-1.97-7.32,0h-4.88c-2.27-2.06-8.71-2.06-10.98,0h-12.2c-.5-1.91-4.49-1.84-4.88,0h-29.29c-.5-1.91-4.49-1.84-4.88,0h-26.85c-.5-1.91-4.49-1.84-4.88,0h-19.52c-1.54-2.02-7-2.02-8.54,0h-4.88c-.81-1.94-5.3-1.94-6.1,0h-4.88l-1.82-1.22-.62,1.22c-36.58-.04-73.24.07-109.83,0v-2.45h759.02-.08Z"/>
    <path class="st2" d="M135.72,899.06v2.45c-36.32-.07-81.38,3.28-116.59.05-4.7-.43-6.49-1.17-10.32-3.73l9.1,1.28,117.81-.05Z"/>
    <path class="st6" d="M825.19,674.67c-3.78.52-7.72.76-11.53,1.29l-220.32-.06,231.86-1.23h0Z"/>
    <path class="st2" d="M313.89,756.82l-.71,1.1c-4.09-1.05-10.48,1.36-13.33,1.36h-86.64c-19.81,0-36.51,19.38-43.67,35.89-.81,1.85-.2,4.01-3.31,3.35,6.8-25.12,29.14-39.79,54.25-41.74,30.06-2.32,63.04,1.82,93.4.05h0Z"/>
    <path class="st1" d="M1165.65,591.28c2.07,63.84,9.03,148.41-37.83,197.42,4.62-8.94,12.07-16.25,16.9-25.32,21.26-39.97,19.79-85.73,19.77-129.74,0-13.88.59-28.61-.05-42.35h1.22-.01Z"/>
    <path class="st6" d="M904.51,92.21c2.31,61.6-1.72,124.64,0,186.38V84.86c.17,2.43-.09,4.91,0,7.36Z"/>
    <path class="st0" d="M905.73,279.82l-1.22-1.23c-1.72-61.74,2.31-124.79,0-186.38l1.22,187.61Z"/>
    <path class="st2" d="M832.51,673.44c-.62-3.09,1.39-2.61,3.37-3.3,6.76-2.3,15.14-4.03,21.38-7.75,2.76-1.65,10.7-12.56,14.12-7.16,1.2,1.89-.24,38.22.13,44.61,1.21,20.44,7.94,44.59,18.35,61.51l6.1,13.86c-25.53-37.03-28.9-75.85-26.86-120.17-11.1,8.8-22.55,15.24-36.6,18.39h0v.02h.01Z"/>
    <path class="st2" d="M743.43,862.27c-2.21-.61-2.27-2.18-2.5-4.22-2.56-21.97,5.38-54.67-7.26-74.26,15.55,24.92,8.18,50.46,9.76,78.48h0Z"/>
    <path class="st2" d="M1165.65,591.28h-1.22c-1.27-27.11-5.85-51.82-18.95-75.99-.65-1.19-2.95-4.27-.57-4.94,16.11,27.86,19.72,49.33,20.74,80.93h0Z"/>
    <path class="st6" d="M1052.17,834.08c-21.07,4.77-44.67,5.39-65.9,1.23,6.06-2.52,14.92.85,21.37,1.22,13.56.74,25-1.46,38.16-3.35,1.95-.28,5.14-1.3,6.37.9Z"/>
    <path class="st6" d="M1037.52,439.23v-85.83c1.73,27.99-1.28,57.67,0,85.83Z"/>
    <path class="st6" d="M964.3,279.82h-58.57c19.26.83,39.43-1.12,58.57,0Z"/>
    <path class="st1" d="M1108.3,807.1c-9.2,7.89-20.46,15.06-31.73,19.61-.23-3.11,1.89-3.06,3.83-4.12,9.37-5.08,18.66-10.18,27.9-15.49h0Z"/>
    <path class="st5" d="M844.72,901.51c-8.53.07-17.1-.04-25.63,0,7.43-2.05,18.19-2.05,25.63,0Z"/>
    <path class="st5" d="M506.69,901.51h-21.97c6.11-2.05,15.77-2.06,21.97,0Z"/>
    <path class="st5" d="M776.38,901.51c-6.49.01-13.03-.01-19.52,0,5.2-2.07,14.58-2.04,19.52,0Z"/>
    <path class="st5" d="M653.13,901.51h-15.86c3.92-2.08,12.19-2.05,15.86,0Z"/>
    <path class="st5" d="M740.99,901.51h-14.64c3.5-2.08,11.39-2.05,14.64,0Z"/>
    <path class="st5" d="M600.66,901.51h-14.64c3.5-2.08,11.39-2.05,14.64,0Z"/>
    <path class="st1" d="M733.67,783.8c-.68-1.06-7.41-6.67-9.21-8.52-1.37-1.41-2.23-3.18-2.99-4.96,6.71,5.36,7.53,6.01,12.2,13.49Z"/>
    <path class="st5" d="M623.84,901.51h-10.98c2.27-2.06,8.71-2.06,10.98,0Z"/>
    <path class="st5" d="M385.89,901.51h-10.98c2.27-2.06,8.71-2.06,10.98,0Z"/>
    <path class="st5" d="M532.32,901.51h-9.76c1.88-2.05,7.83-2.06,9.76,0Z"/>
    <path class="st5" d="M435.92,901.51h-9.76c1.88-2.05,7.83-2.06,9.76,0Z"/>
    <path class="st5" d="M579.91,901.51h-9.76c1.88-2.05,7.83-2.06,9.76,0Z"/>
    <path class="st5" d="M272.4,901.51h-8.54c1.54-2.02,7-2.02,8.54,0Z"/>
    <path class="st5" d="M549.4,901.51h-8.54c1.54-2.02,7-2.02,8.54,0Z"/>
    <path class="st5" d="M398.09,901.51h-7.32c1.16-1.97,6.09-2.01,7.32,0Z"/>
    <path class="st5" d="M565.27,901.51h-6.1c.81-1.94,5.3-1.94,6.1,0Z"/>
    <path class="st5" d="M717.81,901.51h-6.1c.81-1.94,5.3-1.94,6.1,0Z"/>
    <path class="st5" d="M258.97,901.51h-6.1c.81-1.94,5.3-1.94,6.1,0Z"/>
    <path class="st5" d="M865.46,901.51c-2.04.04-4.06-.02-6.1,0,.81-1.94,5.3-1.94,6.1,0Z"/>
    <path class="st5" d="M454.22,901.51h-4.88c.39-1.84,4.38-1.91,4.88,0Z"/>
    <path class="st5" d="M362.7,901.51h-4.88c.39-1.84,4.38-1.91,4.88,0Z"/>
    <path class="st5" d="M328.53,901.51h-4.88c.39-1.84,4.38-1.91,4.88,0Z"/>
    <path class="st5" d="M296.8,901.51h-4.88c.39-1.84,4.38-1.91,4.88,0Z"/>
    <path class="st1" d="M1124.16,792.38c-4.05,4.91-8.92,10.58-14.64,13.49,4.01-3.45,10.04-9.08,14.64-13.49Z"/>
    <path class="st5" d="M472.53,901.51h-4.88c.39-1.84,4.38-1.91,4.88,0Z"/>
    <path class="st5" d="M786.14,901.51h-3.66c.17-1.84,3.49-1.84,3.66,0Z"/>
    <path class="st5" d="M745.87,901.51h-2.44l.62-1.22,1.82,1.22Z"/>
    <path class="st5" d="M889.87,900.29c-.13.02-.34.98-2.44,1.23l2.44-1.23Z"/>
    <path class="st5" d="M247.99,901.51h-2.44l.62-1.22,1.82,1.22Z"/>
    <path class="st5" d="M697.06,901.51h-1.22l.61-1.21.61,1.21Z"/>
    <path class="st5" d="M798.34,901.51h-1.22l.61-1.21.61,1.21Z"/>
    <path class="st1" d="M1127.82,580.25c3.7-.68,2.34,1.88,2.44,4.23,1.32,33.6,3.01,85.44-1.28,117.77-.31,2.29,1.56,4.97-2.38,4.29.54-3.41,1.23-6.27,1.22-9.81-1.54-38.36,2.05-78.32,0-116.49h0Z"/>
    <path class="st6" d="M904.51,485.82v2.45l-1.26-4.25c1.68-52.79-2.11-106.82.04-159.46.06-1.5-.92-4.56,1.21-4.27.02,55.16.01,110.37.01,165.53h0Z"/>
    <path class="st1" d="M908.17,570.43c-.21,1.56.12,3.31,0,4.9-.24,3.23.24,6.58,0,9.81-1.2.33-1.13,1.41-1.22,2.45-.16,2.01.02,4.11,0,6.13v1.23c-.29,34.7-.6,69.63,1.22,104.22-.09,2.18-.29,5.34,0,7.36-.83-1.19-2.44-7.1-2.44-7.97v-122.62c0-1.33,2.45-5.34,1.23-7.97,1.75-.38,1.2.78,1.21,2.45h0Z"/>
    <path class="st1" d="M1037.52,583.93c-.29.68-.82,1.58-1.22,2.45s-.83,1.63-1.22,2.45c-1.15.24-.95.94-1.22,1.23l2.49-14.05c.17-29.85-.38-59.73-.06-89.57.02-2.07-.78-5.46,1.24-6.73-1.96,34.06,1.46,69.97,0,104.22h-.01Z"/>
    <path class="st6" d="M998.47,352.17c3.7-.68,2.34,1.88,2.44,4.23,1.06,27.09-.29,54.53-.6,81.61-1.35,2.73-24.66,6.36-29.92,7.95-4.64,1.4-10.17,5.97-14.63,4.3,13.84-6.19,28.41-9.91,43.39-12.19-.95-27.15,3.64-59.45-.68-85.91h0Z"/>
    <path class="st6" d="M905.73,319.06c1.27-2.04,4.62-1.23,6.7-1.25,21.49-.23,44.42-1.49,65.32,2.5-.16.52-1.24,1.11-1.23,1.21-23.14-4.74-47.25-1.52-70.78-2.45h-.01Z"/>
    <path class="st1" d="M1121.72,550.82c3.93-.29,4.92,9.32,5.5,12.25.96,4.75,3.49,11.64.6,15.96-.67-10.2-2.92-18.63-6.1-28.21Z"/>
    <path class="st3" d="M1024.1,799.74c-6.09.26-13.48.39-19.52,0,5.2-2.07,14.58-2.04,19.52,0Z"/>
    <path class="st3" d="M1036.3,798.51c-3.2.48-6.53,1.06-9.76,1.23-1.45-3.89,7.42-3.2,9.76-1.23Z"/>
    <path class="st3" d="M996.03,798.51c2.06-2.13,7.29-2.34,6.1,1.23-2.25-.2-4.04-.85-6.1-1.23Z"/>
    <path class="st3" d="M1041.18,797.29c-1.15.62-2.37,1.06-3.66,1.23-.46-5.2,3.32-1.24,3.66-1.23Z"/>
    <path class="st4" d="M991.15,479.69l3.66-1.23c-1.23.37-1.16.63-3.66,1.23Z"/>
    <path class="st1" d="M201.62,861.05c-1.03-1.8.02-.72,0-1.23v1.23Z"/>
    <path class="st1" d="M1038.74,478.47h-1.22c.12-.43-.17-.98.61-1.21l.61,1.21Z"/>
    <rect class="st5" x="155.81" y="167.49" width="244.06" height="36.79" rx="12.5" ry="12.5"/>
    <rect class="st5" x="194.45" y="302.38" width="244.06" height="36.79" rx="12.5" ry="12.5"/>
    <rect class="st5" x="150.25" y="437.26" width="366.09" height="36.79" rx="12.5" ry="12.5"/>
    <rect class="st5" x="499.52" y="302.38" width="244.06" height="36.79" rx="12.5" ry="12.5"/>
    <rect class="st5" x="460.88" y="167.49" width="122.03" height="36.79" rx="12.5" ry="12.5"/>
    <path class="st5" d="M904.51,84.86v193.75l1.22,1.23h58.57c5.81.34,5.24,2.46,5.58,2.47,9.02.29,10.36-.73,20.02,3.06,27.86,10.96,45.77,38.32,47.62,68.03v85.83c45.1,3.17,85.13,32.64,107.39,71.12-2.38.68-.07,3.77.57,4.94,13.11,24.16,17.68,48.87,18.95,75.99.65,13.75.05,28.48.05,42.35.02,44.01,1.49,89.77-19.77,129.74-4.83,9.07-12.28,16.38-16.9,25.32-1.27,1.33-2.33,2.4-3.66,3.68-4.6,4.4-10.63,10.04-14.64,13.49-.43.37-.78.84-1.22,1.23-9.24,5.31-18.51,10.4-27.9,15.49-1.94,1.06-4.06,1.01-3.83,4.12-6.99,2.83-16.99,5.68-24.41,7.36-1.22-2.19-4.42-1.18-6.37-.9-13.15,1.89-24.61,4.08-38.16,3.35-6.43-.35-15.3-3.74-21.37-1.22-37.21-7.29-68.91-29.05-90.3-60.08l-6.1-13.86c-10.41-16.92-17.15-41.07-18.35-61.51-.38-6.4,1.06-42.74-.13-44.61-3.42-5.4-11.35,5.52-14.12,7.16-6.24,3.72-14.62,5.45-21.38,7.75-1.98.67-3.99.21-3.37,3.3-1.98.44-5.22.93-7.32,1.23l-231.86,1.23-1.82,1.21c.48,23.15-2.77,50.13-.68,73.03.63,6.99,2.15,8.55,9.15,9.19,31.97,2.94,82.48-6.63,110.84,5.11,3.38,1.4,5.7,4.19,9.42,4.63.45.33.78.87,1.22,1.23.74,1.78,1.61,3.56,2.99,4.96,1.81,1.85,8.53,7.47,9.21,8.52,12.64,19.58,4.7,52.3,7.26,74.26.23,2.04.29,3.61,2.5,4.22h142.77c21.56.5,28.42,27.04,8.54,36.79H135.72l-117.81.05-9.1-1.28c-15.17-10.13-9.75-33.85,8.54-35.56h145.22c1.32-.52,1.17-1.74,1.28-2.94,1.99-19.77-2.98-41.02,2.38-60.82,3.12.65,2.51-1.5,3.31-3.35,7.15-16.49,23.86-35.89,43.67-35.89h86.64c2.84,0,9.23-2.4,13.33-1.36l.71-1.1c.05-.4-.07-.83,0-1.23.59-.13,1.13-.65,1.22-1.23,1.9-13.2,1.72-61.89.06-75.47-.22-1.82.01-3.47-2.06-4.06l-225.63-.12c-8.97-.67-16.02-3.42-24.32-6.23-1.6-.54-4.48-2.26-5.53.05C21.51,652.9,1.49,617.35.21,578.45l.07-486.86C-.46,62.46,25,15.28,53.97,7.59c8.85-2.35,20.44-5.27,30.51-7.36,245.54,2.8,491.91-3.2,737.06-1.23,44.36.35,79.94,43.49,82.98,85.83h0ZM89.35,38.26c-26.65,2.32-46.29,22.45-48.81,49.05l-2.45,1.82-.04,493.02c-.63,4.05,1.42,7.05,2.49,10.37,7.02,21.65,16.61,34.13,37.83,42.92,3.22,1.34,9.38,3.68,12.81,3.68h723.63c1.32,0,5.31-2.46,7.93-1.24.38-1.76-.78-1.21-2.44-1.22,22.37-3.27,42.55-24.05,45.15-46.6.1-.79-.06-1.65,0-2.45,3.69.68,2.37-1.88,2.44-4.23,5.43-162.86-4.06-328.67,0-491.83l-2.44-4.23c-.02-.4.04-.82,0-1.23-2.32-25.21-21.66-47.26-47.59-47.82H89.35v-.02h0ZM905.73,319.06l-1.22,166.77c0-55.16,0-110.37-.01-165.53-2.12-.28-1.15,2.78-1.21,4.27-2.15,52.64,1.64,106.67-.04,159.46l1.26,4.25,23.3-21.35c8.97-6.2,17.99-12.2,27.96-16.66,4.47,1.67,9.99-2.9,14.63-4.3,5.26-1.58,28.57-5.22,29.92-7.95.31-27.09,1.66-54.53.6-81.61-.1-2.37,1.26-4.91-2.44-4.23-1.73-10.61-5.55-18.87-14.03-25.75-1.87-1.51-7.74-3.51-7.93-4.9-.01-.1,1.07-.66,1.23-1.21-20.9-3.99-43.82-2.72-65.32-2.5-2.06.02-5.43-.78-6.7,1.25h.01,0ZM1037.52,478.47c-.1.32.02.79,0,1.23-2.03,1.28-1.22,4.64-1.24,6.73-.32,29.84.24,59.72.06,89.57l-2.49,14.05c-.92.98-1.55,2.58-2.44,3.68-8.77,4.51-18.94,5.73-26.85-1.23-.73-.63-3.25-3.99-3.66-4.9l-1.22-109.14c-.39-.06-.83.09-1.22,0-.32-.07-.89-.05-1.22,0-.77.12-1.81-.18-2.44,0l-3.66,1.23c-42.58,9.93-77.21,46.67-82.98,90.74-.01-1.66.54-2.82-1.21-2.45,1.22,2.62-1.23,6.63-1.23,7.97v122.62c0,.87,1.61,6.78,2.44,7.97,6.65,45.26,43.04,84.05,87.86,91.96,2.06.37,3.86,1.04,6.1,1.23.81.07,1.64-.05,2.44,0,6.04.39,13.44.26,19.52,0,.81-.04,1.64.05,2.44,0,3.23-.17,6.57-.74,9.76-1.23.4-.06.82.05,1.22,0,1.29-.17,2.51-.6,3.66-1.23,3.59.16,10.41-2.39,14.06-3.66,38.38-13.39,65.02-46.89,71.36-87.09,3.94.68,2.07-2,2.38-4.29,4.28-32.33,2.6-84.17,1.28-117.77-.1-2.37,1.26-4.91-2.44-4.23-.02-.4.02-.82,0-1.23,2.89-4.32.37-11.19-.6-15.96-.59-2.93-1.57-12.54-5.5-12.25-11.78-35.45-39.49-61.79-75.66-71.12-2.4-.62-4.77-1.44-7.32-1.23l-.61-1.21c-.78.22-.49.77-.61,1.21h.01v.02h0ZM351.72,675.89l-.06,76.7c-.27,1.25.88,4.23,1.89,4.23h201.96v-80.93h-203.79ZM215.04,796.06c-2.83.77-2.7.92-4.88,2.45-2.03,1.43-2.23,1.84-3.66,3.68-1.18,1.52-2.56,2.6-3.34,4.6-3.31,8.41-1.76,39.58-1.54,50.58,0,.81-.05,1.65,0,2.45.02.5-1.03-.57,0,1.23.22.39.94.73,1.22,1.23h502.76l1.22-1.23c2.03-1.28,1.22-4.64,1.24-6.73.12-10.14,1.75-41.4-2.47-48.44-.73-1.24-5.96-6.85-7.32-7.36l-7.32-3.68-6.7-1.25c-154.27,3.92-311.03-5.16-465.01.02-2.36.07-4.89-1.25-4.21,2.45h.01Z"/>
    <rect class="st7" x="351.72" y="675.89" width="203.79" height="80.93"/>
  </g>
  <path class="st7" d="M221.62,791.98h470.09c11.04,0,20,8.96,20,20v50.3H201.62v-50.3c0-11.04,8.96-20,20-20Z"/>
</svg>