<?xml version="1.0" encoding="UTF-8"?>
<svg id="Calque_2" data-name="Calque 2" xmlns="http://www.w3.org/2000/svg" viewBox="0 0 7706.45 7706.45">
  <defs>
    <style>
      .cls-1 {
        fill: #cfac5d;
      }

      .cls-2 {
        fill: #004070;
      }

      .cls-3 {
        fill: #fff;
      }

      .cls-4 {
        fill: #e30613;
      }
    </style>
  </defs>
  <g id="svg2">
    <path id="path620" class="cls-2" d="M3853.23,0C1728.42,0,0,1728.65,0,3853.07s1728.42,3853.38,3853.23,3853.38,3853.23-1728.65,3853.23-3853.38S5978.04,0,3853.23,0"/>
    <path id="path622" class="cls-3" d="M3847.96,276.55c-955.81,0-1854.12,372.22-2529.77,1047.84C642.24,2000,270.01,2898.58,270.01,3854.05s372.23,1854.36,1048.18,2529.97c675.64,675.92,1573.96,1047.84,2529.77,1047.84s1854.12-371.91,2529.77-1047.84c675.95-675.62,1048.18-1574.2,1048.18-2529.97s-372.23-1854.05-1048.18-2529.67c-675.65-675.62-1573.96-1047.83-2529.77-1047.83M3847.96,418.16c1897.86,0,3436.34,1538.42,3436.34,3435.9s-1538.48,3436.2-3436.34,3436.2S411.63,5751.84,411.63,3854.05,1950.1,418.16,3847.96,418.16"/>
    <g id="g5817">
      <path id="path624" class="cls-3" d="M4816.01,1747.95l340.12-817.84c-55.97-25.08-112.25-48.02-169.75-70.04l-339.81,817.23c57.5,21.41,114.09,44.96,169.45,70.65"/>
      <path id="path626" class="cls-3" d="M3836.22,815.27h329.11c80.44,0,145.9,65.45,145.9,146.2s-65.45,145.89-145.9,145.89h-329.11v-292.08h0ZM3836.22,1531.87v-267.92h224.2l193.3,305.85c76.77,13.76,152.01,31.5,225.72,52.61l-231.84-369.46c133.05-35.48,242.55-152.62,242.55-291.47,0-166.99-158.13-302.79-324.82-302.79h-508.03v880.54c59.03-4.59,118.37-7.34,178.62-7.34h.31,0Z"/>
      <path id="path628" class="cls-3" d="M1703.79,1682.44l241.02-264.56c54.44-59.64,147.12-63.92,206.46-9.48,59.64,54.14,63.92,146.81,9.48,206.14l-241.02,264.86-215.94-196.97ZM2235.99,2167.21l-200.64-182.59,248.36-273.43c112.56-123.26,112.56-321.45-11.01-434-123.26-112.55-323.91-96.95-436.46,26.3l-368.56,405.86,642.31,585.39c40.07-44.35,82.58-86.55,126.01-127.54"/>
      <path id="path630" class="cls-3" d="M5590.69,1425.28c132.44-31.2,375.9,210.73,422.7,374.66,38.54-29.36,124.79-92.67,124.79-92.67-103.07-293-512.93-586-707.45-402.5-115.62,109.19-50.16,277.1,50.77,383.23l97.88,103.07c99.71,104.91,186.88,209.51,106.75,275.88-85.33,70.65-324.52-106.44-468.27-410.45l-128.46,97.26c30.59,79.83,100.02,195.74,193,293.92,105.52,111.02,220.52,183.51,323.6,203.69,81.05,15.9,161.49,3.67,214.71-45.57,132.74-123.26,84.42-302.48-124.18-522.08l-86.25-90.84c-96.04-101.24-56.89-158.74-19.57-167.6"/>
      <path id="path632" class="cls-3" d="M2817.64,1378.85l15.29-378.33,248.97,285.66c-90.23,26.3-178.32,57.5-264.26,92.67M2870.86,805.7c-63.01,19.88-125.1,41.9-186.27,66.06l-66.37,1003.18c59.64-36.4,120.81-70.04,183.52-101.24l9.48-233.67c120.81-53.52,247.13-97.57,377.13-131.82l154.15,176.78c67.9-14.68,136.72-26.3,206.46-34.87l-678.09-744.43Z"/>
    </g>
    <path id="path634" class="cls-2" d="M3850.47,4493.67c-459.71,0-832.86,354.17-832.86,790.92,0,153.84,46.49,297.28,126.63,418.71,219.3,84.41,457.26,131.21,706.23,131.21s486.93-46.79,706.23-131.21c80.14-121.42,126.32-264.86,126.32-418.71,0-436.75-372.54-790.92-832.55-790.92"/>
    <g id="g5845">
      <path id="path636" class="cls-4" d="M4577.87,3905.65h-1455.89c-241.32,400.35-552.99,745.66-917.27,1039.88,157.52,239.48,365.5,442.56,609.58,593.96-9.18-51.99-14.07-105.21-14.07-159.65,0-542.27,470.11-981.77,1050.32-981.77s1050.32,439.5,1050.32,981.77c0,54.44-4.89,107.66-14.07,159.65,243.46-151.09,451.76-354.17,608.97-593.34-364.59-294.23-676.26-639.83-917.89-1040.49"/>
      <path id="path638" class="cls-4" d="M4532.75,3828.88c-307.7-539.82-489.68-1177.21-503.45-1922.56-58.73-5.2-118.37-8.56-178.93-8.56s-120.81,3.36-180.15,8.56c-13.46,745.35-195.75,1382.74-503.45,1922.56h1365.97Z"/>
    </g>
    <path id="path640" class="cls-3" d="M4128.41,1917.79c955.51,135.18,1690.49,955.77,1690.49,1948.25,0,318.08-75.85,618.12-209.82,884.21-867.11-650.84-1394.11-1567.78-1480.67-2832.46M4886.64,5539.33c9.18-51.69,14.07-104.91,14.07-159.35,0-542.27-470.11-982.08-1050.32-982.08s-1050.32,439.81-1050.32,982.08c0,54.44,4.89,107.66,14.07,159.35-243.77-151.09-452.06-354.17-609.58-593.96,364.28-293.92,675.95-639.22,917.27-1039.88h1455.89c241.63,400.97,553.3,746.27,918.19,1040.49-157.52,239.48-365.5,442.26-609.27,593.34M4556.61,5703.27c-219.3,84.41-457.26,131.21-706.23,131.21s-486.93-46.79-706.23-131.21c-80.14-121.42-126.32-264.86-126.32-418.71,0-436.75,372.84-790.92,832.55-790.92s832.86,354.17,832.86,790.92c0,153.84-46.49,297.28-126.63,418.71M1882.17,3866.04c0-992.78,734.98-1813.37,1690.79-1948.25-86.56,1264.99-613.56,2181.92-1480.97,2832.46-133.97-265.78-209.82-566.12-209.82-884.21M3850.38,1897.91c60.56,0,120.2,3.06,178.93,8.56,13.76,745.35,195.75,1382.43,503.45,1922.56h-1365.97c308-540.13,489.99-1177.21,503.45-1922.56,59.34-5.51,119.59-8.56,180.15-8.56M3850.38,1756.3c-1163.49,0-2109.82,946.6-2109.82,2109.74s946.33,2110.05,2109.82,2110.05,2110.13-946.6,2110.13-2110.05-946.64-2109.74-2110.13-2109.74"/>
    <g id="g5839">
      <path id="path642" class="cls-1" d="M3920.39,5519.15l-70.04-81.36-70.04,81.36-2.75,7.65c13.76,27.83,37.62,62.09,66.37,85.33l6.42,3.36,6.42-3.36c29.06-23.24,52.61-57.5,66.68-85.33l-3.06-7.65"/>
      <path id="path644" class="cls-1" d="M3987.5,5077.38c0-80.44-105.22-331.23-137.03-331.23l-7.95,3.36c-38.23,31.2-129.07,252.94-129.07,327.87,0,59.95,121.12,218.07,121.12,304.01h0l15.9,15.9,15.9-15.9v-.61c.61-85.94,121.12-243.45,121.12-303.4"/>
      <path id="path646" class="cls-1" d="M3782.08,5373.96c-56.89-149.87-154.77-231.83-256.92-231.83-76.77,0-139.47,62.39-139.47,139.47s74.99,126.65,139.47,139.47c20.89,4.15,44.88-8.55,59.03-24.47,11.47-12.91,23.16-35.17,14.07-49.85-3.17-5.12-12.42-.55-17.74-3.36-19.5-10.31-46.83-24.74-46.8-46.79.03-21.99,24.84-45.37,46.8-46.49,72.97-3.71,126.63,44.04,170.36,137.94v.61l.31.61,15.6,9.18,17.13-17.43-1.84-7.03"/>
      <path id="path648" class="cls-1" d="M4171.08,5142.07c-101.85,0-200.03,81.97-256.92,231.83l-1.53,7.03,17.13,17.74,15.29-9.48.31-.61.31-.31c43.43-94.2,97.33-142.03,170.36-138.24,21.89,1.13,46.45,24.57,46.49,46.49.03,21.99-27.05,36.51-46.49,46.79-5.41,2.86-14.83-1.84-18.05,3.36-9.15,14.79,2.78,37.2,14.38,50.16,14.11,15.78,37.97,28.32,58.72,24.16,64.47-12.9,139.47-62.39,139.47-139.47s-62.4-139.47-139.47-139.47"/>
    </g>
    <g id="g5824">
      <path id="path650" class="cls-3" d="M2135.03,5890.48l-113.78,53.83,78.91,67.29s34.87-121.12,34.87-121.12ZM2092.51,6211.31l-42.51-31.81,35.79-117.75-112.25-95.42-111.64,53.22-37.93-34.87,329.72-155.68,40.37,34.26-101.55,348.05h0Z"/>
      <path id="path652" class="cls-3" d="M2418.31,6029.7l-184.74,280.46-39.76-26.3,184.74-280.16,39.76,26Z"/>
      <path id="path654" class="cls-3" d="M2563.17,6121.88l57.2,313.19.61.31,116.84-222.05,41.9,22.33-153.24,292.39-41.6-18.96-57.81-316.86-.61-.31-118.67,225.1-40.68-23.55,154.15-293.61,41.9,22.02h0Z"/>
      <path id="path656" class="cls-3" d="M3133.78,6365.92l-15.6,44.96-109.5-38.23-93.9,269.45-44.66-15.6,93.9-269.45-109.5-37.93,15.6-44.96s263.65,91.75,263.65,91.75Z"/>
      <path id="path658" class="cls-3" d="M3859.13,6612.34l151.4,2.45-1.53,87.47c-.92,59.33-66.68,97.87-149.57,96.65-87.78-1.53-178.62-63.31-176.79-175.25,1.22-94.2,77.69-170.36,183.52-168.83,78.61,1.22,119.29,43.43,138.25,62.09l-33.34,33.34c-16.21-15.9-41.29-46.79-100.93-47.71-87.48-1.53-139.17,54.75-140.08,123.87-1.22,64.84,48.94,123.56,132.44,125.09,57.2.92,98.49-24.77,98.79-52.91l.92-37.01-103.99-1.84.92-47.41h0Z"/>
      <path id="path660" class="cls-3" d="M4373.25,6412.81l6.73,47.1-220.53,31.5,12.54,85.94,111.03-16.21,6.73,47.41-111.03,15.6,14.38,100.01,228.48-33.03,6.73,47.1-275.58,39.45-46.8-326.65,267.32-38.23h0Z"/>
      <path id="path662" class="cls-3" d="M4546.06,6417.45l28.14,93.28,140.7-42.51c33.95-10.4,48.02-33.95,38.84-64.53-10.71-35.78-40.68-36.4-66.98-28.75,0,0-140.7,42.51-140.7,42.51ZM4672.99,6329.68c50.77-15.29,106.75-3.98,126.32,60.25,20.49,68.51-18.96,103.99-44.66,114.08l103.07,111.02-49.86,18.05-102.46-112.55-117.76,35.48,39.76,132.74-45.57,12.85-94.82-315.94,185.96-55.97Z"/>
      <path id="path664" class="cls-3" d="M5398.86,6020.19l24.16,123.87,84.72-60.25-108.89-63.62ZM5696.46,6139.47l-41.6,33.03-102.16-62.7-119.9,85.64,22.94,119.59-42.21,26.91-69.74-355.09,43.13-30.28,309.53,182.9Z"/>
      <path id="path666" class="cls-3" d="M5593.36,5792.21l225.42,242.54-35.79,31.5-224.5-241.62s34.87-32.42,34.87-32.42Z"/>
      <path id="path668" class="cls-3" d="M5724.23,5662.9l317.79,22.02.61-.92-186.57-167.6,31.81-35.17,245.3,220.52-28.44,35.48-321.15-22.02-.61.61,189.02,170.05-33.34,33.95-246.22-221.43,31.81-35.48h0Z"/>
      <path id="path670" class="cls-3" d="M5165.21,6106.41l-42.21,21.72-7.34,233.67-193.61-131.51-42.21,21.72,144.06,296.98,43.43-19.27-100.02-211.04.61-.61,191.77,129.99,7.34-231.53.92-.31,112.25,205.22,41.29-23.24-156.29-291.78h0Z"/>
      <path id="path672" class="cls-3" d="M1967.78,5680.97c-26.92-100.62-129.07-199.41-206.15-199.41l-46.18,14.68-27.53,45.88c-3.98,29.36,7.65,66.67,32.12,99.09l35.17,47.1c27.22,36.4,53.53,74.32,48.02,104.29l-20.19,29.36-21.41,5.81c-47.71,0-128.46-85.03-168.22-207.06l-.61-2.14-34.87,32.73-.61.61v.61c7.95,30.58,28.75,79.83,63.62,126.62,36.7,48.94,78.61,82.88,117.76,95.73l37.01,6.12,44.04-12.85,33.34-52.91c5.81-38.84-14.68-90.53-61.48-152.62l-30.89-41.6c-24.77-33.34-23.86-54.75-18.66-66.98l26-19.57,5.2-.31c56.89,0,137.03,94.2,157.82,166.99l.61,1.84,1.53-.92,33.64-19.27,1.22-.61-.31-1.22h0Z"/>
      <path id="path674" class="cls-3" d="M3418.23,6626.2l-117.76-26,11.01-47.41,117.45,26.3-10.7,47.1Z"/>
    </g>
  </g>
</svg>