<?xml version="1.0" encoding="UTF-8"?>
<svg id="Calque_1" data-name="Calque 1" xmlns="http://www.w3.org/2000/svg" viewBox="0 0 848.05 847.87">
  <defs>
    <style>
      .cls-1 {
        fill: #121212;
      }

      .cls-2 {
        fill: #fefefe;
      }

      .cls-3 {
        fill: #1b1b1b;
      }
    </style>
  </defs>
  <path class="cls-1" d="M421.02.01c267.1-2.16,464.79,233.8,420.92,496.91-37.44,224.55-252.48,379.16-478.04,346.62-171.5-24.74-315.29-154.26-353.18-323.82C-48.94,252.71,147.66,2.22,421.02.01ZM535.23,50.73c-71.21-19.25-145.88-19.82-217.22-.73l-7.79,3.21,113.49,76.52,111.52-79ZM574.98,65.88l-133.74,92.34-1.07,2.93.56,105.57,126.01,92.64,93.55-46.1,3.4-2.6,41.55-155.44c-.2-1.91-5.69-6.84-7.48-8.54-25.14-23.99-56.36-47.41-86.85-64.15-4.62-2.53-33.17-17.24-35.93-16.66ZM158.6,139.1c-2.66,2.44-17.14,15.98-17.16,17.9l42.97,155.02,2.08,1.92,92.04,46.02,2.97.6,125.23-94.84v-106s-134.58-92.52-134.58-92.52l-2.93-.08c-40.12,18.28-78.09,42.16-110.63,71.98ZM812.22,398.71c-3.7-60.95-20.68-121.03-52.19-173.3-6.35-10.54-14.92-23.96-22.39-33.61-.93-1.19-5.12-7.04-6.4-6.08l-34.88,131.29,115.86,81.7ZM116.22,187.72c-1.56-1.62-7.5,6.94-8.39,8.1-6.85,9-13.68,19.81-19.41,29.59-30.73,52.5-49.55,112.14-52.2,173.29l114.83-80.59-34.84-130.4ZM501.19,530.67l44.89-144.23-122.88-91.33-120.87,90.28,43.94,145.28h154.92ZM812.01,438.93c-38.29-26.78-75.89-54.63-114.46-81.03-4.32-2.96-17.91-13.5-21.37-14.71-.69-.24-1.24-.5-1.94-.08l-94.45,47.65-46.81,144.19-1.6,8.04c18.74,21.58,36.9,43.84,56.56,64.51l178.64.04c29.15-50.79,45.1-109.88,45.44-168.63ZM172.9,343.89c-45.81,31.71-91.97,63.01-136.49,96.52.39,58.56,16.82,117.6,45.47,168.15l180.65-.03,54.29-64.79c.65-2.32-1.55-8-2.34-10.79-13.39-47.18-31.12-93.75-45.23-140.77l-96.37-48.29ZM338.44,802.52c56.04,12.74,115.37,14.31,171.3.21l54.12-171.55-58.64-67.94c-53.72-.56-107.64-1.58-161.27.69l-57.22,66.82-.31,3.2,52.04,168.58ZM254.73,640.72H101.23c.34,2.39,2.41,4.72,3.78,6.72,45.46,66.7,118.12,118.52,194.71,143.29l-44.99-150.01ZM747.23,640.72h-153l-46.49,152.01c72.93-25.1,138.75-71.11,185.88-132.12l13.6-19.9Z"/>
  <path class="cls-2" d="M172.9,343.89l96.37,48.29c14.1,47.02,31.83,93.6,45.23,140.77.79,2.78,2.99,8.47,2.34,10.79l-54.29,64.79-180.65.03c-28.65-50.56-45.08-109.6-45.47-168.15,44.51-33.51,90.68-64.81,136.49-96.52Z"/>
  <path class="cls-2" d="M812.01,438.93c-.34,58.75-16.29,117.84-45.44,168.63l-178.64-.04c-19.66-20.67-37.82-42.94-56.56-64.51l1.6-8.04,46.81-144.19,94.45-47.65c.71-.42,1.25-.16,1.94.08,3.46,1.21,17.05,11.75,21.37,14.71,38.58,26.4,76.17,54.25,114.46,81.03Z"/>
  <path class="cls-2" d="M338.44,802.52l-52.04-168.58.31-3.2,57.22-66.82c53.63-2.27,107.55-1.24,161.27-.69l58.64,67.94-54.12,171.55c-55.93,14.11-115.26,12.53-171.3-.21Z"/>
  <path class="cls-2" d="M574.98,65.88c2.76-.57,31.31,14.13,35.93,16.66,30.5,16.74,61.71,40.16,86.85,64.15,1.79,1.7,7.28,6.63,7.48,8.54l-41.55,155.44-3.4,2.6-93.55,46.1-126.01-92.64-.56-105.57,1.07-2.93,133.74-92.34Z"/>
  <path class="cls-2" d="M158.6,139.1c32.54-29.81,70.51-53.69,110.63-71.98l2.93.08,134.56,92.52v106s-125.22,94.84-125.22,94.84l-2.97-.6-92.04-46.02-2.08-1.92-42.97-155.02c.01-1.92,14.5-15.46,17.16-17.9Z"/>
  <polygon class="cls-3" points="501.19 530.67 346.27 530.67 302.33 385.39 423.2 295.11 546.08 386.44 501.19 530.67"/>
  <path class="cls-3" d="M254.73,640.72l44.99,150.01c-76.59-24.77-149.25-76.59-194.71-143.29-1.37-2-3.44-4.33-3.78-6.72h153.5Z"/>
  <path class="cls-3" d="M747.23,640.72l-13.6,19.9c-47.14,61-112.95,107.02-185.88,132.12l46.49-152.01h153Z"/>
  <path class="cls-3" d="M812.22,398.71l-115.86-81.7,34.88-131.29c1.28-.96,5.48,4.89,6.4,6.08,7.47,9.64,16.04,23.06,22.39,33.61,31.51,52.28,48.49,112.35,52.19,173.3Z"/>
  <path class="cls-3" d="M116.22,187.72l34.84,130.4-114.83,80.59c2.65-61.15,21.47-120.79,52.2-173.29,5.73-9.78,12.56-20.59,19.41-29.59.89-1.16,6.83-9.72,8.39-8.1Z"/>
  <path class="cls-3" d="M535.23,50.73l-111.52,79-113.49-76.52,7.79-3.21c71.34-19.09,146.01-18.52,217.22.73Z"/>
</svg>