<?xml version="1.0" encoding="UTF-8"?>
<svg id="Calque_1" xmlns="http://www.w3.org/2000/svg" version="1.1" viewBox="0 0 900.19 900">
  <!-- Generator: Adobe Illustrator 29.5.1, SVG Export Plug-In . SVG Version: 2.1.0 Build 141)  -->
  <defs>
    <style>
      .st0 {
        fill: #3b82f6;
      }

      .st1 {
        fill: #1069e8;
      }

      .st2 {
        fill: #d2e1fd;
      }
    </style>
  </defs>
  <path class="st1" d="M446.91.02c283.52-2.29,493.37,248.18,446.8,527.46-39.74,238.36-268,402.47-507.43,367.93-182.04-26.26-334.68-163.74-374.9-343.73C-51.95,268.26,156.74,2.37,446.91.02ZM568.14,53.86c-75.59-20.43-154.85-21.04-230.58-.77l-8.27,3.41,120.47,81.22s118.38-83.86,118.38-83.86ZM610.33,69.95l-141.96,98.02-1.14,3.11.59,112.06,133.76,98.34,99.3-48.93,3.61-2.76,44.1-165c-.21-2.03-6.04-7.26-7.94-9.07-26.69-25.47-59.83-50.33-92.19-68.09-4.9-2.69-35.21-18.3-38.14-17.68h0ZM168.35,147.67c-2.82,2.59-18.19,16.96-18.22,19l45.61,164.55,2.21,2.04,97.7,48.85,3.15.64,132.93-100.67v-112.52l-142.85-98.21-3.11-.08c-42.59,19.4-82.89,44.75-117.43,76.41h.01ZM862.16,423.24c-3.93-64.7-21.95-128.47-55.4-183.96-6.74-11.19-15.84-25.43-23.77-35.68-.99-1.26-5.43-7.47-6.79-6.45l-37.02,139.36,122.98,86.72h0ZM123.36,199.28c-1.66-1.72-7.96,7.37-8.91,8.6-7.27,9.55-14.52,21.03-20.6,31.41-32.62,55.73-52.6,119.03-55.41,183.94l121.89-85.55-36.98-138.42h.01ZM532,563.31l47.65-153.1-130.44-96.95-128.3,95.83,46.64,154.21h164.45ZM861.94,465.93c-40.64-28.43-80.56-57.99-121.5-86.01-4.59-3.14-19.01-14.33-22.68-15.61-.73-.25-1.32-.53-2.06-.08l-100.26,50.58-49.69,153.06-1.7,8.53c19.89,22.91,39.17,46.54,60.04,68.48l189.62.04c30.94-53.91,47.87-116.64,48.23-179v.02h-.01ZM183.53,365.05c-48.63,33.66-97.62,66.88-144.88,102.45.41,62.16,17.85,124.83,48.27,178.49l191.76-.03,57.63-68.77c.69-2.46-1.65-8.49-2.48-11.45-14.21-50.08-33.03-99.51-48.01-149.43l-102.3-51.26h.02ZM359.25,851.88c59.49,13.52,122.46,15.19,181.83.22l57.45-182.1-62.25-72.12c-57.02-.59-114.26-1.68-171.19.73l-60.74,70.93-.33,3.4,55.24,178.95h-.02,0ZM270.39,680.13H107.45c.36,2.54,2.56,5.01,4.01,7.13,48.26,70.8,125.38,125.81,206.68,152.1l-47.76-159.23h0ZM793.17,680.13h-162.41l-49.35,161.36c77.41-26.64,147.28-75.48,197.31-140.24l14.44-21.12h.01Z"/>
  <path class="st2" d="M183.53,365.05l102.3,51.26c14.97,49.91,33.79,99.36,48.01,149.43.84,2.95,3.17,8.99,2.48,11.45l-57.63,68.77-191.76.03c-30.41-53.67-47.85-116.34-48.27-178.49,47.25-35.57,96.26-68.79,144.88-102.45h-.02Z"/>
  <path class="st2" d="M861.94,465.93c-.36,62.36-17.29,125.09-48.23,179l-189.62-.04c-20.87-21.94-40.15-45.58-60.04-68.48l1.7-8.53,49.69-153.06,100.26-50.58c.75-.45,1.33-.17,2.06.08,3.67,1.28,18.1,12.47,22.68,15.61,40.95,28.02,80.85,57.59,121.5,86.01v-.02h.01Z"/>
  <path class="st2" d="M359.25,851.88l-55.24-178.95.33-3.4,60.74-70.93c56.93-2.41,114.16-1.32,171.19-.73l62.25,72.12-57.45,182.1c-59.37,14.98-122.35,13.3-181.83-.22h.02,0Z"/>
  <path class="st2" d="M610.33,69.95c2.93-.61,33.24,15,38.14,17.68,32.38,17.77,65.5,42.63,92.19,68.09,1.9,1.8,7.73,7.04,7.94,9.07l-44.1,165-3.61,2.76-99.3,48.93-133.76-98.34-.59-112.06,1.14-3.11,141.96-98.02h0Z"/>
  <path class="st2" d="M168.35,147.67c34.54-31.64,74.85-56.99,117.43-76.41l3.11.08,142.83,98.21v112.52l-132.92,100.67-3.15-.64-97.7-48.85-2.21-2.04-45.61-164.55c0-2.04,15.39-16.41,18.22-19h0Z"/>
  <polygon class="st0" points="532 563.31 367.56 563.31 320.92 409.1 449.22 313.27 579.66 410.22 532 563.31"/>
  <path class="st0" d="M270.39,680.13l47.76,159.23c-81.3-26.29-158.43-81.3-206.68-152.1-1.45-2.12-3.65-4.6-4.01-7.13h162.94Z"/>
  <path class="st0" d="M793.17,680.13l-14.44,21.12c-50.04,64.75-119.89,113.6-197.31,140.24l49.35-161.36h162.41-.01Z"/>
  <path class="st0" d="M862.16,423.24l-122.98-86.72,37.02-139.36c1.36-1.02,5.82,5.19,6.79,6.45,7.93,10.23,17.03,24.48,23.77,35.68,33.45,55.49,51.47,119.26,55.4,183.96h0Z"/>
  <path class="st0" d="M123.36,199.28l36.98,138.42-121.89,85.55c2.81-64.91,22.79-128.22,55.41-183.94,6.08-10.38,13.33-21.86,20.6-31.41.94-1.23,7.25-10.32,8.91-8.6h-.01Z"/>
  <path class="st0" d="M568.14,53.86l-118.38,83.86-120.47-81.22,8.27-3.41c75.73-20.26,154.99-19.66,230.58.77Z"/>
</svg>