<?xml version="1.0" encoding="UTF-8"?>
<svg id="Calque_1" data-name="Calque 1" xmlns="http://www.w3.org/2000/svg" viewBox="0 0 685.23 903.83">
  <defs>
    <style>
      .cls-1 {
        fill: #fff;
      }
    </style>
  </defs>
  <path d="M88.75,802.56l-58.99,97.01c-14.4,9.84-32.36.82-29.44-17.45,34.12-58.74,70.28-116.54,104.92-175.07.39-1.23-14.38-2.58-16.04-2.94-41.82-8.86-70.58-40.76-75.82-83.18l-.17-440.91C20.86,84.64,101,6.4,196.71,1.52c95.64,3.73,194.87-4.82,290.09,0,93.65,4.73,172.85,77.52,184.32,170.68,1.77,152,2.1,304.63-.17,456.58-5.83,35.04-35,66.24-69.5,74.5-7.3,1.75-14.92,2.07-22.2,3.79l103.16,169.84c12.23,21.44-18.68,38.43-30.58,16.58l-55.09-90.91h-51.5c12.04,22.71,26.45,44.46,38.17,67.33,4.24,8.26,9.22,16.51,3.28,25.63-6.7,10.29-21.66,11.15-28.89.98l-52.46-93.32-1.57-.69-322.88.23-53.22,92.78c-12,16.68-36.52,6.44-32.21-14.21l43.77-78.73h-50.5ZM198.04,36.85C119.57,42.04,54.22,104.2,48.2,183.02v434.08c2.28,30.91,26.51,51.7,56.5,54.5h477.08c28.51-2.1,51.59-23.26,55.5-51.5V184.02c-5.42-80.86-73.69-143.18-153.49-147.5-93.51-5.07-191.76,3.64-285.75.34ZM192.25,706.56h-46.5l-36.5,61h50l33-61ZM487.25,767.56l-34.69-60.81-218.85-.27-34.46,61.07h288ZM576.25,767.56l-36.5-61h-45.5l33.5,61h48.5Z"/>
  <path class="cls-1" d="M198.04,36.85c93.98,3.3,192.24-5.4,285.75-.34,79.81,4.32,148.08,66.64,153.5,147.5v436.08c-3.92,28.24-27,49.4-55.5,51.5H104.71c-29.99-2.8-54.23-23.59-56.5-54.5V183.02C54.22,104.2,119.57,42.04,198.04,36.85ZM446.89,106.2c10.01-10.01,4.89-27.34-9.12-29.67l-190.03.02c-19.72,2.11-19.6,32.58,2,35.01l185.04.04c4.28-.07,9.14-2.44,12.1-5.4ZM127.04,150.85c-22.42,2.79-40.36,19.65-45.54,41.46.47,61.83-4.9,128.19-1.3,189.8,1.82,31.07,20.33,51.36,51.51,54.49h421.08c26.35-.75,48.92-19.88,51.5-46.5l-.05-192.02c-3.38-25.34-22.47-45.51-48.45-47.55l-428.74.33ZM162.05,478.86c-66.5,5.51-94.51,88.92-42.81,133.21,55.86,47.85,138.35-5.32,121.52-75.52-8.35-34.82-42.73-60.67-78.71-57.69ZM511.04,478.85c-59.31,5.62-90.58,76.04-52.31,122.72,53.49,65.24,156.18,9.78,130.8-70.8-10.4-33.01-43.92-55.2-78.49-51.92Z"/>
  <path d="M127.04,150.85l428.74-.33c25.98,2.04,45.06,22.22,48.45,47.55l.05,192.02c-2.58,26.62-25.14,45.75-51.5,46.5H131.71c-31.18-3.13-49.69-23.43-51.51-54.49-3.6-61.61,1.77-127.96,1.3-189.8,5.18-21.81,23.12-38.67,45.54-41.46ZM325.25,185.56h-194.5c-3.9,0-13.41,7.54-13.82,12.18-.97,64.26-1.49,129.2.27,193.36.65,2.91,7,9.45,9.55,9.45h198.5v-215ZM360.25,400.56h197.5c4.9,0,12.16-11.43,11.49-16.51-.59-61.97,1.26-124.26-.94-186.04-.55-4.9-9.17-12.45-13.55-12.45h-194.5v215Z"/>
  <path d="M511.04,478.85c34.57-3.28,68.09,18.91,78.49,51.92,25.38,80.58-77.31,136.04-130.8,70.8-38.27-46.68-7.01-117.1,52.31-122.72ZM514.02,513.84c-46.75,4.86-49.35,73.45-4.82,80.27,66.23,10.14,62.33-86.25,4.82-80.27Z"/>
  <path d="M162.05,478.86c35.98-2.98,70.36,22.87,78.71,57.69,16.83,70.2-65.66,123.37-121.52,75.52-51.7-44.29-23.69-127.7,42.81-133.21ZM163.02,513.84c-59.16,6.83-39.79,99.42,18.5,78.49,43.46-15.6,28.15-83.88-18.5-78.49Z"/>
  <path d="M446.89,106.2c-2.96,2.96-7.82,5.32-12.1,5.4l-185.04-.04c-21.6-2.43-21.72-32.89-2-35.01l190.03-.02c14.01,2.32,19.13,19.65,9.12,29.67Z"/>
  <path class="cls-1" d="M325.25,185.56v215H126.75c-2.55,0-8.89-6.54-9.55-9.45-1.76-64.17-1.23-129.11-.27-193.36.41-4.65,9.91-12.18,13.82-12.18h194.5Z"/>
  <path class="cls-1" d="M360.25,400.56v-215h194.5c4.38,0,13,7.56,13.55,12.45,2.2,61.78.34,124.07.94,186.04.67,5.08-6.59,16.51-11.49,16.51h-197.5Z"/>
  <path class="cls-1" d="M514.02,513.84c57.5-5.98,61.41,90.41-4.82,80.27-44.53-6.82-41.92-75.41,4.82-80.27Z"/>
  <path class="cls-1" d="M163.02,513.84c46.65-5.39,61.95,62.89,18.5,78.49-58.29,20.92-77.65-71.66-18.5-78.49Z"/>
</svg>